<svg width="24" height="26" viewBox="0 0 24 26" fill="none" xmlns="http://www.w3.org/2000/svg">
<g id="heroicons:building-office-2">
<g id="Vector">
<path d="M2.25 22.481H21.75H2.25ZM3.75 3.51898V22.481V3.51898ZM14.25 3.51898V22.481V3.51898ZM20.25 8.25949V22.481V8.25949ZM6.75 7.4694H7.5H6.75ZM6.75 10.6297H7.5H6.75ZM6.75 13.7901H7.5H6.75ZM10.5 7.4694H11.25H10.5ZM10.5 10.6297H11.25H10.5ZM10.5 13.7901H11.25H10.5ZM6.75 22.481V18.9256C6.75 18.2714 7.254 17.7405 7.875 17.7405H10.125C10.746 17.7405 11.25 18.2714 11.25 18.9256V22.481M3 3.51898H15H3ZM14.25 8.25949H21H14.25ZM17.25 12.2099H17.258V12.2183H17.25V12.2099ZM17.25 15.3702H17.258V15.3787H17.25V15.3702ZM17.25 18.5306H17.258V18.539H17.25V18.5306Z" fill="#939393"/>
<path d="M2.25 22.481H21.75M3.75 3.51898V22.481M14.25 3.51898V22.481M20.25 8.25949V22.481M6.75 7.4694H7.5M6.75 10.6297H7.5M6.75 13.7901H7.5M10.5 7.4694H11.25M10.5 10.6297H11.25M10.5 13.7901H11.25M6.75 22.481V18.9256C6.75 18.2714 7.254 17.7405 7.875 17.7405H10.125C10.746 17.7405 11.25 18.2714 11.25 18.9256V22.481M3 3.51898H15M14.25 8.25949H21M17.25 12.2099H17.258V12.2183H17.25V12.2099ZM17.25 15.3702H17.258V15.3787H17.25V15.3702ZM17.25 18.5306H17.258V18.539H17.25V18.5306Z" stroke="black" stroke-width="1.5" stroke-linecap="round" stroke-linejoin="round"/>
</g>
</g>
</svg>
