<svg width="24" height="25" viewBox="0 0 24 25" fill="none" xmlns="http://www.w3.org/2000/svg">
<g id="bx:category">
<path id="Vector" d="M10 3.78271H4C3.73478 3.78271 3.48043 3.88807 3.29289 4.07561C3.10536 4.26314 3 4.5175 3 4.78271V10.7827C3 11.0479 3.10536 11.3023 3.29289 11.4898C3.48043 11.6774 3.73478 11.7827 4 11.7827H10C10.2652 11.7827 10.5196 11.6774 10.7071 11.4898C10.8946 11.3023 11 11.0479 11 10.7827V4.78271C11 4.5175 10.8946 4.26314 10.7071 4.07561C10.5196 3.88807 10.2652 3.78271 10 3.78271ZM9 9.78271H5V5.78271H9V9.78271ZM20 3.78271H14C13.7348 3.78271 13.4804 3.88807 13.2929 4.07561C13.1054 4.26314 13 4.5175 13 4.78271V10.7827C13 11.0479 13.1054 11.3023 13.2929 11.4898C13.4804 11.6774 13.7348 11.7827 14 11.7827H20C20.2652 11.7827 20.5196 11.6774 20.7071 11.4898C20.8946 11.3023 21 11.0479 21 10.7827V4.78271C21 4.5175 20.8946 4.26314 20.7071 4.07561C20.5196 3.88807 20.2652 3.78271 20 3.78271ZM19 9.78271H15V5.78271H19V9.78271ZM10 13.7827H4C3.73478 13.7827 3.48043 13.8881 3.29289 14.0756C3.10536 14.2631 3 14.5175 3 14.7827V20.7827C3 21.0479 3.10536 21.3023 3.29289 21.4898C3.48043 21.6774 3.73478 21.7827 4 21.7827H10C10.2652 21.7827 10.5196 21.6774 10.7071 21.4898C10.8946 21.3023 11 21.0479 11 20.7827V14.7827C11 14.5175 10.8946 14.2631 10.7071 14.0756C10.5196 13.8881 10.2652 13.7827 10 13.7827ZM9 19.7827H5V15.7827H9V19.7827ZM17 13.7827C14.794 13.7827 13 15.5767 13 17.7827C13 19.9887 14.794 21.7827 17 21.7827C19.206 21.7827 21 19.9887 21 17.7827C21 15.5767 19.206 13.7827 17 13.7827ZM17 19.7827C15.897 19.7827 15 18.8857 15 17.7827C15 16.6797 15.897 15.7827 17 15.7827C18.103 15.7827 19 16.6797 19 17.7827C19 18.8857 18.103 19.7827 17 19.7827Z" fill="#444444"/>
</g>
</svg>
