<svg width="40" height="40" viewBox="0 0 40 40" fill="none" xmlns="http://www.w3.org/2000/svg">
<g id="bx:support">
<path id="Vector" d="M20 3.33325C10.81 3.33325 3.33333 10.8099 3.33333 19.9999V26.9049C3.33333 28.6116 4.82833 29.9999 6.66666 29.9999H8.33333C8.77536 29.9999 9.19928 29.8243 9.51184 29.5118C9.8244 29.1992 10 28.7753 10 28.3333V19.7616C10 19.3196 9.8244 18.8956 9.51184 18.5831C9.19928 18.2705 8.77536 18.0949 8.33333 18.0949H6.82C7.74666 11.6449 13.2967 6.66659 20 6.66659C26.7033 6.66659 32.2533 11.6449 33.18 18.0949H31.6667C31.2246 18.0949 30.8007 18.2705 30.4881 18.5831C30.1756 18.8956 30 19.3196 30 19.7616V29.9999C30 31.8383 28.505 33.3333 26.6667 33.3333H23.3333V31.6666H16.6667V36.6666H26.6667C30.3433 36.6666 33.3333 33.6766 33.3333 29.9999C35.1717 29.9999 36.6667 28.6116 36.6667 26.9049V19.9999C36.6667 10.8099 29.19 3.33325 20 3.33325Z" fill="white"/>
</g>
</svg>
