<svg width="40" height="40" viewBox="0 0 40 40" fill="none" xmlns="http://www.w3.org/2000/svg">
<g id="ic:round-post-add">
<path id="Vector" d="M30 19.9999C29.0833 19.9999 28.3333 20.7499 28.3333 21.6666V30.3666C28.3333 31.2833 27.5833 32.0333 26.6667 32.0333H10C9.08333 32.0333 8.33333 31.2833 8.33333 30.3666V13.3333C8.33333 12.4166 9.08333 11.6666 10 11.6666H18.3333C19.25 11.6666 20 10.9166 20 9.99992C20 9.08325 19.25 8.33325 18.3333 8.33325H8.33333C6.5 8.33325 5 9.83325 5 11.6666V31.6666C5 33.4999 6.5 34.9999 8.33333 34.9999H28.3333C30.1667 34.9999 31.6667 33.4999 31.6667 31.6666V21.6666C31.6667 20.7499 30.9167 19.9999 30 19.9999ZM35.0333 8.33325H31.6667V4.96659C31.6667 4.06659 30.9333 3.33325 30.0333 3.33325H29.9833C29.0667 3.33325 28.3333 4.06659 28.3333 4.96659V8.33325H24.9833C24.0833 8.33325 23.35 9.06659 23.3333 9.96659V10.0166C23.3333 10.9333 24.0667 11.6666 24.9833 11.6666H28.3333V15.0166C28.3333 15.9166 29.0667 16.6666 29.9833 16.6499H30.0333C30.9333 16.6499 31.6667 15.9166 31.6667 15.0166V11.6666H35.0333C35.9333 11.6666 36.6667 10.9333 36.6667 10.0333V9.96659C36.6667 9.06659 35.9333 8.33325 35.0333 8.33325Z" fill="white"/>
<path id="Vector_2" d="M23.3333 15H13.3333C12.4166 15 11.6666 15.75 11.6666 16.6667C11.6666 17.5833 12.4166 18.3333 13.3333 18.3333H23.3333C24.25 18.3333 25 17.5833 25 16.6667C25 15.75 24.25 15 23.3333 15ZM23.3333 20H13.3333C12.4166 20 11.6666 20.75 11.6666 21.6667C11.6666 22.5833 12.4166 23.3333 13.3333 23.3333H23.3333C24.25 23.3333 25 22.5833 25 21.6667C25 20.75 24.25 20 23.3333 20ZM23.3333 25H13.3333C12.4166 25 11.6666 25.75 11.6666 26.6667C11.6666 27.5833 12.4166 28.3333 13.3333 28.3333H23.3333C24.25 28.3333 25 27.5833 25 26.6667C25 25.75 24.25 25 23.3333 25Z" fill="white"/>
</g>
</svg>
