<svg width="535" height="417" viewBox="0 0 535 417" fill="none" xmlns="http://www.w3.org/2000/svg">
<path d="M445.954 173.904C454.847 95.6443 398.612 24.9937 320.35 16.1012C242.088 7.20876 171.435 63.4422 162.542 141.703C153.65 219.963 209.884 290.613 288.146 299.506C366.409 308.398 437.062 252.164 445.954 173.904Z" fill="#F5F5F8"/>
<path d="M476.774 322.928C508.629 322.928 534.452 297.106 534.452 265.252C534.452 233.398 508.629 207.576 476.774 207.576C444.92 207.576 419.096 233.398 419.096 265.252C419.096 297.106 444.92 322.928 476.774 322.928Z" fill="#F9F9F9"/>
<path d="M197.118 309.889L154.77 236.421L85.1445 279.966L128.291 355.018C129.245 356.894 130.413 358.662 131.813 360.308C143.73 374.316 167.487 373.67 184.878 358.862C201.023 345.131 206.006 324.05 197.118 309.889Z" fill="#1E9392"/>
<path d="M171.04 331.154C175.007 327.786 178.328 324.004 181.004 319.991C180.804 319.637 180.635 319.268 180.419 318.914L163.966 290.376C161.491 293.79 158.538 297.003 155.125 299.925C136.258 315.978 110.502 316.685 97.5547 301.555L117.882 336.92C131.675 347.576 154.125 345.546 171.04 331.154Z" fill="#46B3B2" fill-opacity="0.9"/>
<path d="M156.739 368.534C155.139 366.658 153.802 364.628 152.71 362.476L103.335 276.584L158.153 242.295L154.77 236.421L85.1445 279.966L128.291 355.018C129.245 356.894 130.413 358.662 131.813 360.308C138.194 367.796 147.958 371.055 158.338 370.241C157.784 369.687 157.246 369.118 156.739 368.534Z" fill="url(#paint0_linear_270_72434)"/>
<path d="M142.336 285.123C159.737 270.322 164.187 246.971 152.274 232.967C140.362 218.963 116.6 219.609 99.1987 234.409C81.7983 249.209 77.3492 272.56 89.2614 286.565C101.174 300.569 124.936 299.923 142.336 285.123Z" fill="#1E9392"/>
<path d="M140.301 282.719C124.54 296.127 103.012 296.711 92.2183 284.026C81.4234 271.34 85.4521 250.182 101.213 236.774C116.974 223.366 138.502 222.782 149.297 235.467C160.106 248.153 156.077 269.295 140.301 282.719Z" fill="url(#paint1_linear_270_72434)"/>
<path d="M165.457 276.059L165.38 269.217L163.781 269.232C161.198 264.097 155.862 260.591 149.711 260.652C143.576 260.714 138.317 264.343 135.841 269.524L134.242 269.54L134.319 276.383C134.412 284.978 141.454 291.882 150.049 291.789C158.645 291.697 165.549 284.655 165.457 276.059Z" fill="#D1DDE8"/>
<path d="M160.807 280.392C166.89 274.31 166.89 264.447 160.807 258.365C154.724 252.282 144.862 252.282 138.778 258.365C132.696 264.447 132.696 274.31 138.778 280.392C144.862 286.475 154.724 286.475 160.807 280.392Z" fill="#F9F9F9"/>
<path d="M134.609 266.035C134.363 267.173 134.224 268.342 134.239 269.541C134.255 270.755 134.409 271.924 134.685 273.047L165.008 272.723C165.254 271.586 165.393 270.417 165.378 269.218C165.362 268.003 165.208 266.834 164.932 265.712L134.609 266.035Z" fill="white"/>
<path d="M139.903 244.432L133.63 241.71L132.999 243.187C127.249 243.463 121.881 246.908 119.437 252.551C116.992 258.194 118.161 264.467 121.897 268.834L121.266 270.311L127.54 273.032C135.428 276.446 144.593 272.817 148.006 264.928C151.42 257.01 147.791 247.846 139.903 244.432Z" fill="#D1DDE8"/>
<path d="M141.715 262.191C138.301 270.08 129.137 273.709 121.249 270.295C113.361 266.881 109.731 257.717 113.145 249.829C116.559 241.941 125.723 238.312 133.611 241.726C141.5 245.124 145.144 254.303 141.715 262.191Z" fill="#F9F9F9"/>
<path d="M118.191 268.526C119.129 269.218 120.144 269.818 121.251 270.295C122.358 270.772 123.496 271.094 124.634 271.309L136.674 243.478C135.736 242.787 134.721 242.187 133.614 241.71C132.507 241.234 131.369 240.911 130.231 240.695L118.191 268.526Z" fill="white"/>
<path d="M127.137 288.485L125.553 281.827L124 282.196C120.341 277.753 114.36 275.507 108.393 276.938C102.411 278.352 98.0907 283.041 96.8145 288.654L95.2617 289.023L96.8451 295.681C98.8284 304.045 107.224 309.212 115.589 307.228C123.939 305.245 129.121 296.85 127.137 288.485Z" fill="#D1DDE8"/>
<path d="M113.348 300.718C121.8 299.113 127.352 290.962 125.747 282.51C124.143 274.057 115.99 268.507 107.538 270.111C99.0863 271.716 93.5346 279.867 95.1396 288.319C96.7437 296.772 104.897 302.322 113.348 300.718Z" fill="#F9F9F9"/>
<path d="M94.8477 285.517C94.863 286.67 94.9855 287.854 95.2629 289.022C95.5394 290.191 95.9546 291.298 96.477 292.344L125.97 285.332C125.954 284.18 125.832 282.995 125.554 281.826C125.278 280.658 124.863 279.551 124.34 278.506L94.8477 285.517Z" fill="white"/>
<path d="M154.844 211.834L153.261 205.177L151.708 205.546C148.048 201.102 142.067 198.857 136.101 200.287C130.119 201.701 125.799 206.392 124.522 212.004L122.969 212.373L124.553 219.03C126.536 227.395 134.932 232.562 143.297 230.578C151.662 228.594 156.844 220.199 154.844 211.834Z" fill="#D1DDE8"/>
<path d="M141.715 223.919C133.35 225.902 124.955 220.736 122.971 212.372C120.987 204.007 126.154 195.612 134.519 193.628C142.884 191.644 151.28 196.81 153.263 205.176C155.262 213.54 150.08 221.936 141.715 223.919Z" fill="#F9F9F9"/>
<path d="M122.555 208.867C122.555 210.02 122.693 211.204 122.97 212.373C123.247 213.541 123.663 214.648 124.185 215.693L153.677 208.682C153.662 207.529 153.539 206.345 153.262 205.177C152.986 204.008 152.571 202.901 152.047 201.855L122.555 208.867Z" fill="white"/>
<path d="M117.19 158.002L115.606 151.344L114.053 151.713C110.394 147.269 104.413 145.024 98.4465 146.454C92.4643 147.868 88.1437 152.559 86.8675 158.171L85.3145 158.54L86.8982 165.198C88.8818 173.562 97.2775 178.729 105.642 176.745C114.007 174.762 119.189 166.367 117.19 158.002Z" fill="#D1DDE8"/>
<path d="M104.059 170.087C95.6942 172.071 87.2982 166.904 85.3145 158.539C83.331 150.175 88.4975 141.779 96.8624 139.796C105.227 137.813 113.623 142.979 115.606 151.343C117.606 159.708 112.423 168.103 104.059 170.087Z" fill="#F9F9F9"/>
<path d="M84.9004 155.018C84.9158 156.171 85.0387 157.355 85.3155 158.523C85.5923 159.692 86.0075 160.799 86.5303 161.845L116.023 154.833C116.007 153.679 115.885 152.496 115.607 151.327C115.331 150.159 114.916 149.052 114.393 148.006L84.9004 155.018Z" fill="white"/>
<path d="M91.6935 195.289L85.2506 188.554L83.4977 190.538C67.6597 184.603 47.2394 192.291 34.8151 209.958C24.9586 223.997 22.7443 240.634 27.7417 253.35L25.958 255.364L35.5224 264.898V264.882C36.4757 265.774 37.4906 266.604 38.5823 267.374C54.8816 278.829 79.6382 271.694 93.8767 251.428C107.593 231.87 106.793 210.927 91.6935 195.289Z" fill="#D1DDE8"/>
<path d="M53.1594 272.677C51.8832 272.569 50.6223 272.369 49.3922 272.108L25.7582 246.184L20.9453 240.894L22.7136 239.28L25.2815 242.094L53.1594 272.677Z" fill="#F9F9F9"/>
<path d="M62.724 272.294C61.7707 272.463 60.802 272.602 59.8486 272.694L30.8789 240.911L32.6472 239.297L62.724 272.294Z" fill="#F9F9F9"/>
<path d="M70.6746 270.063C69.8597 270.386 69.0446 270.678 68.2143 270.924L40.8438 240.894L42.6121 239.28L70.6746 270.063Z" fill="#F9F9F9"/>
<path d="M77.5481 266.695C76.8254 267.111 76.1182 267.526 75.3955 267.895L50.7773 240.894L52.561 239.28L77.5481 266.695Z" fill="#F9F9F9"/>
<path d="M83.6224 262.469C82.992 262.976 82.3615 263.452 81.7158 263.929L60.7266 240.911L62.5103 239.297L83.6224 262.469Z" fill="#F9F9F9"/>
<path d="M89.0051 257.424C88.4668 258.024 87.9133 258.577 87.329 259.131L70.6914 240.894L72.4751 239.28L89.0051 257.424Z" fill="#F9F9F9"/>
<path d="M93.7997 251.519C93.3386 252.181 92.8459 252.842 92.3388 253.472L71.9492 231.099L73.7175 229.485L93.7997 251.519Z" fill="#F9F9F9"/>
<path d="M97.9383 244.816C97.5538 245.554 97.1539 246.292 96.7233 247.015L71.9668 219.845L73.7351 218.231L97.9383 244.816Z" fill="#F9F9F9"/>
<path d="M101.257 237.174C100.965 238.02 100.657 238.865 100.303 239.696L71.9492 208.589L73.7175 206.974L101.257 237.174Z" fill="#F9F9F9"/>
<path d="M103.335 228.194C103.212 229.193 103.043 230.208 102.843 231.208L71.9355 197.318L73.7038 195.704L103.335 228.194Z" fill="#F9F9F9"/>
<path d="M103.518 220.689L74.2865 188.63L71.9492 186.062L73.7175 184.448L77.8847 189.03L103.01 216.569C103.271 217.937 103.425 219.306 103.518 220.689Z" fill="#F9F9F9"/>
<path d="M85.0801 242.668C99.3095 222.411 97.628 196.707 81.3252 185.255C65.0222 173.803 40.2709 180.942 26.0417 201.198C11.8124 221.455 13.4935 247.159 29.7965 258.61C46.0995 270.062 70.8508 262.924 85.0801 242.668Z" fill="#F9F9F9"/>
<path d="M62.8026 185.048C68.4767 185.048 73.7971 186.678 78.1794 189.754C92.3257 199.686 93.6948 222.213 81.2239 239.957C73.0589 251.597 60.4501 258.824 48.3332 258.824C42.6592 258.824 37.3388 257.194 32.9565 254.119C18.8099 244.185 17.4414 221.659 29.9119 203.915C38.0769 192.275 50.6858 185.048 62.8026 185.048ZM62.8026 183.511C50.5936 183.511 37.431 190.537 28.651 203.023C15.673 221.49 17.2107 244.924 32.08 255.364C36.8929 258.747 42.5054 260.346 48.3332 260.346C60.5423 260.346 73.7048 253.319 82.4849 240.833C95.4628 222.366 93.9253 198.933 79.0558 188.493C74.2429 185.11 68.6305 183.511 62.8026 183.511Z" fill="white"/>
<path d="M418.281 416.17L203.53 379.529C197.917 378.575 193.996 373.47 194.503 367.812L221.766 61.6086C222.274 55.9501 227.041 51.614 232.729 51.6601L450.572 53.5206C456.938 53.5822 461.904 59.0561 461.351 65.3911L430.982 406.375C430.413 412.726 424.569 417.231 418.281 416.17Z" fill="#46B3B2" fill-opacity="0.9"/>
<path d="M417.219 405.315L206.297 369.319L232.222 78.1387L446.189 79.9684L417.219 405.315Z" fill="#F9F9F9"/>
<path d="M417.219 405.315L206.297 369.319L232.222 78.1387L446.189 79.9684L417.219 405.315Z" fill="url(#paint2_linear_270_72434)"/>
<path d="M446.19 79.9684L232.224 78.1387C232.224 78.1387 203.838 317.84 185.678 333.215L399.383 379.867L446.19 79.9684Z" fill="white"/>
<path d="M185.677 333.215C185.677 333.215 162.197 321.866 164.288 289.622L354.913 334.383C354.913 334.383 394.324 412.248 402.442 360.215L399.383 379.866L185.677 333.215Z" fill="#F9F9F9"/>
<path d="M304.02 72.3084C306.923 71.7098 308.791 68.8714 308.192 65.9687C307.594 63.066 304.755 61.1982 301.852 61.7969C298.949 62.3955 297.082 65.2339 297.68 68.1366C298.279 71.0393 301.118 72.9071 304.02 72.3084Z" fill="#1E9392"/>
<path d="M380.688 72.1558C383.581 71.5082 385.4 68.6387 384.752 65.7468C384.105 62.8548 381.235 61.0353 378.343 61.6829C375.451 62.3304 373.632 65.1998 374.279 68.0919C374.927 70.9839 377.796 72.8033 380.688 72.1558Z" fill="#1E9392"/>
<path d="M302.926 67.0672L301.235 86.1491C300.957 89.1936 303.372 91.8229 306.431 91.8229L331.926 91.7769L332.003 90.87C332.249 88.0558 334.587 85.8877 337.416 85.8724L339.846 85.857C343.059 85.8263 345.596 88.5632 345.335 91.7616L372.598 91.7157C375.289 91.7157 377.533 89.6549 377.779 86.964L379.563 66.9595" stroke="#1E9392" stroke-width="3" stroke-miterlimit="10" stroke-linejoin="round"/>
<path d="M260.654 126.082L396.185 129.649" stroke="#F9F9F9" stroke-width="3" stroke-miterlimit="10" stroke-linecap="round"/>
<path d="M258.842 146.424L394.372 149.99" stroke="#F9F9F9" stroke-width="3" stroke-miterlimit="10" stroke-linecap="round"/>
<path d="M255.502 166.629L391.032 170.196" stroke="#F9F9F9" stroke-width="3" stroke-miterlimit="10" stroke-linecap="round"/>
<path d="M252.15 186.833L387.681 190.4" stroke="#F9F9F9" stroke-width="3" stroke-miterlimit="10" stroke-linecap="round"/>
<path d="M248.812 207.036L384.343 210.604" stroke="#F9F9F9" stroke-width="3" stroke-miterlimit="10" stroke-linecap="round"/>
<path d="M314.396 257.702C313.35 269.48 302.94 278.183 291.162 277.137C279.383 276.092 270.68 265.682 271.726 253.904C272.771 242.126 283.181 233.423 294.96 234.468C306.739 235.529 315.442 245.924 314.396 257.702Z" fill="#F9F9F9"/>
<path d="M253.489 269.266C247.508 261.977 244.802 252.09 246.216 242.772C246.555 240.512 247.477 237.913 249.676 237.283C252.921 236.36 255.258 240.312 256.288 243.525C257.626 247.662 258.979 251.813 260.317 255.95C260.578 256.733 260.87 257.579 261.563 258.01C264.853 260.055 266.39 250.645 269.988 252.044C271.957 252.813 271.342 255.842 272.51 257.611C273.817 259.594 276.878 259.255 278.953 258.102C281.029 256.949 282.905 255.196 285.273 254.965C287.549 254.735 289.779 255.98 292.054 255.734C296.006 255.304 299.096 250.552 302.925 251.628" stroke="#D1DDE8" stroke-width="3" stroke-miterlimit="10" stroke-linecap="round"/>
<path d="M291.515 385.739L258.255 372.947C252.212 370.625 245.431 373.638 243.094 379.682C240.772 385.724 243.786 392.505 249.829 394.842L283.088 407.636C289.132 409.957 295.913 406.943 298.25 400.901C300.572 394.842 297.559 388.061 291.515 385.739Z" fill="white"/>
<path d="M291.515 385.74L274.878 379.344L266.451 401.24L283.088 407.636C289.132 409.958 295.913 406.944 298.25 400.902C300.572 394.843 297.559 388.062 291.515 385.74Z" fill="#1E9392"/>
<path d="M291.192 401.086L248.183 384.541C245.954 383.68 244.139 382.219 242.847 380.389C241.017 386.247 244.016 392.583 249.813 394.812L283.073 407.605C288.87 409.834 295.359 407.143 297.911 401.577C295.758 402.07 293.421 401.947 291.192 401.086Z" fill="url(#paint3_linear_270_72434)"/>
<path d="M341.168 344.732L306.877 354.434C300.65 356.203 297.021 362.676 298.789 368.903C300.558 375.131 307.031 378.759 313.259 376.991L347.549 367.289C353.776 365.521 357.405 359.047 355.637 352.82C353.884 346.592 347.41 342.978 341.168 344.732Z" fill="white"/>
<path d="M341.169 344.732L324.023 349.576L330.405 372.148L347.55 367.304C353.777 365.536 357.406 359.062 355.638 352.835C353.885 346.593 347.411 342.978 341.169 344.732Z" fill="#1E9392"/>
<path d="M350.116 357.217L305.785 369.748C303.479 370.394 301.142 370.318 299.035 369.626C301.08 375.407 307.277 378.682 313.259 376.99L347.548 367.289C353.53 365.597 357.097 359.554 355.821 353.557C354.375 355.264 352.423 356.571 350.116 357.217Z" fill="url(#paint4_linear_270_72434)"/>
<path d="M164.257 78.7671H152.447V66.9428H139.285V78.7671H127.461V91.9291H139.285V103.738H152.447V91.9291H164.257V78.7671Z" fill="#46B3B2" fill-opacity="0.9"/>
<path d="M197.794 126.22H189.768V118.208H180.834V126.22H172.822V135.153H180.834V143.18H189.768V135.153H197.794V126.22Z" fill="#1E9392"/>
<path d="M512.462 105.307H504.436V97.2961H495.502V105.307H487.49V114.241H495.502V122.267H504.436V114.241H512.462V105.307Z" fill="#46B3B2" fill-opacity="0.9"/>
<path d="M466.486 343.963L522.641 180.544C523.795 177.176 521.658 173.394 517.86 172.102L423.447 139.658C419.648 138.351 415.65 140.027 414.482 143.395L358.326 306.814C357.173 310.181 359.311 313.964 363.093 315.256L457.506 347.7C461.32 348.991 465.332 347.33 466.486 343.963Z" fill="#1E9392"/>
<path opacity="0.6" d="M450.925 169.704L429.382 162.384C425.461 161.047 421.217 163.153 419.879 167.058C418.542 170.98 420.648 175.224 424.554 176.561L446.097 183.881C450.017 185.218 454.261 183.112 455.6 179.206C456.937 175.285 454.831 171.026 450.925 169.704Z" fill="#1E9392"/>
<path opacity="0.6" d="M499.224 186.295L477.681 178.976C473.76 177.637 469.516 179.744 468.178 183.65C466.84 187.571 468.947 191.815 472.852 193.152L494.396 200.472C498.316 201.809 502.56 199.702 503.899 195.797C505.236 191.876 503.129 187.617 499.224 186.295Z" fill="#1E9392"/>
<path opacity="0.6" d="M442.161 195.168L420.618 187.848C416.697 186.511 412.453 188.617 411.115 192.522C409.778 196.444 411.885 200.688 415.79 202.025L437.332 209.345C441.254 210.682 445.498 208.576 446.835 204.67C448.174 200.749 446.082 196.505 442.161 195.168Z" fill="#1E9392"/>
<path opacity="0.6" d="M490.476 211.774L468.932 204.454C465.012 203.117 460.768 205.223 459.43 209.129C458.092 213.05 460.199 217.294 464.105 218.631L485.647 225.951C489.569 227.288 493.813 225.182 495.15 221.277C496.472 217.355 494.381 213.096 490.476 211.774Z" fill="#1E9392"/>
<path opacity="0.6" d="M433.411 220.645L411.868 213.326C407.947 211.988 403.703 214.095 402.365 218C401.028 221.921 403.135 226.165 407.04 227.503L428.583 234.821C432.504 236.16 436.748 234.053 438.085 230.147C439.424 226.227 437.332 221.967 433.411 220.645Z" fill="#1E9392"/>
<path opacity="0.6" d="M481.71 237.236L460.167 229.917C456.246 228.579 452.002 230.686 450.664 234.592C449.327 238.512 451.433 242.756 455.339 244.094L476.882 251.413C480.803 252.751 485.047 250.644 486.384 246.739C487.722 242.817 485.631 238.574 481.71 237.236Z" fill="#1E9392"/>
<path opacity="0.6" d="M424.386 246.924L402.843 239.605C398.922 238.267 394.678 240.374 393.34 244.279C392.002 248.201 394.109 252.444 398.015 253.782L419.557 261.101C423.479 262.439 427.723 260.332 429.06 256.427C430.398 252.506 428.306 248.246 424.386 246.924Z" fill="#1E9392"/>
<path opacity="0.6" d="M472.683 263.515L451.139 256.197C447.219 254.859 442.975 256.965 441.637 260.871C440.299 264.791 442.406 269.035 446.312 270.374L467.854 277.692C471.776 279.03 476.02 276.923 477.357 273.018C478.695 269.097 476.603 264.854 472.683 263.515Z" fill="#1E9392"/>
<path opacity="0.6" d="M415.436 272.971L393.894 265.652C389.972 264.314 385.728 266.421 384.391 270.326C383.053 274.247 385.16 278.491 389.065 279.829L410.609 287.148C414.529 288.486 418.773 286.379 420.111 282.474C421.434 278.568 419.342 274.309 415.436 272.971Z" fill="#1E9392"/>
<path opacity="0.6" d="M463.733 289.577L442.191 282.258C438.269 280.92 434.025 283.027 432.688 286.932C431.35 290.853 433.457 295.097 437.362 296.435L458.905 303.753C462.826 305.092 467.07 302.985 468.407 299.079C469.746 295.159 467.639 290.899 463.733 289.577Z" fill="#1E9392"/>
<path opacity="0.6" d="M406.671 298.45L385.128 291.131C381.207 289.793 376.963 291.9 375.626 295.805C374.287 299.726 376.394 303.97 380.3 305.308L401.842 312.627C405.764 313.964 410.008 311.858 411.345 307.952C412.683 304.032 410.592 299.788 406.671 298.45Z" fill="#1E9392"/>
<path opacity="0.6" d="M454.97 315.041L433.427 307.722C429.506 306.384 425.262 308.491 423.924 312.396C422.586 316.317 424.693 320.561 428.599 321.899L450.141 329.217C454.063 330.556 458.307 328.449 459.644 324.543C460.982 320.638 458.89 316.379 454.97 315.041Z" fill="#1E9392"/>
<path d="M452.355 165.536L430.812 158.218C426.891 156.88 422.647 158.987 421.309 162.892C419.971 166.813 422.078 171.056 425.983 172.395L447.526 179.713C451.447 181.052 455.691 178.945 457.029 175.039C458.367 171.119 456.26 166.859 452.355 165.536Z" fill="white"/>
<path d="M452.539 175.332L424.692 165.876C423.247 165.384 422.048 164.492 421.186 163.369C420.172 167.152 422.247 171.119 425.999 172.396L447.542 179.714C451.294 180.991 455.369 179.099 456.861 175.486C455.476 175.855 453.985 175.824 452.539 175.332Z" fill="url(#paint5_linear_270_72434)"/>
<path d="M500.654 182.128L479.111 174.809C475.19 173.471 470.946 175.578 469.608 179.483C468.27 183.404 470.377 187.648 474.282 188.986L495.825 196.305C499.746 197.643 503.99 195.536 505.328 191.631C506.666 187.709 504.559 183.466 500.654 182.128Z" fill="white"/>
<path d="M500.838 191.939L472.991 182.468C471.546 181.975 470.347 181.083 469.485 179.961C468.471 183.744 470.546 187.71 474.298 188.987L495.841 196.306C499.593 197.582 503.668 195.691 505.16 192.078C503.775 192.447 502.284 192.431 500.838 191.939Z" fill="url(#paint6_linear_270_72434)"/>
<path d="M443.452 191.416L421.909 184.096C417.988 182.759 413.744 184.865 412.407 188.77C411.068 192.692 413.175 196.936 417.081 198.273L438.624 205.592C442.545 206.93 446.789 204.824 448.127 200.917C449.464 196.997 447.373 192.738 443.452 191.416Z" fill="white"/>
<path d="M443.653 201.21L415.806 191.754C414.36 191.262 413.16 190.37 412.299 189.248C411.285 193.03 413.36 196.998 417.112 198.274L438.656 205.593C442.407 206.869 446.482 204.978 447.973 201.364C446.59 201.733 445.098 201.703 443.653 201.21Z" fill="url(#paint7_linear_270_72434)"/>
<path d="M491.764 208.006L470.222 200.687C466.3 199.349 462.056 201.456 460.719 205.361C459.381 209.283 461.488 213.527 465.393 214.864L486.937 222.184C490.857 223.521 495.101 221.414 496.44 217.509C497.762 213.588 495.67 209.344 491.764 208.006Z" fill="white"/>
<path d="M491.95 217.817L464.102 208.345C462.657 207.853 461.457 206.962 460.596 205.839C459.582 209.621 461.657 213.589 465.409 214.865L486.952 222.184C490.704 223.46 494.779 221.569 496.27 217.955C494.887 218.324 493.395 218.309 491.95 217.817Z" fill="url(#paint8_linear_270_72434)"/>
<path d="M434.564 217.279L413.021 209.959C409.1 208.622 404.856 210.728 403.518 214.633C402.18 218.555 404.287 222.799 408.192 224.136L429.735 231.456C433.656 232.793 437.9 230.687 439.238 226.781C440.576 222.875 438.485 218.616 434.564 217.279Z" fill="white"/>
<path d="M434.748 227.089L406.901 217.618C405.455 217.126 404.256 216.234 403.395 215.112C402.38 218.894 404.456 222.861 408.208 224.137L429.751 231.457C433.502 232.733 437.578 230.841 439.069 227.228C437.685 227.597 436.193 227.582 434.748 227.089Z" fill="url(#paint9_linear_270_72434)"/>
<path d="M482.863 233.885L461.32 226.566C457.399 225.228 453.155 227.334 451.817 231.24C450.479 235.161 452.586 239.405 456.491 240.742L478.034 248.062C481.955 249.399 486.199 247.293 487.537 243.387C488.875 239.466 486.783 235.207 482.863 233.885Z" fill="white"/>
<path d="M483.063 243.679L455.216 234.207C453.771 233.715 452.571 232.824 451.71 231.701C450.695 235.483 452.771 239.451 456.523 240.727L478.065 248.046C481.817 249.322 485.892 247.431 487.384 243.817C486 244.202 484.509 244.171 483.063 243.679Z" fill="url(#paint10_linear_270_72434)"/>
<path d="M425.676 243.157L404.134 235.838C400.213 234.5 395.969 236.607 394.631 240.513C393.294 244.433 395.4 248.677 399.306 250.014L420.849 257.334C424.769 258.672 429.013 256.565 430.351 252.66C431.689 248.738 429.598 244.494 425.676 243.157Z" fill="white"/>
<path d="M425.86 252.968L398.013 243.496C396.567 243.004 395.367 242.112 394.506 240.99C393.492 244.773 395.567 248.739 399.32 250.015L420.863 257.335C424.614 258.611 428.689 256.72 430.18 253.106C428.797 253.476 427.305 253.459 425.86 252.968Z" fill="url(#paint11_linear_270_72434)"/>
<path d="M473.975 259.763L452.433 252.444C448.512 251.106 444.267 253.213 442.93 257.119C441.592 261.039 443.699 265.283 447.604 266.621L469.148 273.94C473.068 275.278 477.312 273.171 478.651 269.266C479.988 265.344 477.897 261.085 473.975 259.763Z" fill="white"/>
<path d="M474.16 269.559L446.313 260.103C444.868 259.61 443.668 258.718 442.807 257.596C441.793 261.379 443.868 265.345 447.62 266.622L469.163 273.941C472.915 275.217 476.989 273.326 478.481 269.713C477.098 270.082 475.606 270.051 474.16 269.559Z" fill="url(#paint12_linear_270_72434)"/>
<path d="M416.788 269.033L395.245 261.715C391.324 260.377 387.08 262.484 385.742 266.389C384.405 270.311 386.512 274.554 390.417 275.892L411.96 283.211C415.881 284.549 420.125 282.442 421.462 278.536C422.801 274.616 420.694 270.372 416.788 269.033Z" fill="white"/>
<path d="M416.973 278.845L389.126 269.373C387.681 268.881 386.481 267.989 385.62 266.866C384.605 270.649 386.681 274.617 390.433 275.893L411.975 283.211C415.728 284.488 419.802 282.596 421.294 278.983C419.91 279.352 418.419 279.337 416.973 278.845Z" fill="url(#paint13_linear_270_72434)"/>
<path d="M465.088 285.625L443.546 278.306C439.625 276.968 435.381 279.075 434.043 282.98C432.706 286.901 434.812 291.145 438.718 292.483L460.261 299.802C464.181 301.14 468.425 299.033 469.763 295.128C471.101 291.222 468.995 286.963 465.088 285.625Z" fill="white"/>
<path d="M465.272 295.436L437.425 285.979C435.979 285.487 434.78 284.596 433.919 283.473C432.904 287.255 434.98 291.223 438.732 292.499L460.274 299.818C464.026 301.094 468.101 299.203 469.593 295.59C468.209 295.943 466.718 295.928 465.272 295.436Z" fill="url(#paint14_linear_270_72434)"/>
<path d="M407.886 294.912L386.343 287.593C382.422 286.256 378.178 288.362 376.84 292.267C375.503 296.188 377.609 300.432 381.515 301.77L403.058 309.089C406.978 310.427 411.222 308.321 412.561 304.414C413.898 300.494 411.807 296.235 407.886 294.912Z" fill="white"/>
<path d="M408.087 304.707L380.24 295.25C378.794 294.759 377.594 293.867 376.733 292.745C375.718 296.527 377.794 300.494 381.546 301.77L403.089 309.09C406.841 310.366 410.916 308.475 412.407 304.861C411.024 305.23 409.532 305.199 408.087 304.707Z" fill="url(#paint15_linear_270_72434)"/>
<path d="M456.198 311.503L434.656 304.184C430.734 302.846 426.49 304.952 425.153 308.858C423.815 312.779 425.922 317.023 429.827 318.361L451.369 325.68C455.291 327.017 459.535 324.911 460.872 321.005C462.195 317.085 460.104 312.841 456.198 311.503Z" fill="white"/>
<path d="M456.383 321.313L428.536 311.842C427.091 311.35 425.891 310.458 425.03 309.336C424.015 313.118 426.091 317.085 429.843 318.362L451.386 325.681C455.138 326.957 459.212 325.065 460.704 321.452C459.321 321.821 457.829 321.806 456.383 321.313Z" fill="url(#paint16_linear_270_72434)"/>
<path d="M476.774 376.007C476.774 381.589 472.239 386.125 466.656 386.125C461.075 386.125 456.539 381.589 456.539 376.007C456.539 370.426 461.075 365.89 466.656 365.89C472.239 365.89 476.774 370.41 476.774 376.007Z" fill="#46B3B2" fill-opacity="0.9"/>
<path d="M85.6206 342.271C85.6206 347.853 81.0844 352.388 75.5027 352.388C69.9209 352.388 65.3848 347.853 65.3848 342.271C65.3848 336.689 69.9209 332.154 75.5027 332.154C81.0844 332.154 85.6206 336.674 85.6206 342.271Z" fill="#46B3B2" fill-opacity="0.9"/>
<path d="M491.751 397.272C491.751 400.225 489.352 402.623 486.4 402.623C483.447 402.623 481.049 400.225 481.049 397.272C481.049 394.32 483.447 391.921 486.4 391.921C489.352 391.906 491.751 394.32 491.751 397.272Z" fill="#46B3B2" fill-opacity="0.9"/>
<path d="M59.0968 324.649C59.0968 327.602 56.6979 330 53.7456 330C50.7933 330 48.3945 327.602 48.3945 324.649C48.3945 321.697 50.7933 319.299 53.7456 319.299C56.6979 319.299 59.0968 321.697 59.0968 324.649Z" fill="#46B3B2" fill-opacity="0.9"/>
<defs>
<linearGradient id="paint0_linear_270_72434" x1="208.72" y1="327.537" x2="50.1327" y2="260.674" gradientUnits="userSpaceOnUse">
<stop offset="0.00195313" stop-color="white" stop-opacity="0"/>
<stop offset="1" stop-color="#235196"/>
</linearGradient>
<linearGradient id="paint1_linear_270_72434" x1="57.7509" y1="202.39" x2="156.107" y2="291.907" gradientUnits="userSpaceOnUse">
<stop offset="0.00195313" stop-color="white" stop-opacity="0"/>
<stop offset="1" stop-color="#235196"/>
</linearGradient>
<linearGradient id="paint2_linear_270_72434" x1="398.904" y1="239.718" x2="8.33524" y2="204.939" gradientUnits="userSpaceOnUse">
<stop offset="0.00195313" stop-color="white" stop-opacity="0"/>
<stop offset="1" stop-color="#235196"/>
</linearGradient>
<linearGradient id="paint3_linear_270_72434" x1="263.899" y1="357.879" x2="276.228" y2="427.913" gradientUnits="userSpaceOnUse">
<stop offset="0.00195313" stop-color="white" stop-opacity="0"/>
<stop offset="1" stop-color="#235196"/>
</linearGradient>
<linearGradient id="paint4_linear_270_72434" x1="302.37" y1="338.991" x2="354.227" y2="387.658" gradientUnits="userSpaceOnUse">
<stop offset="0.00195313" stop-color="white" stop-opacity="0"/>
<stop offset="1" stop-color="#235196"/>
</linearGradient>
<linearGradient id="paint5_linear_270_72434" x1="434.028" y1="148.464" x2="443.671" y2="192.832" gradientUnits="userSpaceOnUse">
<stop offset="0.00195313" stop-color="white" stop-opacity="0"/>
<stop offset="1" stop-color="#235196"/>
</linearGradient>
<linearGradient id="paint6_linear_270_72434" x1="482.329" y1="165.061" x2="491.972" y2="209.429" gradientUnits="userSpaceOnUse">
<stop offset="0.00195313" stop-color="white" stop-opacity="0"/>
<stop offset="1" stop-color="#235196"/>
</linearGradient>
<linearGradient id="paint7_linear_270_72434" x1="425.137" y1="174.338" x2="434.78" y2="218.707" gradientUnits="userSpaceOnUse">
<stop offset="0.00195313" stop-color="white" stop-opacity="0"/>
<stop offset="1" stop-color="#235196"/>
</linearGradient>
<linearGradient id="paint8_linear_270_72434" x1="473.436" y1="190.936" x2="483.08" y2="235.304" gradientUnits="userSpaceOnUse">
<stop offset="0.00195313" stop-color="white" stop-opacity="0"/>
<stop offset="1" stop-color="#235196"/>
</linearGradient>
<linearGradient id="paint9_linear_270_72434" x1="416.243" y1="200.215" x2="425.887" y2="244.583" gradientUnits="userSpaceOnUse">
<stop offset="0.00195313" stop-color="white" stop-opacity="0"/>
<stop offset="1" stop-color="#235196"/>
</linearGradient>
<linearGradient id="paint10_linear_270_72434" x1="464.546" y1="216.809" x2="474.189" y2="261.178" gradientUnits="userSpaceOnUse">
<stop offset="0.00195313" stop-color="white" stop-opacity="0"/>
<stop offset="1" stop-color="#235196"/>
</linearGradient>
<linearGradient id="paint11_linear_270_72434" x1="407.352" y1="226.09" x2="416.996" y2="270.457" gradientUnits="userSpaceOnUse">
<stop offset="0.00195313" stop-color="white" stop-opacity="0"/>
<stop offset="1" stop-color="#235196"/>
</linearGradient>
<linearGradient id="paint12_linear_270_72434" x1="455.655" y1="242.686" x2="465.299" y2="287.055" gradientUnits="userSpaceOnUse">
<stop offset="0.00195313" stop-color="white" stop-opacity="0"/>
<stop offset="1" stop-color="#235196"/>
</linearGradient>
<linearGradient id="paint13_linear_270_72434" x1="398.462" y1="251.963" x2="408.105" y2="296.331" gradientUnits="userSpaceOnUse">
<stop offset="0.00195313" stop-color="white" stop-opacity="0"/>
<stop offset="1" stop-color="#235196"/>
</linearGradient>
<linearGradient id="paint14_linear_270_72434" x1="446.763" y1="268.56" x2="456.406" y2="312.928" gradientUnits="userSpaceOnUse">
<stop offset="0.00195313" stop-color="white" stop-opacity="0"/>
<stop offset="1" stop-color="#235196"/>
</linearGradient>
<linearGradient id="paint15_linear_270_72434" x1="389.571" y1="277.838" x2="399.214" y2="322.206" gradientUnits="userSpaceOnUse">
<stop offset="0.00195313" stop-color="white" stop-opacity="0"/>
<stop offset="1" stop-color="#235196"/>
</linearGradient>
<linearGradient id="paint16_linear_270_72434" x1="437.87" y1="294.435" x2="447.514" y2="338.803" gradientUnits="userSpaceOnUse">
<stop offset="0.00195313" stop-color="white" stop-opacity="0"/>
<stop offset="1" stop-color="#235196"/>
</linearGradient>
</defs>
</svg>
