<svg width="334" height="62" viewBox="0 0 334 62" fill="none" xmlns="http://www.w3.org/2000/svg">
<path d="M132.083 31.6604C132.716 31.6604 133.23 31.3669 133.23 31.0049C133.23 30.6429 132.716 30.3494 132.083 30.3494C131.449 30.3494 130.936 30.6429 130.936 31.0049C130.936 31.3669 131.449 31.6604 132.083 31.6604Z" fill="#A2E6E6"/>
<path d="M132.083 24.1224C132.716 24.1224 133.23 23.8289 133.23 23.4669C133.23 23.1049 132.716 22.8115 132.083 22.8115C131.449 22.8115 130.936 23.1049 130.936 23.4669C130.936 23.8289 131.449 24.1224 132.083 24.1224Z" fill="#A2E6E6"/>
<path d="M132.083 16.5844C132.716 16.5844 133.23 16.291 133.23 15.929C133.23 15.567 132.716 15.2735 132.083 15.2735C131.449 15.2735 130.936 15.567 130.936 15.929C130.936 16.291 131.449 16.5844 132.083 16.5844Z" fill="#A2E6E6"/>
<path d="M132.083 9.04643C132.716 9.04643 133.23 8.75296 133.23 8.39095C133.23 8.02894 132.716 7.73547 132.083 7.73547C131.449 7.73547 130.936 8.02894 130.936 8.39095C130.936 8.75296 131.449 9.04643 132.083 9.04643Z" fill="#A2E6E6"/>
<path d="M132.083 1.50846C132.716 1.50846 133.23 1.215 133.23 0.852987C133.23 0.490977 132.716 0.19751 132.083 0.19751C131.449 0.19751 130.936 0.490977 130.936 0.852987C130.936 1.215 131.449 1.50846 132.083 1.50846Z" fill="#A2E6E6"/>
<path d="M146.423 31.6604C147.056 31.6604 147.57 31.3669 147.57 31.0049C147.57 30.6429 147.056 30.3494 146.423 30.3494C145.789 30.3494 145.275 30.6429 145.275 31.0049C145.275 31.3669 145.789 31.6604 146.423 31.6604Z" fill="#A2E6E6"/>
<path d="M146.423 24.1224C147.056 24.1224 147.57 23.8289 147.57 23.4669C147.57 23.1049 147.056 22.8115 146.423 22.8115C145.789 22.8115 145.275 23.1049 145.275 23.4669C145.275 23.8289 145.789 24.1224 146.423 24.1224Z" fill="#A2E6E6"/>
<path d="M146.423 16.5844C147.056 16.5844 147.57 16.291 147.57 15.929C147.57 15.567 147.056 15.2735 146.423 15.2735C145.789 15.2735 145.275 15.567 145.275 15.929C145.275 16.291 145.789 16.5844 146.423 16.5844Z" fill="#A2E6E6"/>
<path d="M146.423 9.04643C147.056 9.04643 147.57 8.75296 147.57 8.39095C147.57 8.02894 147.056 7.73547 146.423 7.73547C145.789 7.73547 145.275 8.02894 145.275 8.39095C145.275 8.75296 145.789 9.04643 146.423 9.04643Z" fill="#A2E6E6"/>
<path d="M146.423 1.50846C147.056 1.50846 147.57 1.215 147.57 0.852987C147.57 0.490977 147.056 0.19751 146.423 0.19751C145.789 0.19751 145.275 0.490977 145.275 0.852987C145.275 1.215 145.789 1.50846 146.423 1.50846Z" fill="#A2E6E6"/>
<path d="M160.764 31.6604C161.398 31.6604 161.912 31.3669 161.912 31.0049C161.912 30.6429 161.398 30.3494 160.764 30.3494C160.131 30.3494 159.617 30.6429 159.617 31.0049C159.617 31.3669 160.131 31.6604 160.764 31.6604Z" fill="#A2E6E6"/>
<path d="M160.764 24.1224C161.398 24.1224 161.912 23.8289 161.912 23.4669C161.912 23.1049 161.398 22.8115 160.764 22.8115C160.131 22.8115 159.617 23.1049 159.617 23.4669C159.617 23.8289 160.131 24.1224 160.764 24.1224Z" fill="#A2E6E6"/>
<path d="M160.764 16.5844C161.398 16.5844 161.912 16.291 161.912 15.929C161.912 15.567 161.398 15.2735 160.764 15.2735C160.131 15.2735 159.617 15.567 159.617 15.929C159.617 16.291 160.131 16.5844 160.764 16.5844Z" fill="#A2E6E6"/>
<path d="M160.764 9.04643C161.398 9.04643 161.912 8.75296 161.912 8.39095C161.912 8.02894 161.398 7.73547 160.764 7.73547C160.131 7.73547 159.617 8.02894 159.617 8.39095C159.617 8.75296 160.131 9.04643 160.764 9.04643Z" fill="#A2E6E6"/>
<path d="M160.764 1.50846C161.398 1.50846 161.912 1.215 161.912 0.852987C161.912 0.490977 161.398 0.19751 160.764 0.19751C160.131 0.19751 159.617 0.490977 159.617 0.852987C159.617 1.215 160.131 1.50846 160.764 1.50846Z" fill="#A2E6E6"/>
<path d="M175.104 31.6604C175.738 31.6604 176.252 31.3669 176.252 31.0049C176.252 30.6429 175.738 30.3494 175.104 30.3494C174.471 30.3494 173.957 30.6429 173.957 31.0049C173.957 31.3669 174.471 31.6604 175.104 31.6604Z" fill="#A2E6E6"/>
<path d="M175.104 24.1224C175.738 24.1224 176.252 23.8289 176.252 23.4669C176.252 23.1049 175.738 22.8115 175.104 22.8115C174.471 22.8115 173.957 23.1049 173.957 23.4669C173.957 23.8289 174.471 24.1224 175.104 24.1224Z" fill="#A2E6E6"/>
<path d="M175.104 16.5844C175.738 16.5844 176.252 16.291 176.252 15.929C176.252 15.567 175.738 15.2735 175.104 15.2735C174.471 15.2735 173.957 15.567 173.957 15.929C173.957 16.291 174.471 16.5844 175.104 16.5844Z" fill="#A2E6E6"/>
<path d="M175.104 9.04643C175.738 9.04643 176.252 8.75296 176.252 8.39095C176.252 8.02894 175.738 7.73547 175.104 7.73547C174.471 7.73547 173.957 8.02894 173.957 8.39095C173.957 8.75296 174.471 9.04643 175.104 9.04643Z" fill="#A2E6E6"/>
<path d="M175.104 1.50846C175.738 1.50846 176.252 1.215 176.252 0.852987C176.252 0.490977 175.738 0.19751 175.104 0.19751C174.471 0.19751 173.957 0.490977 173.957 0.852987C173.957 1.215 174.471 1.50846 175.104 1.50846Z" fill="#A2E6E6"/>
<path d="M189.446 31.6604C190.08 31.6604 190.593 31.3669 190.593 31.0049C190.593 30.6429 190.08 30.3494 189.446 30.3494C188.812 30.3494 188.299 30.6429 188.299 31.0049C188.299 31.3669 188.812 31.6604 189.446 31.6604Z" fill="#A2E6E6"/>
<path d="M189.446 24.1224C190.08 24.1224 190.593 23.8289 190.593 23.4669C190.593 23.1049 190.08 22.8115 189.446 22.8115C188.812 22.8115 188.299 23.1049 188.299 23.4669C188.299 23.8289 188.812 24.1224 189.446 24.1224Z" fill="#A2E6E6"/>
<path d="M189.446 16.5844C190.08 16.5844 190.593 16.291 190.593 15.929C190.593 15.567 190.08 15.2735 189.446 15.2735C188.812 15.2735 188.299 15.567 188.299 15.929C188.299 16.291 188.812 16.5844 189.446 16.5844Z" fill="#A2E6E6"/>
<path d="M189.446 9.04643C190.08 9.04643 190.593 8.75296 190.593 8.39095C190.593 8.02894 190.08 7.73547 189.446 7.73547C188.812 7.73547 188.299 8.02894 188.299 8.39095C188.299 8.75296 188.812 9.04643 189.446 9.04643Z" fill="#A2E6E6"/>
<path d="M189.446 1.50846C190.08 1.50846 190.593 1.215 190.593 0.852987C190.593 0.490977 190.08 0.19751 189.446 0.19751C188.812 0.19751 188.299 0.490977 188.299 0.852987C188.299 1.215 188.812 1.50846 189.446 1.50846Z" fill="#A2E6E6"/>
<path d="M203.786 31.6604C204.42 31.6604 204.933 31.3669 204.933 31.0049C204.933 30.6429 204.42 30.3494 203.786 30.3494C203.152 30.3494 202.639 30.6429 202.639 31.0049C202.639 31.3669 203.152 31.6604 203.786 31.6604Z" fill="#A2E6E6"/>
<path d="M203.786 24.1224C204.42 24.1224 204.933 23.8289 204.933 23.4669C204.933 23.1049 204.42 22.8115 203.786 22.8115C203.152 22.8115 202.639 23.1049 202.639 23.4669C202.639 23.8289 203.152 24.1224 203.786 24.1224Z" fill="#A2E6E6"/>
<path d="M203.786 16.5844C204.42 16.5844 204.933 16.291 204.933 15.929C204.933 15.567 204.42 15.2735 203.786 15.2735C203.152 15.2735 202.639 15.567 202.639 15.929C202.639 16.291 203.152 16.5844 203.786 16.5844Z" fill="#A2E6E6"/>
<path d="M203.786 9.04643C204.42 9.04643 204.933 8.75296 204.933 8.39095C204.933 8.02894 204.42 7.73547 203.786 7.73547C203.152 7.73547 202.639 8.02894 202.639 8.39095C202.639 8.75296 203.152 9.04643 203.786 9.04643Z" fill="#A2E6E6"/>
<path d="M203.786 1.50846C204.42 1.50846 204.933 1.215 204.933 0.852987C204.933 0.490977 204.42 0.19751 203.786 0.19751C203.152 0.19751 202.639 0.490977 202.639 0.852987C202.639 1.215 203.152 1.50846 203.786 1.50846Z" fill="#A2E6E6"/>
<path d="M218.128 31.6604C218.761 31.6604 219.275 31.3669 219.275 31.0049C219.275 30.6429 218.761 30.3494 218.128 30.3494C217.494 30.3494 216.98 30.6429 216.98 31.0049C216.98 31.3669 217.494 31.6604 218.128 31.6604Z" fill="#A2E6E6"/>
<path d="M218.128 24.1224C218.761 24.1224 219.275 23.8289 219.275 23.4669C219.275 23.1049 218.761 22.8115 218.128 22.8115C217.494 22.8115 216.98 23.1049 216.98 23.4669C216.98 23.8289 217.494 24.1224 218.128 24.1224Z" fill="#A2E6E6"/>
<path d="M218.128 16.5844C218.761 16.5844 219.275 16.291 219.275 15.929C219.275 15.567 218.761 15.2735 218.128 15.2735C217.494 15.2735 216.98 15.567 216.98 15.929C216.98 16.291 217.494 16.5844 218.128 16.5844Z" fill="#A2E6E6"/>
<path d="M218.128 9.04643C218.761 9.04643 219.275 8.75296 219.275 8.39095C219.275 8.02894 218.761 7.73547 218.128 7.73547C217.494 7.73547 216.98 8.02894 216.98 8.39095C216.98 8.75296 217.494 9.04643 218.128 9.04643Z" fill="#A2E6E6"/>
<path d="M218.128 1.50846C218.761 1.50846 219.275 1.215 219.275 0.852987C219.275 0.490977 218.761 0.19751 218.128 0.19751C217.494 0.19751 216.98 0.490977 216.98 0.852987C216.98 1.215 217.494 1.50846 218.128 1.50846Z" fill="#A2E6E6"/>
<path d="M232.468 31.6604C233.101 31.6604 233.615 31.3669 233.615 31.0049C233.615 30.6429 233.101 30.3494 232.468 30.3494C231.834 30.3494 231.32 30.6429 231.32 31.0049C231.32 31.3669 231.834 31.6604 232.468 31.6604Z" fill="#A2E6E6"/>
<path d="M232.468 24.1224C233.101 24.1224 233.615 23.8289 233.615 23.4669C233.615 23.1049 233.101 22.8115 232.468 22.8115C231.834 22.8115 231.32 23.1049 231.32 23.4669C231.32 23.8289 231.834 24.1224 232.468 24.1224Z" fill="#A2E6E6"/>
<path d="M232.468 16.5844C233.101 16.5844 233.615 16.291 233.615 15.929C233.615 15.567 233.101 15.2735 232.468 15.2735C231.834 15.2735 231.32 15.567 231.32 15.929C231.32 16.291 231.834 16.5844 232.468 16.5844Z" fill="#A2E6E6"/>
<path d="M232.468 9.04643C233.101 9.04643 233.615 8.75296 233.615 8.39095C233.615 8.02894 233.101 7.73547 232.468 7.73547C231.834 7.73547 231.32 8.02894 231.32 8.39095C231.32 8.75296 231.834 9.04643 232.468 9.04643Z" fill="#A2E6E6"/>
<path d="M232.468 1.50846C233.101 1.50846 233.615 1.215 233.615 0.852987C233.615 0.490977 233.101 0.19751 232.468 0.19751C231.834 0.19751 231.32 0.490977 231.32 0.852987C231.32 1.215 231.834 1.50846 232.468 1.50846Z" fill="#A2E6E6"/>
<path d="M246.809 31.6604C247.443 31.6604 247.957 31.3669 247.957 31.0049C247.957 30.6429 247.443 30.3494 246.809 30.3494C246.176 30.3494 245.662 30.6429 245.662 31.0049C245.662 31.3669 246.176 31.6604 246.809 31.6604Z" fill="#A2E6E6"/>
<path d="M246.809 24.1224C247.443 24.1224 247.957 23.8289 247.957 23.4669C247.957 23.1049 247.443 22.8115 246.809 22.8115C246.176 22.8115 245.662 23.1049 245.662 23.4669C245.662 23.8289 246.176 24.1224 246.809 24.1224Z" fill="#A2E6E6"/>
<path d="M246.809 16.5844C247.443 16.5844 247.957 16.291 247.957 15.929C247.957 15.567 247.443 15.2735 246.809 15.2735C246.176 15.2735 245.662 15.567 245.662 15.929C245.662 16.291 246.176 16.5844 246.809 16.5844Z" fill="#A2E6E6"/>
<path d="M246.809 9.04643C247.443 9.04643 247.957 8.75296 247.957 8.39095C247.957 8.02894 247.443 7.73547 246.809 7.73547C246.176 7.73547 245.662 8.02894 245.662 8.39095C245.662 8.75296 246.176 9.04643 246.809 9.04643Z" fill="#A2E6E6"/>
<path d="M246.809 1.50846C247.443 1.50846 247.957 1.215 247.957 0.852987C247.957 0.490977 247.443 0.19751 246.809 0.19751C246.176 0.19751 245.662 0.490977 245.662 0.852987C245.662 1.215 246.176 1.50846 246.809 1.50846Z" fill="#A2E6E6"/>
<path d="M261.149 31.6604C261.783 31.6604 262.296 31.3669 262.296 31.0049C262.296 30.6429 261.783 30.3494 261.149 30.3494C260.516 30.3494 260.002 30.6429 260.002 31.0049C260.002 31.3669 260.516 31.6604 261.149 31.6604Z" fill="#A2E6E6"/>
<path d="M261.149 24.1224C261.783 24.1224 262.296 23.8289 262.296 23.4669C262.296 23.1049 261.783 22.8115 261.149 22.8115C260.516 22.8115 260.002 23.1049 260.002 23.4669C260.002 23.8289 260.516 24.1224 261.149 24.1224Z" fill="#A2E6E6"/>
<path d="M261.149 16.5844C261.783 16.5844 262.296 16.291 262.296 15.929C262.296 15.567 261.783 15.2735 261.149 15.2735C260.516 15.2735 260.002 15.567 260.002 15.929C260.002 16.291 260.516 16.5844 261.149 16.5844Z" fill="#A2E6E6"/>
<path d="M261.149 9.04643C261.783 9.04643 262.296 8.75296 262.296 8.39095C262.296 8.02894 261.783 7.73547 261.149 7.73547C260.516 7.73547 260.002 8.02894 260.002 8.39095C260.002 8.75296 260.516 9.04643 261.149 9.04643Z" fill="#A2E6E6"/>
<path d="M261.149 1.50846C261.783 1.50846 262.296 1.215 262.296 0.852987C262.296 0.490977 261.783 0.19751 261.149 0.19751C260.516 0.19751 260.002 0.490977 260.002 0.852987C260.002 1.215 260.516 1.50846 261.149 1.50846Z" fill="#A2E6E6"/>
<path d="M275.491 31.6604C276.125 31.6604 276.638 31.3669 276.638 31.0049C276.638 30.6429 276.125 30.3494 275.491 30.3494C274.857 30.3494 274.344 30.6429 274.344 31.0049C274.344 31.3669 274.857 31.6604 275.491 31.6604Z" fill="#A2E6E6"/>
<path d="M275.491 24.1224C276.125 24.1224 276.638 23.8289 276.638 23.4669C276.638 23.1049 276.125 22.8115 275.491 22.8115C274.857 22.8115 274.344 23.1049 274.344 23.4669C274.344 23.8289 274.857 24.1224 275.491 24.1224Z" fill="#A2E6E6"/>
<path d="M275.491 16.5844C276.125 16.5844 276.638 16.291 276.638 15.929C276.638 15.567 276.125 15.2735 275.491 15.2735C274.857 15.2735 274.344 15.567 274.344 15.929C274.344 16.291 274.857 16.5844 275.491 16.5844Z" fill="#A2E6E6"/>
<path d="M275.491 9.04643C276.125 9.04643 276.638 8.75296 276.638 8.39095C276.638 8.02894 276.125 7.73547 275.491 7.73547C274.857 7.73547 274.344 8.02894 274.344 8.39095C274.344 8.75296 274.857 9.04643 275.491 9.04643Z" fill="#A2E6E6"/>
<path d="M275.491 1.50846C276.125 1.50846 276.638 1.215 276.638 0.852987C276.638 0.490977 276.125 0.19751 275.491 0.19751C274.857 0.19751 274.344 0.490977 274.344 0.852987C274.344 1.215 274.857 1.50846 275.491 1.50846Z" fill="#A2E6E6"/>
<path d="M289.831 31.6604C290.464 31.6604 290.978 31.3669 290.978 31.0049C290.978 30.6429 290.464 30.3494 289.831 30.3494C289.197 30.3494 288.684 30.6429 288.684 31.0049C288.684 31.3669 289.197 31.6604 289.831 31.6604Z" fill="#A2E6E6"/>
<path d="M289.831 24.1224C290.464 24.1224 290.978 23.8289 290.978 23.4669C290.978 23.1049 290.464 22.8115 289.831 22.8115C289.197 22.8115 288.684 23.1049 288.684 23.4669C288.684 23.8289 289.197 24.1224 289.831 24.1224Z" fill="#A2E6E6"/>
<path d="M289.831 16.5844C290.464 16.5844 290.978 16.291 290.978 15.929C290.978 15.567 290.464 15.2735 289.831 15.2735C289.197 15.2735 288.684 15.567 288.684 15.929C288.684 16.291 289.197 16.5844 289.831 16.5844Z" fill="#A2E6E6"/>
<path d="M289.831 9.04643C290.464 9.04643 290.978 8.75296 290.978 8.39095C290.978 8.02894 290.464 7.73547 289.831 7.73547C289.197 7.73547 288.684 8.02894 288.684 8.39095C288.684 8.75296 289.197 9.04643 289.831 9.04643Z" fill="#A2E6E6"/>
<path d="M289.831 1.50846C290.464 1.50846 290.978 1.215 290.978 0.852987C290.978 0.490977 290.464 0.19751 289.831 0.19751C289.197 0.19751 288.684 0.490977 288.684 0.852987C288.684 1.215 289.197 1.50846 289.831 1.50846Z" fill="#A2E6E6"/>
<path d="M304.173 31.6604C304.806 31.6604 305.32 31.3669 305.32 31.0049C305.32 30.6429 304.806 30.3494 304.173 30.3494C303.539 30.3494 303.025 30.6429 303.025 31.0049C303.025 31.3669 303.539 31.6604 304.173 31.6604Z" fill="#A2E6E6"/>
<path d="M304.173 24.1224C304.806 24.1224 305.32 23.8289 305.32 23.4669C305.32 23.1049 304.806 22.8115 304.173 22.8115C303.539 22.8115 303.025 23.1049 303.025 23.4669C303.025 23.8289 303.539 24.1224 304.173 24.1224Z" fill="#A2E6E6"/>
<path d="M304.173 16.5844C304.806 16.5844 305.32 16.291 305.32 15.929C305.32 15.567 304.806 15.2735 304.173 15.2735C303.539 15.2735 303.025 15.567 303.025 15.929C303.025 16.291 303.539 16.5844 304.173 16.5844Z" fill="#A2E6E6"/>
<path d="M304.173 9.04643C304.806 9.04643 305.32 8.75296 305.32 8.39095C305.32 8.02894 304.806 7.73547 304.173 7.73547C303.539 7.73547 303.025 8.02894 303.025 8.39095C303.025 8.75296 303.539 9.04643 304.173 9.04643Z" fill="#A2E6E6"/>
<path d="M304.173 1.50846C304.806 1.50846 305.32 1.215 305.32 0.852987C305.32 0.490977 304.806 0.19751 304.173 0.19751C303.539 0.19751 303.025 0.490977 303.025 0.852987C303.025 1.215 303.539 1.50846 304.173 1.50846Z" fill="#A2E6E6"/>
<path d="M318.512 31.6604C319.146 31.6604 319.66 31.3669 319.66 31.0049C319.66 30.6429 319.146 30.3494 318.512 30.3494C317.879 30.3494 317.365 30.6429 317.365 31.0049C317.365 31.3669 317.879 31.6604 318.512 31.6604Z" fill="#A2E6E6"/>
<path d="M318.512 24.1224C319.146 24.1224 319.66 23.8289 319.66 23.4669C319.66 23.1049 319.146 22.8115 318.512 22.8115C317.879 22.8115 317.365 23.1049 317.365 23.4669C317.365 23.8289 317.879 24.1224 318.512 24.1224Z" fill="#A2E6E6"/>
<path d="M318.512 16.5844C319.146 16.5844 319.66 16.291 319.66 15.929C319.66 15.567 319.146 15.2735 318.512 15.2735C317.879 15.2735 317.365 15.567 317.365 15.929C317.365 16.291 317.879 16.5844 318.512 16.5844Z" fill="#A2E6E6"/>
<path d="M318.512 9.04643C319.146 9.04643 319.66 8.75296 319.66 8.39095C319.66 8.02894 319.146 7.73547 318.512 7.73547C317.879 7.73547 317.365 8.02894 317.365 8.39095C317.365 8.75296 317.879 9.04643 318.512 9.04643Z" fill="#A2E6E6"/>
<path d="M318.512 1.50846C319.146 1.50846 319.66 1.215 319.66 0.852987C319.66 0.490977 319.146 0.19751 318.512 0.19751C317.879 0.19751 317.365 0.490977 317.365 0.852987C317.365 1.215 317.879 1.50846 318.512 1.50846Z" fill="#A2E6E6"/>
<path d="M332.854 31.6604C333.488 31.6604 334.002 31.3669 334.002 31.0049C334.002 30.6429 333.488 30.3494 332.854 30.3494C332.221 30.3494 331.707 30.6429 331.707 31.0049C331.707 31.3669 332.221 31.6604 332.854 31.6604Z" fill="#A2E6E6"/>
<path d="M332.854 24.1224C333.488 24.1224 334.002 23.8289 334.002 23.4669C334.002 23.1049 333.488 22.8115 332.854 22.8115C332.221 22.8115 331.707 23.1049 331.707 23.4669C331.707 23.8289 332.221 24.1224 332.854 24.1224Z" fill="#A2E6E6"/>
<path d="M332.854 16.5844C333.488 16.5844 334.002 16.291 334.002 15.929C334.002 15.567 333.488 15.2735 332.854 15.2735C332.221 15.2735 331.707 15.567 331.707 15.929C331.707 16.291 332.221 16.5844 332.854 16.5844Z" fill="#A2E6E6"/>
<path d="M332.854 9.04643C333.488 9.04643 334.002 8.75296 334.002 8.39095C334.002 8.02894 333.488 7.73547 332.854 7.73547C332.221 7.73547 331.707 8.02894 331.707 8.39095C331.707 8.75296 332.221 9.04643 332.854 9.04643Z" fill="#A2E6E6"/>
<path d="M332.854 1.50846C333.488 1.50846 334.002 1.215 334.002 0.852987C334.002 0.490977 333.488 0.19751 332.854 0.19751C332.221 0.19751 331.707 0.490977 331.707 0.852987C331.707 1.215 332.221 1.50846 332.854 1.50846Z" fill="#A2E6E6"/>
<path d="M131.755 61.625C132.388 61.625 132.902 61.3316 132.902 60.9696C132.902 60.6076 132.388 60.3141 131.755 60.3141C131.121 60.3141 130.607 60.6076 130.607 60.9696C130.607 61.3316 131.121 61.625 131.755 61.625Z" fill="#A2E6E6"/>
<path d="M131.755 54.0871C132.388 54.0871 132.902 53.7936 132.902 53.4316C132.902 53.0696 132.388 52.7761 131.755 52.7761C131.121 52.7761 130.607 53.0696 130.607 53.4316C130.607 53.7936 131.121 54.0871 131.755 54.0871Z" fill="#A2E6E6"/>
<path d="M131.755 46.5491C132.388 46.5491 132.902 46.2556 132.902 45.8936C132.902 45.5316 132.388 45.2381 131.755 45.2381C131.121 45.2381 130.607 45.5316 130.607 45.8936C130.607 46.2556 131.121 46.5491 131.755 46.5491Z" fill="#A2E6E6"/>
<path d="M131.755 39.0111C132.388 39.0111 132.902 38.7176 132.902 38.3556C132.902 37.9936 132.388 37.7001 131.755 37.7001C131.121 37.7001 130.607 37.9936 130.607 38.3556C130.607 38.7176 131.121 39.0111 131.755 39.0111Z" fill="#A2E6E6"/>
<path d="M131.755 31.4731C132.388 31.4731 132.902 31.1797 132.902 30.8176C132.902 30.4556 132.388 30.1622 131.755 30.1622C131.121 30.1622 130.607 30.4556 130.607 30.8176C130.607 31.1797 131.121 31.4731 131.755 31.4731Z" fill="#A2E6E6"/>
<path d="M146.095 61.625C146.728 61.625 147.242 61.3316 147.242 60.9696C147.242 60.6076 146.728 60.3141 146.095 60.3141C145.461 60.3141 144.947 60.6076 144.947 60.9696C144.947 61.3316 145.461 61.625 146.095 61.625Z" fill="#A2E6E6"/>
<path d="M146.095 54.0871C146.728 54.0871 147.242 53.7936 147.242 53.4316C147.242 53.0696 146.728 52.7761 146.095 52.7761C145.461 52.7761 144.947 53.0696 144.947 53.4316C144.947 53.7936 145.461 54.0871 146.095 54.0871Z" fill="#A2E6E6"/>
<path d="M146.095 46.5491C146.728 46.5491 147.242 46.2556 147.242 45.8936C147.242 45.5316 146.728 45.2381 146.095 45.2381C145.461 45.2381 144.947 45.5316 144.947 45.8936C144.947 46.2556 145.461 46.5491 146.095 46.5491Z" fill="#A2E6E6"/>
<path d="M146.095 39.0111C146.728 39.0111 147.242 38.7176 147.242 38.3556C147.242 37.9936 146.728 37.7001 146.095 37.7001C145.461 37.7001 144.947 37.9936 144.947 38.3556C144.947 38.7176 145.461 39.0111 146.095 39.0111Z" fill="#A2E6E6"/>
<path d="M146.095 31.4731C146.728 31.4731 147.242 31.1797 147.242 30.8176C147.242 30.4556 146.728 30.1622 146.095 30.1622C145.461 30.1622 144.947 30.4556 144.947 30.8176C144.947 31.1797 145.461 31.4731 146.095 31.4731Z" fill="#A2E6E6"/>
<path d="M160.436 61.625C161.07 61.625 161.584 61.3316 161.584 60.9696C161.584 60.6076 161.07 60.3141 160.436 60.3141C159.803 60.3141 159.289 60.6076 159.289 60.9696C159.289 61.3316 159.803 61.625 160.436 61.625Z" fill="#A2E6E6"/>
<path d="M160.436 54.0871C161.07 54.0871 161.584 53.7936 161.584 53.4316C161.584 53.0696 161.07 52.7761 160.436 52.7761C159.803 52.7761 159.289 53.0696 159.289 53.4316C159.289 53.7936 159.803 54.0871 160.436 54.0871Z" fill="#A2E6E6"/>
<path d="M160.436 46.5491C161.07 46.5491 161.584 46.2556 161.584 45.8936C161.584 45.5316 161.07 45.2381 160.436 45.2381C159.803 45.2381 159.289 45.5316 159.289 45.8936C159.289 46.2556 159.803 46.5491 160.436 46.5491Z" fill="#A2E6E6"/>
<path d="M160.436 39.0111C161.07 39.0111 161.584 38.7176 161.584 38.3556C161.584 37.9936 161.07 37.7001 160.436 37.7001C159.803 37.7001 159.289 37.9936 159.289 38.3556C159.289 38.7176 159.803 39.0111 160.436 39.0111Z" fill="#A2E6E6"/>
<path d="M160.436 31.4731C161.07 31.4731 161.584 31.1797 161.584 30.8176C161.584 30.4556 161.07 30.1622 160.436 30.1622C159.803 30.1622 159.289 30.4556 159.289 30.8176C159.289 31.1797 159.803 31.4731 160.436 31.4731Z" fill="#A2E6E6"/>
<path d="M174.776 61.625C175.41 61.625 175.923 61.3316 175.923 60.9696C175.923 60.6076 175.41 60.3141 174.776 60.3141C174.143 60.3141 173.629 60.6076 173.629 60.9696C173.629 61.3316 174.143 61.625 174.776 61.625Z" fill="#A2E6E6"/>
<path d="M174.776 54.0871C175.41 54.0871 175.923 53.7936 175.923 53.4316C175.923 53.0696 175.41 52.7761 174.776 52.7761C174.143 52.7761 173.629 53.0696 173.629 53.4316C173.629 53.7936 174.143 54.0871 174.776 54.0871Z" fill="#A2E6E6"/>
<path d="M174.776 46.5491C175.41 46.5491 175.923 46.2556 175.923 45.8936C175.923 45.5316 175.41 45.2381 174.776 45.2381C174.143 45.2381 173.629 45.5316 173.629 45.8936C173.629 46.2556 174.143 46.5491 174.776 46.5491Z" fill="#A2E6E6"/>
<path d="M174.776 39.0111C175.41 39.0111 175.923 38.7176 175.923 38.3556C175.923 37.9936 175.41 37.7001 174.776 37.7001C174.143 37.7001 173.629 37.9936 173.629 38.3556C173.629 38.7176 174.143 39.0111 174.776 39.0111Z" fill="#A2E6E6"/>
<path d="M174.776 31.4731C175.41 31.4731 175.923 31.1797 175.923 30.8176C175.923 30.4556 175.41 30.1622 174.776 30.1622C174.143 30.1622 173.629 30.4556 173.629 30.8176C173.629 31.1797 174.143 31.4731 174.776 31.4731Z" fill="#A2E6E6"/>
<path d="M189.118 61.625C189.752 61.625 190.265 61.3316 190.265 60.9696C190.265 60.6076 189.752 60.3141 189.118 60.3141C188.484 60.3141 187.971 60.6076 187.971 60.9696C187.971 61.3316 188.484 61.625 189.118 61.625Z" fill="#A2E6E6"/>
<path d="M189.118 54.0871C189.752 54.0871 190.265 53.7936 190.265 53.4316C190.265 53.0696 189.752 52.7761 189.118 52.7761C188.484 52.7761 187.971 53.0696 187.971 53.4316C187.971 53.7936 188.484 54.0871 189.118 54.0871Z" fill="#A2E6E6"/>
<path d="M189.118 46.5491C189.752 46.5491 190.265 46.2556 190.265 45.8936C190.265 45.5316 189.752 45.2381 189.118 45.2381C188.484 45.2381 187.971 45.5316 187.971 45.8936C187.971 46.2556 188.484 46.5491 189.118 46.5491Z" fill="#A2E6E6"/>
<path d="M189.118 39.0111C189.752 39.0111 190.265 38.7176 190.265 38.3556C190.265 37.9936 189.752 37.7001 189.118 37.7001C188.484 37.7001 187.971 37.9936 187.971 38.3556C187.971 38.7176 188.484 39.0111 189.118 39.0111Z" fill="#A2E6E6"/>
<path d="M189.118 31.4731C189.752 31.4731 190.265 31.1797 190.265 30.8176C190.265 30.4556 189.752 30.1622 189.118 30.1622C188.484 30.1622 187.971 30.4556 187.971 30.8176C187.971 31.1797 188.484 31.4731 189.118 31.4731Z" fill="#A2E6E6"/>
<path d="M203.458 61.625C204.091 61.625 204.605 61.3316 204.605 60.9696C204.605 60.6076 204.091 60.3141 203.458 60.3141C202.824 60.3141 202.311 60.6076 202.311 60.9696C202.311 61.3316 202.824 61.625 203.458 61.625Z" fill="#A2E6E6"/>
<path d="M203.458 54.0871C204.091 54.0871 204.605 53.7936 204.605 53.4316C204.605 53.0696 204.091 52.7761 203.458 52.7761C202.824 52.7761 202.311 53.0696 202.311 53.4316C202.311 53.7936 202.824 54.0871 203.458 54.0871Z" fill="#A2E6E6"/>
<path d="M203.458 46.5491C204.091 46.5491 204.605 46.2556 204.605 45.8936C204.605 45.5316 204.091 45.2381 203.458 45.2381C202.824 45.2381 202.311 45.5316 202.311 45.8936C202.311 46.2556 202.824 46.5491 203.458 46.5491Z" fill="#A2E6E6"/>
<path d="M203.458 39.0111C204.091 39.0111 204.605 38.7176 204.605 38.3556C204.605 37.9936 204.091 37.7001 203.458 37.7001C202.824 37.7001 202.311 37.9936 202.311 38.3556C202.311 38.7176 202.824 39.0111 203.458 39.0111Z" fill="#A2E6E6"/>
<path d="M203.458 31.4731C204.091 31.4731 204.605 31.1797 204.605 30.8176C204.605 30.4556 204.091 30.1622 203.458 30.1622C202.824 30.1622 202.311 30.4556 202.311 30.8176C202.311 31.1797 202.824 31.4731 203.458 31.4731Z" fill="#A2E6E6"/>
<path d="M217.8 61.625C218.433 61.625 218.947 61.3316 218.947 60.9696C218.947 60.6076 218.433 60.3141 217.8 60.3141C217.166 60.3141 216.652 60.6076 216.652 60.9696C216.652 61.3316 217.166 61.625 217.8 61.625Z" fill="#A2E6E6"/>
<path d="M217.8 54.0871C218.433 54.0871 218.947 53.7936 218.947 53.4316C218.947 53.0696 218.433 52.7761 217.8 52.7761C217.166 52.7761 216.652 53.0696 216.652 53.4316C216.652 53.7936 217.166 54.0871 217.8 54.0871Z" fill="#A2E6E6"/>
<path d="M217.8 46.5491C218.433 46.5491 218.947 46.2556 218.947 45.8936C218.947 45.5316 218.433 45.2381 217.8 45.2381C217.166 45.2381 216.652 45.5316 216.652 45.8936C216.652 46.2556 217.166 46.5491 217.8 46.5491Z" fill="#A2E6E6"/>
<path d="M217.8 39.0111C218.433 39.0111 218.947 38.7176 218.947 38.3556C218.947 37.9936 218.433 37.7001 217.8 37.7001C217.166 37.7001 216.652 37.9936 216.652 38.3556C216.652 38.7176 217.166 39.0111 217.8 39.0111Z" fill="#A2E6E6"/>
<path d="M217.8 31.4731C218.433 31.4731 218.947 31.1797 218.947 30.8176C218.947 30.4556 218.433 30.1622 217.8 30.1622C217.166 30.1622 216.652 30.4556 216.652 30.8176C216.652 31.1797 217.166 31.4731 217.8 31.4731Z" fill="#A2E6E6"/>
<path d="M232.139 61.625C232.773 61.625 233.287 61.3316 233.287 60.9696C233.287 60.6076 232.773 60.3141 232.139 60.3141C231.506 60.3141 230.992 60.6076 230.992 60.9696C230.992 61.3316 231.506 61.625 232.139 61.625Z" fill="#A2E6E6"/>
<path d="M232.139 54.0871C232.773 54.0871 233.287 53.7936 233.287 53.4316C233.287 53.0696 232.773 52.7761 232.139 52.7761C231.506 52.7761 230.992 53.0696 230.992 53.4316C230.992 53.7936 231.506 54.0871 232.139 54.0871Z" fill="#A2E6E6"/>
<path d="M232.139 46.5491C232.773 46.5491 233.287 46.2556 233.287 45.8936C233.287 45.5316 232.773 45.2381 232.139 45.2381C231.506 45.2381 230.992 45.5316 230.992 45.8936C230.992 46.2556 231.506 46.5491 232.139 46.5491Z" fill="#A2E6E6"/>
<path d="M232.139 39.0111C232.773 39.0111 233.287 38.7176 233.287 38.3556C233.287 37.9936 232.773 37.7001 232.139 37.7001C231.506 37.7001 230.992 37.9936 230.992 38.3556C230.992 38.7176 231.506 39.0111 232.139 39.0111Z" fill="#A2E6E6"/>
<path d="M232.139 31.4731C232.773 31.4731 233.287 31.1797 233.287 30.8176C233.287 30.4556 232.773 30.1622 232.139 30.1622C231.506 30.1622 230.992 30.4556 230.992 30.8176C230.992 31.1797 231.506 31.4731 232.139 31.4731Z" fill="#A2E6E6"/>
<path d="M246.481 61.625C247.115 61.625 247.629 61.3316 247.629 60.9696C247.629 60.6076 247.115 60.3141 246.481 60.3141C245.848 60.3141 245.334 60.6076 245.334 60.9696C245.334 61.3316 245.848 61.625 246.481 61.625Z" fill="#A2E6E6"/>
<path d="M246.481 54.0871C247.115 54.0871 247.629 53.7936 247.629 53.4316C247.629 53.0696 247.115 52.7761 246.481 52.7761C245.848 52.7761 245.334 53.0696 245.334 53.4316C245.334 53.7936 245.848 54.0871 246.481 54.0871Z" fill="#A2E6E6"/>
<path d="M246.481 46.5491C247.115 46.5491 247.629 46.2556 247.629 45.8936C247.629 45.5316 247.115 45.2381 246.481 45.2381C245.848 45.2381 245.334 45.5316 245.334 45.8936C245.334 46.2556 245.848 46.5491 246.481 46.5491Z" fill="#A2E6E6"/>
<path d="M246.481 39.0111C247.115 39.0111 247.629 38.7176 247.629 38.3556C247.629 37.9936 247.115 37.7001 246.481 37.7001C245.848 37.7001 245.334 37.9936 245.334 38.3556C245.334 38.7176 245.848 39.0111 246.481 39.0111Z" fill="#A2E6E6"/>
<path d="M246.481 31.4731C247.115 31.4731 247.629 31.1797 247.629 30.8176C247.629 30.4556 247.115 30.1622 246.481 30.1622C245.848 30.1622 245.334 30.4556 245.334 30.8176C245.334 31.1797 245.848 31.4731 246.481 31.4731Z" fill="#A2E6E6"/>
<path d="M260.821 61.625C261.455 61.625 261.968 61.3316 261.968 60.9696C261.968 60.6076 261.455 60.3141 260.821 60.3141C260.187 60.3141 259.674 60.6076 259.674 60.9696C259.674 61.3316 260.187 61.625 260.821 61.625Z" fill="#A2E6E6"/>
<path d="M260.821 54.0871C261.455 54.0871 261.968 53.7936 261.968 53.4316C261.968 53.0696 261.455 52.7761 260.821 52.7761C260.187 52.7761 259.674 53.0696 259.674 53.4316C259.674 53.7936 260.187 54.0871 260.821 54.0871Z" fill="#A2E6E6"/>
<path d="M260.821 46.5491C261.455 46.5491 261.968 46.2556 261.968 45.8936C261.968 45.5316 261.455 45.2381 260.821 45.2381C260.187 45.2381 259.674 45.5316 259.674 45.8936C259.674 46.2556 260.187 46.5491 260.821 46.5491Z" fill="#A2E6E6"/>
<path d="M260.821 39.0111C261.455 39.0111 261.968 38.7176 261.968 38.3556C261.968 37.9936 261.455 37.7001 260.821 37.7001C260.187 37.7001 259.674 37.9936 259.674 38.3556C259.674 38.7176 260.187 39.0111 260.821 39.0111Z" fill="#A2E6E6"/>
<path d="M260.821 31.4731C261.455 31.4731 261.968 31.1797 261.968 30.8176C261.968 30.4556 261.455 30.1622 260.821 30.1622C260.187 30.1622 259.674 30.4556 259.674 30.8176C259.674 31.1797 260.187 31.4731 260.821 31.4731Z" fill="#A2E6E6"/>
<path d="M275.163 61.625C275.797 61.625 276.31 61.3316 276.31 60.9696C276.31 60.6076 275.797 60.3141 275.163 60.3141C274.529 60.3141 274.016 60.6076 274.016 60.9696C274.016 61.3316 274.529 61.625 275.163 61.625Z" fill="#A2E6E6"/>
<path d="M275.163 54.0871C275.797 54.0871 276.31 53.7936 276.31 53.4316C276.31 53.0696 275.797 52.7761 275.163 52.7761C274.529 52.7761 274.016 53.0696 274.016 53.4316C274.016 53.7936 274.529 54.0871 275.163 54.0871Z" fill="#A2E6E6"/>
<path d="M275.163 46.5491C275.797 46.5491 276.31 46.2556 276.31 45.8936C276.31 45.5316 275.797 45.2381 275.163 45.2381C274.529 45.2381 274.016 45.5316 274.016 45.8936C274.016 46.2556 274.529 46.5491 275.163 46.5491Z" fill="#A2E6E6"/>
<path d="M275.163 39.0111C275.797 39.0111 276.31 38.7176 276.31 38.3556C276.31 37.9936 275.797 37.7001 275.163 37.7001C274.529 37.7001 274.016 37.9936 274.016 38.3556C274.016 38.7176 274.529 39.0111 275.163 39.0111Z" fill="#A2E6E6"/>
<path d="M275.163 31.4731C275.797 31.4731 276.31 31.1797 276.31 30.8176C276.31 30.4556 275.797 30.1622 275.163 30.1622C274.529 30.1622 274.016 30.4556 274.016 30.8176C274.016 31.1797 274.529 31.4731 275.163 31.4731Z" fill="#A2E6E6"/>
<path d="M289.503 61.625C290.136 61.625 290.65 61.3316 290.65 60.9696C290.65 60.6076 290.136 60.3141 289.503 60.3141C288.869 60.3141 288.355 60.6076 288.355 60.9696C288.355 61.3316 288.869 61.625 289.503 61.625Z" fill="#A2E6E6"/>
<path d="M289.503 54.0871C290.136 54.0871 290.65 53.7936 290.65 53.4316C290.65 53.0696 290.136 52.7761 289.503 52.7761C288.869 52.7761 288.355 53.0696 288.355 53.4316C288.355 53.7936 288.869 54.0871 289.503 54.0871Z" fill="#A2E6E6"/>
<path d="M289.503 46.5491C290.136 46.5491 290.65 46.2556 290.65 45.8936C290.65 45.5316 290.136 45.2381 289.503 45.2381C288.869 45.2381 288.355 45.5316 288.355 45.8936C288.355 46.2556 288.869 46.5491 289.503 46.5491Z" fill="#A2E6E6"/>
<path d="M289.503 39.0111C290.136 39.0111 290.65 38.7176 290.65 38.3556C290.65 37.9936 290.136 37.7001 289.503 37.7001C288.869 37.7001 288.355 37.9936 288.355 38.3556C288.355 38.7176 288.869 39.0111 289.503 39.0111Z" fill="#A2E6E6"/>
<path d="M289.503 31.4731C290.136 31.4731 290.65 31.1797 290.65 30.8176C290.65 30.4556 290.136 30.1622 289.503 30.1622C288.869 30.1622 288.355 30.4556 288.355 30.8176C288.355 31.1797 288.869 31.4731 289.503 31.4731Z" fill="#A2E6E6"/>
<path d="M303.845 61.625C304.478 61.625 304.992 61.3316 304.992 60.9696C304.992 60.6076 304.478 60.3141 303.845 60.3141C303.211 60.3141 302.697 60.6076 302.697 60.9696C302.697 61.3316 303.211 61.625 303.845 61.625Z" fill="#A2E6E6"/>
<path d="M303.845 54.0871C304.478 54.0871 304.992 53.7936 304.992 53.4316C304.992 53.0696 304.478 52.7761 303.845 52.7761C303.211 52.7761 302.697 53.0696 302.697 53.4316C302.697 53.7936 303.211 54.0871 303.845 54.0871Z" fill="#A2E6E6"/>
<path d="M303.845 46.5491C304.478 46.5491 304.992 46.2556 304.992 45.8936C304.992 45.5316 304.478 45.2381 303.845 45.2381C303.211 45.2381 302.697 45.5316 302.697 45.8936C302.697 46.2556 303.211 46.5491 303.845 46.5491Z" fill="#A2E6E6"/>
<path d="M303.845 39.0111C304.478 39.0111 304.992 38.7176 304.992 38.3556C304.992 37.9936 304.478 37.7001 303.845 37.7001C303.211 37.7001 302.697 37.9936 302.697 38.3556C302.697 38.7176 303.211 39.0111 303.845 39.0111Z" fill="#A2E6E6"/>
<path d="M303.845 31.4731C304.478 31.4731 304.992 31.1797 304.992 30.8176C304.992 30.4556 304.478 30.1622 303.845 30.1622C303.211 30.1622 302.697 30.4556 302.697 30.8176C302.697 31.1797 303.211 31.4731 303.845 31.4731Z" fill="#A2E6E6"/>
<path d="M318.184 61.625C318.818 61.625 319.332 61.3316 319.332 60.9696C319.332 60.6076 318.818 60.3141 318.184 60.3141C317.551 60.3141 317.037 60.6076 317.037 60.9696C317.037 61.3316 317.551 61.625 318.184 61.625Z" fill="#A2E6E6"/>
<path d="M318.184 54.0871C318.818 54.0871 319.332 53.7936 319.332 53.4316C319.332 53.0696 318.818 52.7761 318.184 52.7761C317.551 52.7761 317.037 53.0696 317.037 53.4316C317.037 53.7936 317.551 54.0871 318.184 54.0871Z" fill="#A2E6E6"/>
<path d="M318.184 46.5491C318.818 46.5491 319.332 46.2556 319.332 45.8936C319.332 45.5316 318.818 45.2381 318.184 45.2381C317.551 45.2381 317.037 45.5316 317.037 45.8936C317.037 46.2556 317.551 46.5491 318.184 46.5491Z" fill="#A2E6E6"/>
<path d="M318.184 39.0111C318.818 39.0111 319.332 38.7176 319.332 38.3556C319.332 37.9936 318.818 37.7001 318.184 37.7001C317.551 37.7001 317.037 37.9936 317.037 38.3556C317.037 38.7176 317.551 39.0111 318.184 39.0111Z" fill="#A2E6E6"/>
<path d="M318.184 31.4731C318.818 31.4731 319.332 31.1797 319.332 30.8176C319.332 30.4556 318.818 30.1622 318.184 30.1622C317.551 30.1622 317.037 30.4556 317.037 30.8176C317.037 31.1797 317.551 31.4731 318.184 31.4731Z" fill="#A2E6E6"/>
<path d="M332.526 61.625C333.16 61.625 333.673 61.3316 333.673 60.9696C333.673 60.6076 333.16 60.3141 332.526 60.3141C331.893 60.3141 331.379 60.6076 331.379 60.9696C331.379 61.3316 331.893 61.625 332.526 61.625Z" fill="#A2E6E6"/>
<path d="M332.526 54.0871C333.16 54.0871 333.673 53.7936 333.673 53.4316C333.673 53.0696 333.16 52.7761 332.526 52.7761C331.893 52.7761 331.379 53.0696 331.379 53.4316C331.379 53.7936 331.893 54.0871 332.526 54.0871Z" fill="#A2E6E6"/>
<path d="M332.526 46.5491C333.16 46.5491 333.673 46.2556 333.673 45.8936C333.673 45.5316 333.16 45.2381 332.526 45.2381C331.893 45.2381 331.379 45.5316 331.379 45.8936C331.379 46.2556 331.893 46.5491 332.526 46.5491Z" fill="#A2E6E6"/>
<path d="M332.526 39.0111C333.16 39.0111 333.673 38.7176 333.673 38.3556C333.673 37.9936 333.16 37.7001 332.526 37.7001C331.893 37.7001 331.379 37.9936 331.379 38.3556C331.379 38.7176 331.893 39.0111 332.526 39.0111Z" fill="#A2E6E6"/>
<path d="M332.526 31.4731C333.16 31.4731 333.673 31.1797 333.673 30.8176C333.673 30.4556 333.16 30.1622 332.526 30.1622C331.893 30.1622 331.379 30.4556 331.379 30.8176C331.379 31.1797 331.893 31.4731 332.526 31.4731Z" fill="#A2E6E6"/>
<path d="M3.17851 32.0349C3.81213 32.0349 4.32577 31.7415 4.32577 31.3795C4.32577 31.0175 3.81213 30.724 3.17851 30.724C2.5449 30.724 2.03125 31.0175 2.03125 31.3795C2.03125 31.7415 2.5449 32.0349 3.17851 32.0349Z" fill="#A2E6E6"/>
<path d="M3.17851 24.497C3.81213 24.497 4.32577 24.2035 4.32577 23.8415C4.32577 23.4795 3.81213 23.186 3.17851 23.186C2.5449 23.186 2.03125 23.4795 2.03125 23.8415C2.03125 24.2035 2.5449 24.497 3.17851 24.497Z" fill="#A2E6E6"/>
<path d="M3.17851 16.959C3.81213 16.959 4.32577 16.6655 4.32577 16.3035C4.32577 15.9415 3.81213 15.648 3.17851 15.648C2.5449 15.648 2.03125 15.9415 2.03125 16.3035C2.03125 16.6655 2.5449 16.959 3.17851 16.959Z" fill="#A2E6E6"/>
<path d="M3.17851 9.42098C3.81213 9.42098 4.32577 9.12752 4.32577 8.76551C4.32577 8.4035 3.81213 8.11003 3.17851 8.11003C2.5449 8.11003 2.03125 8.4035 2.03125 8.76551C2.03125 9.12752 2.5449 9.42098 3.17851 9.42098Z" fill="#A2E6E6"/>
<path d="M3.17851 1.88301C3.81213 1.88301 4.32577 1.58954 4.32577 1.22753C4.32577 0.865519 3.81213 0.572052 3.17851 0.572052C2.5449 0.572052 2.03125 0.865519 2.03125 1.22753C2.03125 1.58954 2.5449 1.88301 3.17851 1.88301Z" fill="#A2E6E6"/>
<path d="M17.5203 32.0349C18.1539 32.0349 18.6676 31.7415 18.6676 31.3795C18.6676 31.0175 18.1539 30.724 17.5203 30.724C16.8867 30.724 16.373 31.0175 16.373 31.3795C16.373 31.7415 16.8867 32.0349 17.5203 32.0349Z" fill="#A2E6E6"/>
<path d="M17.5203 24.497C18.1539 24.497 18.6676 24.2035 18.6676 23.8415C18.6676 23.4795 18.1539 23.186 17.5203 23.186C16.8867 23.186 16.373 23.4795 16.373 23.8415C16.373 24.2035 16.8867 24.497 17.5203 24.497Z" fill="#A2E6E6"/>
<path d="M17.5203 16.959C18.1539 16.959 18.6676 16.6655 18.6676 16.3035C18.6676 15.9415 18.1539 15.648 17.5203 15.648C16.8867 15.648 16.373 15.9415 16.373 16.3035C16.373 16.6655 16.8867 16.959 17.5203 16.959Z" fill="#A2E6E6"/>
<path d="M17.5203 9.42098C18.1539 9.42098 18.6676 9.12752 18.6676 8.76551C18.6676 8.4035 18.1539 8.11003 17.5203 8.11003C16.8867 8.11003 16.373 8.4035 16.373 8.76551C16.373 9.12752 16.8867 9.42098 17.5203 9.42098Z" fill="#A2E6E6"/>
<path d="M17.5203 1.88301C18.1539 1.88301 18.6676 1.58954 18.6676 1.22753C18.6676 0.865519 18.1539 0.572052 17.5203 0.572052C16.8867 0.572052 16.373 0.865519 16.373 1.22753C16.373 1.58954 16.8867 1.88301 17.5203 1.88301Z" fill="#A2E6E6"/>
<path d="M31.8602 32.0349C32.4938 32.0349 33.0074 31.7415 33.0074 31.3795C33.0074 31.0175 32.4938 30.724 31.8602 30.724C31.2265 30.724 30.7129 31.0175 30.7129 31.3795C30.7129 31.7415 31.2265 32.0349 31.8602 32.0349Z" fill="#A2E6E6"/>
<path d="M31.8602 24.497C32.4938 24.497 33.0074 24.2035 33.0074 23.8415C33.0074 23.4795 32.4938 23.186 31.8602 23.186C31.2265 23.186 30.7129 23.4795 30.7129 23.8415C30.7129 24.2035 31.2265 24.497 31.8602 24.497Z" fill="#A2E6E6"/>
<path d="M31.8602 16.959C32.4938 16.959 33.0074 16.6655 33.0074 16.3035C33.0074 15.9415 32.4938 15.648 31.8602 15.648C31.2265 15.648 30.7129 15.9415 30.7129 16.3035C30.7129 16.6655 31.2265 16.959 31.8602 16.959Z" fill="#A2E6E6"/>
<path d="M31.8602 9.42098C32.4938 9.42098 33.0074 9.12752 33.0074 8.76551C33.0074 8.4035 32.4938 8.11003 31.8602 8.11003C31.2265 8.11003 30.7129 8.4035 30.7129 8.76551C30.7129 9.12752 31.2265 9.42098 31.8602 9.42098Z" fill="#A2E6E6"/>
<path d="M31.8602 1.88301C32.4938 1.88301 33.0074 1.58954 33.0074 1.22753C33.0074 0.865519 32.4938 0.572052 31.8602 0.572052C31.2265 0.572052 30.7129 0.865519 30.7129 1.22753C30.7129 1.58954 31.2265 1.88301 31.8602 1.88301Z" fill="#A2E6E6"/>
<path d="M46.2019 32.0349C46.8356 32.0349 47.3492 31.7415 47.3492 31.3795C47.3492 31.0175 46.8356 30.724 46.2019 30.724C45.5683 30.724 45.0547 31.0175 45.0547 31.3795C45.0547 31.7415 45.5683 32.0349 46.2019 32.0349Z" fill="#A2E6E6"/>
<path d="M46.2019 24.497C46.8356 24.497 47.3492 24.2035 47.3492 23.8415C47.3492 23.4795 46.8356 23.186 46.2019 23.186C45.5683 23.186 45.0547 23.4795 45.0547 23.8415C45.0547 24.2035 45.5683 24.497 46.2019 24.497Z" fill="#A2E6E6"/>
<path d="M46.2019 16.959C46.8356 16.959 47.3492 16.6655 47.3492 16.3035C47.3492 15.9415 46.8356 15.648 46.2019 15.648C45.5683 15.648 45.0547 15.9415 45.0547 16.3035C45.0547 16.6655 45.5683 16.959 46.2019 16.959Z" fill="#A2E6E6"/>
<path d="M46.2019 9.42098C46.8356 9.42098 47.3492 9.12752 47.3492 8.76551C47.3492 8.4035 46.8356 8.11003 46.2019 8.11003C45.5683 8.11003 45.0547 8.4035 45.0547 8.76551C45.0547 9.12752 45.5683 9.42098 46.2019 9.42098Z" fill="#A2E6E6"/>
<path d="M46.2019 1.88301C46.8356 1.88301 47.3492 1.58954 47.3492 1.22753C47.3492 0.865519 46.8356 0.572052 46.2019 0.572052C45.5683 0.572052 45.0547 0.865519 45.0547 1.22753C45.0547 1.58954 45.5683 1.88301 46.2019 1.88301Z" fill="#A2E6E6"/>
<path d="M60.5418 32.0349C61.1754 32.0349 61.6891 31.7415 61.6891 31.3795C61.6891 31.0175 61.1754 30.724 60.5418 30.724C59.9082 30.724 59.3945 31.0175 59.3945 31.3795C59.3945 31.7415 59.9082 32.0349 60.5418 32.0349Z" fill="#A2E6E6"/>
<path d="M60.5418 24.497C61.1754 24.497 61.6891 24.2035 61.6891 23.8415C61.6891 23.4795 61.1754 23.186 60.5418 23.186C59.9082 23.186 59.3945 23.4795 59.3945 23.8415C59.3945 24.2035 59.9082 24.497 60.5418 24.497Z" fill="#A2E6E6"/>
<path d="M60.5418 16.959C61.1754 16.959 61.6891 16.6655 61.6891 16.3035C61.6891 15.9415 61.1754 15.648 60.5418 15.648C59.9082 15.648 59.3945 15.9415 59.3945 16.3035C59.3945 16.6655 59.9082 16.959 60.5418 16.959Z" fill="#A2E6E6"/>
<path d="M60.5418 9.42098C61.1754 9.42098 61.6891 9.12752 61.6891 8.76551C61.6891 8.4035 61.1754 8.11003 60.5418 8.11003C59.9082 8.11003 59.3945 8.4035 59.3945 8.76551C59.3945 9.12752 59.9082 9.42098 60.5418 9.42098Z" fill="#A2E6E6"/>
<path d="M60.5418 1.88301C61.1754 1.88301 61.6891 1.58954 61.6891 1.22753C61.6891 0.865519 61.1754 0.572052 60.5418 0.572052C59.9082 0.572052 59.3945 0.865519 59.3945 1.22753C59.3945 1.58954 59.9082 1.88301 60.5418 1.88301Z" fill="#A2E6E6"/>
<path d="M74.8836 32.0349C75.5172 32.0349 76.0309 31.7415 76.0309 31.3795C76.0309 31.0175 75.5172 30.724 74.8836 30.724C74.25 30.724 73.7363 31.0175 73.7363 31.3795C73.7363 31.7415 74.25 32.0349 74.8836 32.0349Z" fill="#A2E6E6"/>
<path d="M74.8836 24.497C75.5172 24.497 76.0309 24.2035 76.0309 23.8415C76.0309 23.4795 75.5172 23.186 74.8836 23.186C74.25 23.186 73.7363 23.4795 73.7363 23.8415C73.7363 24.2035 74.25 24.497 74.8836 24.497Z" fill="#A2E6E6"/>
<path d="M74.8836 16.959C75.5172 16.959 76.0309 16.6655 76.0309 16.3035C76.0309 15.9415 75.5172 15.648 74.8836 15.648C74.25 15.648 73.7363 15.9415 73.7363 16.3035C73.7363 16.6655 74.25 16.959 74.8836 16.959Z" fill="#A2E6E6"/>
<path d="M74.8836 9.42098C75.5172 9.42098 76.0309 9.12752 76.0309 8.76551C76.0309 8.4035 75.5172 8.11003 74.8836 8.11003C74.25 8.11003 73.7363 8.4035 73.7363 8.76551C73.7363 9.12752 74.25 9.42098 74.8836 9.42098Z" fill="#A2E6E6"/>
<path d="M74.8836 1.88301C75.5172 1.88301 76.0309 1.58954 76.0309 1.22753C76.0309 0.865519 75.5172 0.572052 74.8836 0.572052C74.25 0.572052 73.7363 0.865519 73.7363 1.22753C73.7363 1.58954 74.25 1.88301 74.8836 1.88301Z" fill="#A2E6E6"/>
<path d="M89.2234 32.0349C89.857 32.0349 90.3707 31.7415 90.3707 31.3795C90.3707 31.0175 89.857 30.724 89.2234 30.724C88.5898 30.724 88.0762 31.0175 88.0762 31.3795C88.0762 31.7415 88.5898 32.0349 89.2234 32.0349Z" fill="#A2E6E6"/>
<path d="M89.2234 24.497C89.857 24.497 90.3707 24.2035 90.3707 23.8415C90.3707 23.4795 89.857 23.186 89.2234 23.186C88.5898 23.186 88.0762 23.4795 88.0762 23.8415C88.0762 24.2035 88.5898 24.497 89.2234 24.497Z" fill="#A2E6E6"/>
<path d="M89.2234 16.959C89.857 16.959 90.3707 16.6655 90.3707 16.3035C90.3707 15.9415 89.857 15.648 89.2234 15.648C88.5898 15.648 88.0762 15.9415 88.0762 16.3035C88.0762 16.6655 88.5898 16.959 89.2234 16.959Z" fill="#A2E6E6"/>
<path d="M89.2234 9.42098C89.857 9.42098 90.3707 9.12752 90.3707 8.76551C90.3707 8.4035 89.857 8.11003 89.2234 8.11003C88.5898 8.11003 88.0762 8.4035 88.0762 8.76551C88.0762 9.12752 88.5898 9.42098 89.2234 9.42098Z" fill="#A2E6E6"/>
<path d="M89.2234 1.88301C89.857 1.88301 90.3707 1.58954 90.3707 1.22753C90.3707 0.865519 89.857 0.572052 89.2234 0.572052C88.5898 0.572052 88.0762 0.865519 88.0762 1.22753C88.0762 1.58954 88.5898 1.88301 89.2234 1.88301Z" fill="#A2E6E6"/>
<path d="M103.565 32.0349C104.199 32.0349 104.712 31.7415 104.712 31.3795C104.712 31.0175 104.199 30.724 103.565 30.724C102.932 30.724 102.418 31.0175 102.418 31.3795C102.418 31.7415 102.932 32.0349 103.565 32.0349Z" fill="#A2E6E6"/>
<path d="M103.565 24.497C104.199 24.497 104.712 24.2035 104.712 23.8415C104.712 23.4795 104.199 23.186 103.565 23.186C102.932 23.186 102.418 23.4795 102.418 23.8415C102.418 24.2035 102.932 24.497 103.565 24.497Z" fill="#A2E6E6"/>
<path d="M103.565 16.959C104.199 16.959 104.712 16.6655 104.712 16.3035C104.712 15.9415 104.199 15.648 103.565 15.648C102.932 15.648 102.418 15.9415 102.418 16.3035C102.418 16.6655 102.932 16.959 103.565 16.959Z" fill="#A2E6E6"/>
<path d="M103.565 9.42098C104.199 9.42098 104.712 9.12752 104.712 8.76551C104.712 8.4035 104.199 8.11003 103.565 8.11003C102.932 8.11003 102.418 8.4035 102.418 8.76551C102.418 9.12752 102.932 9.42098 103.565 9.42098Z" fill="#A2E6E6"/>
<path d="M103.565 1.88301C104.199 1.88301 104.712 1.58954 104.712 1.22753C104.712 0.865519 104.199 0.572052 103.565 0.572052C102.932 0.572052 102.418 0.865519 102.418 1.22753C102.418 1.58954 102.932 1.88301 103.565 1.88301Z" fill="#A2E6E6"/>
<path d="M117.905 32.0349C118.539 32.0349 119.052 31.7415 119.052 31.3795C119.052 31.0175 118.539 30.724 117.905 30.724C117.271 30.724 116.758 31.0175 116.758 31.3795C116.758 31.7415 117.271 32.0349 117.905 32.0349Z" fill="#A2E6E6"/>
<path d="M117.905 24.497C118.539 24.497 119.052 24.2035 119.052 23.8415C119.052 23.4795 118.539 23.186 117.905 23.186C117.271 23.186 116.758 23.4795 116.758 23.8415C116.758 24.2035 117.271 24.497 117.905 24.497Z" fill="#A2E6E6"/>
<path d="M117.905 16.959C118.539 16.959 119.052 16.6655 119.052 16.3035C119.052 15.9415 118.539 15.648 117.905 15.648C117.271 15.648 116.758 15.9415 116.758 16.3035C116.758 16.6655 117.271 16.959 117.905 16.959Z" fill="#A2E6E6"/>
<path d="M117.905 9.42098C118.539 9.42098 119.052 9.12752 119.052 8.76551C119.052 8.4035 118.539 8.11003 117.905 8.11003C117.271 8.11003 116.758 8.4035 116.758 8.76551C116.758 9.12752 117.271 9.42098 117.905 9.42098Z" fill="#A2E6E6"/>
<path d="M117.905 1.88301C118.539 1.88301 119.052 1.58954 119.052 1.22753C119.052 0.865519 118.539 0.572052 117.905 0.572052C117.271 0.572052 116.758 0.865519 116.758 1.22753C116.758 1.58954 117.271 1.88301 117.905 1.88301Z" fill="#A2E6E6"/>
<path d="M132.247 32.0349C132.88 32.0349 133.394 31.7415 133.394 31.3795C133.394 31.0175 132.88 30.724 132.247 30.724C131.613 30.724 131.1 31.0175 131.1 31.3795C131.1 31.7415 131.613 32.0349 132.247 32.0349Z" fill="#A2E6E6"/>
<path d="M132.247 24.497C132.88 24.497 133.394 24.2035 133.394 23.8415C133.394 23.4795 132.88 23.186 132.247 23.186C131.613 23.186 131.1 23.4795 131.1 23.8415C131.1 24.2035 131.613 24.497 132.247 24.497Z" fill="#A2E6E6"/>
<path d="M132.247 16.959C132.88 16.959 133.394 16.6655 133.394 16.3035C133.394 15.9415 132.88 15.648 132.247 15.648C131.613 15.648 131.1 15.9415 131.1 16.3035C131.1 16.6655 131.613 16.959 132.247 16.959Z" fill="#A2E6E6"/>
<path d="M132.247 9.42098C132.88 9.42098 133.394 9.12752 133.394 8.76551C133.394 8.4035 132.88 8.11003 132.247 8.11003C131.613 8.11003 131.1 8.4035 131.1 8.76551C131.1 9.12752 131.613 9.42098 132.247 9.42098Z" fill="#A2E6E6"/>
<path d="M132.247 1.88301C132.88 1.88301 133.394 1.58954 133.394 1.22753C133.394 0.865519 132.88 0.572052 132.247 0.572052C131.613 0.572052 131.1 0.865519 131.1 1.22753C131.1 1.58954 131.613 1.88301 132.247 1.88301Z" fill="#A2E6E6"/>
<path d="M2.85039 61.9996C3.484 61.9996 3.99765 61.7061 3.99765 61.3441C3.99765 60.9821 3.484 60.6886 2.85039 60.6886C2.21677 60.6886 1.70312 60.9821 1.70312 61.3441C1.70312 61.7061 2.21677 61.9996 2.85039 61.9996Z" fill="#A2E6E6"/>
<path d="M2.85039 54.4616C3.484 54.4616 3.99765 54.1682 3.99765 53.8061C3.99765 53.4441 3.484 53.1507 2.85039 53.1507C2.21677 53.1507 1.70312 53.4441 1.70312 53.8061C1.70312 54.1682 2.21677 54.4616 2.85039 54.4616Z" fill="#A2E6E6"/>
<path d="M2.85039 46.9237C3.484 46.9237 3.99765 46.6302 3.99765 46.2682C3.99765 45.9062 3.484 45.6127 2.85039 45.6127C2.21677 45.6127 1.70312 45.9062 1.70312 46.2682C1.70312 46.6302 2.21677 46.9237 2.85039 46.9237Z" fill="#A2E6E6"/>
<path d="M2.85039 39.3856C3.484 39.3856 3.99765 39.0922 3.99765 38.7302C3.99765 38.3682 3.484 38.0747 2.85039 38.0747C2.21677 38.0747 1.70312 38.3682 1.70312 38.7302C1.70312 39.0922 2.21677 39.3856 2.85039 39.3856Z" fill="#A2E6E6"/>
<path d="M2.85039 31.8477C3.484 31.8477 3.99765 31.5542 3.99765 31.1922C3.99765 30.8302 3.484 30.5367 2.85039 30.5367C2.21677 30.5367 1.70312 30.8302 1.70312 31.1922C1.70312 31.5542 2.21677 31.8477 2.85039 31.8477Z" fill="#A2E6E6"/>
<path d="M17.1922 61.9996C17.8258 61.9996 18.3394 61.7061 18.3394 61.3441C18.3394 60.9821 17.8258 60.6886 17.1922 60.6886C16.5586 60.6886 16.0449 60.9821 16.0449 61.3441C16.0449 61.7061 16.5586 61.9996 17.1922 61.9996Z" fill="#A2E6E6"/>
<path d="M17.1922 54.4616C17.8258 54.4616 18.3394 54.1682 18.3394 53.8061C18.3394 53.4441 17.8258 53.1507 17.1922 53.1507C16.5586 53.1507 16.0449 53.4441 16.0449 53.8061C16.0449 54.1682 16.5586 54.4616 17.1922 54.4616Z" fill="#A2E6E6"/>
<path d="M17.1922 46.9237C17.8258 46.9237 18.3394 46.6302 18.3394 46.2682C18.3394 45.9062 17.8258 45.6127 17.1922 45.6127C16.5586 45.6127 16.0449 45.9062 16.0449 46.2682C16.0449 46.6302 16.5586 46.9237 17.1922 46.9237Z" fill="#A2E6E6"/>
<path d="M17.1922 39.3856C17.8258 39.3856 18.3394 39.0922 18.3394 38.7302C18.3394 38.3682 17.8258 38.0747 17.1922 38.0747C16.5586 38.0747 16.0449 38.3682 16.0449 38.7302C16.0449 39.0922 16.5586 39.3856 17.1922 39.3856Z" fill="#A2E6E6"/>
<path d="M17.1922 31.8477C17.8258 31.8477 18.3394 31.5542 18.3394 31.1922C18.3394 30.8302 17.8258 30.5367 17.1922 30.5367C16.5586 30.5367 16.0449 30.8302 16.0449 31.1922C16.0449 31.5542 16.5586 31.8477 17.1922 31.8477Z" fill="#A2E6E6"/>
<path d="M31.532 61.9996C32.1656 61.9996 32.6793 61.7061 32.6793 61.3441C32.6793 60.9821 32.1656 60.6886 31.532 60.6886C30.8984 60.6886 30.3848 60.9821 30.3848 61.3441C30.3848 61.7061 30.8984 61.9996 31.532 61.9996Z" fill="#A2E6E6"/>
<path d="M31.532 54.4616C32.1656 54.4616 32.6793 54.1682 32.6793 53.8061C32.6793 53.4441 32.1656 53.1507 31.532 53.1507C30.8984 53.1507 30.3848 53.4441 30.3848 53.8061C30.3848 54.1682 30.8984 54.4616 31.532 54.4616Z" fill="#A2E6E6"/>
<path d="M31.532 46.9237C32.1656 46.9237 32.6793 46.6302 32.6793 46.2682C32.6793 45.9062 32.1656 45.6127 31.532 45.6127C30.8984 45.6127 30.3848 45.9062 30.3848 46.2682C30.3848 46.6302 30.8984 46.9237 31.532 46.9237Z" fill="#A2E6E6"/>
<path d="M31.532 39.3856C32.1656 39.3856 32.6793 39.0922 32.6793 38.7302C32.6793 38.3682 32.1656 38.0747 31.532 38.0747C30.8984 38.0747 30.3848 38.3682 30.3848 38.7302C30.3848 39.0922 30.8984 39.3856 31.532 39.3856Z" fill="#A2E6E6"/>
<path d="M31.532 31.8477C32.1656 31.8477 32.6793 31.5542 32.6793 31.1922C32.6793 30.8302 32.1656 30.5367 31.532 30.5367C30.8984 30.5367 30.3848 30.8302 30.3848 31.1922C30.3848 31.5542 30.8984 31.8477 31.532 31.8477Z" fill="#A2E6E6"/>
<path d="M45.8738 61.9996C46.5074 61.9996 47.0211 61.7061 47.0211 61.3441C47.0211 60.9821 46.5074 60.6886 45.8738 60.6886C45.2402 60.6886 44.7266 60.9821 44.7266 61.3441C44.7266 61.7061 45.2402 61.9996 45.8738 61.9996Z" fill="#A2E6E6"/>
<path d="M45.8738 54.4616C46.5074 54.4616 47.0211 54.1682 47.0211 53.8061C47.0211 53.4441 46.5074 53.1507 45.8738 53.1507C45.2402 53.1507 44.7266 53.4441 44.7266 53.8061C44.7266 54.1682 45.2402 54.4616 45.8738 54.4616Z" fill="#A2E6E6"/>
<path d="M45.8738 46.9237C46.5074 46.9237 47.0211 46.6302 47.0211 46.2682C47.0211 45.9062 46.5074 45.6127 45.8738 45.6127C45.2402 45.6127 44.7266 45.9062 44.7266 46.2682C44.7266 46.6302 45.2402 46.9237 45.8738 46.9237Z" fill="#A2E6E6"/>
<path d="M45.8738 39.3856C46.5074 39.3856 47.0211 39.0922 47.0211 38.7302C47.0211 38.3682 46.5074 38.0747 45.8738 38.0747C45.2402 38.0747 44.7266 38.3682 44.7266 38.7302C44.7266 39.0922 45.2402 39.3856 45.8738 39.3856Z" fill="#A2E6E6"/>
<path d="M45.8738 31.8477C46.5074 31.8477 47.0211 31.5542 47.0211 31.1922C47.0211 30.8302 46.5074 30.5367 45.8738 30.5367C45.2402 30.5367 44.7266 30.8302 44.7266 31.1922C44.7266 31.5542 45.2402 31.8477 45.8738 31.8477Z" fill="#A2E6E6"/>
<path d="M60.2137 61.9996C60.8473 61.9996 61.3609 61.7061 61.3609 61.3441C61.3609 60.9821 60.8473 60.6886 60.2137 60.6886C59.5801 60.6886 59.0664 60.9821 59.0664 61.3441C59.0664 61.7061 59.5801 61.9996 60.2137 61.9996Z" fill="#A2E6E6"/>
<path d="M60.2137 54.4616C60.8473 54.4616 61.3609 54.1682 61.3609 53.8061C61.3609 53.4441 60.8473 53.1507 60.2137 53.1507C59.5801 53.1507 59.0664 53.4441 59.0664 53.8061C59.0664 54.1682 59.5801 54.4616 60.2137 54.4616Z" fill="#A2E6E6"/>
<path d="M60.2137 46.9237C60.8473 46.9237 61.3609 46.6302 61.3609 46.2682C61.3609 45.9062 60.8473 45.6127 60.2137 45.6127C59.5801 45.6127 59.0664 45.9062 59.0664 46.2682C59.0664 46.6302 59.5801 46.9237 60.2137 46.9237Z" fill="#A2E6E6"/>
<path d="M60.2137 39.3856C60.8473 39.3856 61.3609 39.0922 61.3609 38.7302C61.3609 38.3682 60.8473 38.0747 60.2137 38.0747C59.5801 38.0747 59.0664 38.3682 59.0664 38.7302C59.0664 39.0922 59.5801 39.3856 60.2137 39.3856Z" fill="#A2E6E6"/>
<path d="M60.2137 31.8477C60.8473 31.8477 61.3609 31.5542 61.3609 31.1922C61.3609 30.8302 60.8473 30.5367 60.2137 30.5367C59.5801 30.5367 59.0664 30.8302 59.0664 31.1922C59.0664 31.5542 59.5801 31.8477 60.2137 31.8477Z" fill="#A2E6E6"/>
<path d="M74.5555 61.9996C75.1891 61.9996 75.7027 61.7061 75.7027 61.3441C75.7027 60.9821 75.1891 60.6886 74.5555 60.6886C73.9218 60.6886 73.4082 60.9821 73.4082 61.3441C73.4082 61.7061 73.9218 61.9996 74.5555 61.9996Z" fill="#A2E6E6"/>
<path d="M74.5555 54.4616C75.1891 54.4616 75.7027 54.1682 75.7027 53.8061C75.7027 53.4441 75.1891 53.1507 74.5555 53.1507C73.9218 53.1507 73.4082 53.4441 73.4082 53.8061C73.4082 54.1682 73.9218 54.4616 74.5555 54.4616Z" fill="#A2E6E6"/>
<path d="M74.5555 46.9237C75.1891 46.9237 75.7027 46.6302 75.7027 46.2682C75.7027 45.9062 75.1891 45.6127 74.5555 45.6127C73.9218 45.6127 73.4082 45.9062 73.4082 46.2682C73.4082 46.6302 73.9218 46.9237 74.5555 46.9237Z" fill="#A2E6E6"/>
<path d="M74.5555 39.3856C75.1891 39.3856 75.7027 39.0922 75.7027 38.7302C75.7027 38.3682 75.1891 38.0747 74.5555 38.0747C73.9218 38.0747 73.4082 38.3682 73.4082 38.7302C73.4082 39.0922 73.9218 39.3856 74.5555 39.3856Z" fill="#A2E6E6"/>
<path d="M74.5555 31.8477C75.1891 31.8477 75.7027 31.5542 75.7027 31.1922C75.7027 30.8302 75.1891 30.5367 74.5555 30.5367C73.9218 30.5367 73.4082 30.8302 73.4082 31.1922C73.4082 31.5542 73.9218 31.8477 74.5555 31.8477Z" fill="#A2E6E6"/>
<path d="M88.8953 61.9996C89.5289 61.9996 90.0426 61.7061 90.0426 61.3441C90.0426 60.9821 89.5289 60.6886 88.8953 60.6886C88.2617 60.6886 87.748 60.9821 87.748 61.3441C87.748 61.7061 88.2617 61.9996 88.8953 61.9996Z" fill="#A2E6E6"/>
<path d="M88.8953 54.4616C89.5289 54.4616 90.0426 54.1682 90.0426 53.8061C90.0426 53.4441 89.5289 53.1507 88.8953 53.1507C88.2617 53.1507 87.748 53.4441 87.748 53.8061C87.748 54.1682 88.2617 54.4616 88.8953 54.4616Z" fill="#A2E6E6"/>
<path d="M88.8953 46.9237C89.5289 46.9237 90.0426 46.6302 90.0426 46.2682C90.0426 45.9062 89.5289 45.6127 88.8953 45.6127C88.2617 45.6127 87.748 45.9062 87.748 46.2682C87.748 46.6302 88.2617 46.9237 88.8953 46.9237Z" fill="#A2E6E6"/>
<path d="M88.8953 39.3856C89.5289 39.3856 90.0426 39.0922 90.0426 38.7302C90.0426 38.3682 89.5289 38.0747 88.8953 38.0747C88.2617 38.0747 87.748 38.3682 87.748 38.7302C87.748 39.0922 88.2617 39.3856 88.8953 39.3856Z" fill="#A2E6E6"/>
<path d="M88.8953 31.8477C89.5289 31.8477 90.0426 31.5542 90.0426 31.1922C90.0426 30.8302 89.5289 30.5367 88.8953 30.5367C88.2617 30.5367 87.748 30.8302 87.748 31.1922C87.748 31.5542 88.2617 31.8477 88.8953 31.8477Z" fill="#A2E6E6"/>
<path d="M103.237 61.9996C103.871 61.9996 104.384 61.7061 104.384 61.3441C104.384 60.9821 103.871 60.6886 103.237 60.6886C102.603 60.6886 102.09 60.9821 102.09 61.3441C102.09 61.7061 102.603 61.9996 103.237 61.9996Z" fill="#A2E6E6"/>
<path d="M103.237 54.4616C103.871 54.4616 104.384 54.1682 104.384 53.8061C104.384 53.4441 103.871 53.1507 103.237 53.1507C102.603 53.1507 102.09 53.4441 102.09 53.8061C102.09 54.1682 102.603 54.4616 103.237 54.4616Z" fill="#A2E6E6"/>
<path d="M103.237 46.9237C103.871 46.9237 104.384 46.6302 104.384 46.2682C104.384 45.9062 103.871 45.6127 103.237 45.6127C102.603 45.6127 102.09 45.9062 102.09 46.2682C102.09 46.6302 102.603 46.9237 103.237 46.9237Z" fill="#A2E6E6"/>
<path d="M103.237 39.3856C103.871 39.3856 104.384 39.0922 104.384 38.7302C104.384 38.3682 103.871 38.0747 103.237 38.0747C102.603 38.0747 102.09 38.3682 102.09 38.7302C102.09 39.0922 102.603 39.3856 103.237 39.3856Z" fill="#A2E6E6"/>
<path d="M103.237 31.8477C103.871 31.8477 104.384 31.5542 104.384 31.1922C104.384 30.8302 103.871 30.5367 103.237 30.5367C102.603 30.5367 102.09 30.8302 102.09 31.1922C102.09 31.5542 102.603 31.8477 103.237 31.8477Z" fill="#A2E6E6"/>
<path d="M117.577 61.9996C118.211 61.9996 118.724 61.7061 118.724 61.3441C118.724 60.9821 118.211 60.6886 117.577 60.6886C116.943 60.6886 116.43 60.9821 116.43 61.3441C116.43 61.7061 116.943 61.9996 117.577 61.9996Z" fill="#A2E6E6"/>
<path d="M117.577 54.4616C118.211 54.4616 118.724 54.1682 118.724 53.8061C118.724 53.4441 118.211 53.1507 117.577 53.1507C116.943 53.1507 116.43 53.4441 116.43 53.8061C116.43 54.1682 116.943 54.4616 117.577 54.4616Z" fill="#A2E6E6"/>
<path d="M117.577 46.9237C118.211 46.9237 118.724 46.6302 118.724 46.2682C118.724 45.9062 118.211 45.6127 117.577 45.6127C116.943 45.6127 116.43 45.9062 116.43 46.2682C116.43 46.6302 116.943 46.9237 117.577 46.9237Z" fill="#A2E6E6"/>
<path d="M117.577 39.3856C118.211 39.3856 118.724 39.0922 118.724 38.7302C118.724 38.3682 118.211 38.0747 117.577 38.0747C116.943 38.0747 116.43 38.3682 116.43 38.7302C116.43 39.0922 116.943 39.3856 117.577 39.3856Z" fill="#A2E6E6"/>
<path d="M117.577 31.8477C118.211 31.8477 118.724 31.5542 118.724 31.1922C118.724 30.8302 118.211 30.5367 117.577 30.5367C116.943 30.5367 116.43 30.8302 116.43 31.1922C116.43 31.5542 116.943 31.8477 117.577 31.8477Z" fill="#A2E6E6"/>
<path d="M131.919 61.9996C132.552 61.9996 133.066 61.7061 133.066 61.3441C133.066 60.9821 132.552 60.6886 131.919 60.6886C131.285 60.6886 130.771 60.9821 130.771 61.3441C130.771 61.7061 131.285 61.9996 131.919 61.9996Z" fill="#A2E6E6"/>
<path d="M131.919 54.4616C132.552 54.4616 133.066 54.1682 133.066 53.8061C133.066 53.4441 132.552 53.1507 131.919 53.1507C131.285 53.1507 130.771 53.4441 130.771 53.8061C130.771 54.1682 131.285 54.4616 131.919 54.4616Z" fill="#A2E6E6"/>
<path d="M131.919 46.9237C132.552 46.9237 133.066 46.6302 133.066 46.2682C133.066 45.9062 132.552 45.6127 131.919 45.6127C131.285 45.6127 130.771 45.9062 130.771 46.2682C130.771 46.6302 131.285 46.9237 131.919 46.9237Z" fill="#A2E6E6"/>
<path d="M131.919 39.3856C132.552 39.3856 133.066 39.0922 133.066 38.7302C133.066 38.3682 132.552 38.0747 131.919 38.0747C131.285 38.0747 130.771 38.3682 130.771 38.7302C130.771 39.0922 131.285 39.3856 131.919 39.3856Z" fill="#A2E6E6"/>
<path d="M131.919 31.8477C132.552 31.8477 133.066 31.5542 133.066 31.1922C133.066 30.8302 132.552 30.5367 131.919 30.5367C131.285 30.5367 130.771 30.8302 130.771 31.1922C130.771 31.5542 131.285 31.8477 131.919 31.8477Z" fill="#A2E6E6"/>
</svg>
