<svg width="135" height="252" viewBox="0 0 135 252" fill="none" xmlns="http://www.w3.org/2000/svg">
<g id="Group 138">
<g id="Group 131">
<g id="Group">
<path id="Vector" d="M65.4571 1.92449C65.4583 2.70866 66.1002 3.34344 66.891 3.3423C67.6818 3.34117 68.3219 2.70454 68.3208 1.92037C68.3196 1.13619 67.6777 0.501411 66.8869 0.502548C66.0961 0.503686 65.456 1.14031 65.4571 1.92449Z" fill="#A2E6E6"/>
<path id="Vector_2" d="M81.923 1.90105C81.9241 2.68522 82.566 3.32 83.3568 3.31887C84.1476 3.31773 84.7877 2.6811 84.7866 1.89693C84.7855 1.11275 84.1435 0.477973 83.3527 0.479111C82.562 0.480248 81.9218 1.11687 81.923 1.90105Z" fill="#A2E6E6"/>
<path id="Vector_3" d="M98.3889 1.87712C98.39 2.6613 99.032 3.29608 99.8228 3.29494C100.614 3.2938 101.254 2.65718 101.253 1.873C101.251 1.08883 100.609 0.454047 99.8187 0.455185C99.0279 0.456323 98.3878 1.09295 98.3889 1.87712Z" fill="#A2E6E6"/>
<path id="Vector_4" d="M114.855 1.85368C114.856 2.63786 115.498 3.27264 116.289 3.2715C117.079 3.27036 117.72 2.63374 117.718 1.84956C117.717 1.06539 117.075 0.43061 116.285 0.431747C115.494 0.432885 114.854 1.06951 114.855 1.85368Z" fill="#A2E6E6"/>
<path id="Vector_5" d="M131.321 1.82976C131.322 2.61394 131.964 3.24871 132.755 3.24758C133.545 3.24644 134.185 2.60982 134.184 1.82564C134.183 1.04146 133.541 0.406684 132.75 0.407822C131.96 0.408959 131.32 1.04558 131.321 1.82976Z" fill="#A2E6E6"/>
<path id="Vector_6" d="M65.4826 19.673C65.4838 20.4572 66.1257 21.092 66.9165 21.0908C67.7073 21.0897 68.3474 20.4531 68.3463 19.6689C68.3452 18.8847 67.7032 18.2499 66.9124 18.2511C66.1217 18.2522 65.4815 18.8888 65.4826 19.673Z" fill="#A2E6E6"/>
<path id="Vector_7" d="M81.9485 19.6491C81.9496 20.4333 82.5916 21.0681 83.3823 21.0669C84.1731 21.0658 84.8132 20.4292 84.8121 19.645C84.811 18.8608 84.169 18.226 83.3782 18.2272C82.5875 18.2283 81.9473 18.8649 81.9485 19.6491Z" fill="#A2E6E6"/>
<path id="Vector_8" d="M98.4144 19.6257C98.4155 20.4098 99.0575 21.0446 99.8483 21.0435C100.639 21.0423 101.279 20.4057 101.278 19.6215C101.277 18.8374 100.635 18.2026 99.8442 18.2037C99.0534 18.2049 98.4133 18.8415 98.4144 19.6257Z" fill="#A2E6E6"/>
<path id="Vector_9" d="M114.88 19.6017C114.881 20.3859 115.523 21.0207 116.314 21.0195C117.105 21.0184 117.745 20.3818 117.744 19.5976C117.743 18.8134 117.101 18.1787 116.31 18.1798C115.519 18.1809 114.879 18.8176 114.88 19.6017Z" fill="#A2E6E6"/>
<path id="Vector_10" d="M131.346 19.5783C131.347 20.3625 131.989 20.9972 132.78 20.9961C133.571 20.995 134.211 20.3584 134.21 19.5742C134.209 18.79 133.567 18.1552 132.776 18.1564C131.985 18.1575 131.345 18.7941 131.346 19.5783Z" fill="#A2E6E6"/>
<path id="Vector_11" d="M65.5082 37.4216C65.5093 38.2057 66.1512 38.8405 66.942 38.8394C67.7328 38.8382 68.3729 38.2016 68.3718 37.4174C68.3707 36.6333 67.7287 35.9985 66.9379 35.9996C66.1472 36.0008 65.507 36.6374 65.5082 37.4216Z" fill="#A2E6E6"/>
<path id="Vector_12" d="M81.9741 37.3976C81.9752 38.1818 82.6172 38.8166 83.408 38.8154C84.1987 38.8143 84.8389 38.1777 84.8377 37.3935C84.8366 36.6093 84.1946 35.9746 83.4039 35.9757C82.6131 35.9768 81.973 36.6135 81.9741 37.3976Z" fill="#A2E6E6"/>
<path id="Vector_13" d="M98.4399 37.3742C98.4411 38.1584 99.083 38.7931 99.8738 38.792C100.665 38.7909 101.305 38.1542 101.304 37.3701C101.302 36.5859 100.66 35.9511 99.8697 35.9523C99.0789 35.9534 98.4388 36.59 98.4399 37.3742Z" fill="#A2E6E6"/>
<path id="Vector_14" d="M114.906 37.3503C114.907 38.1344 115.549 38.7692 116.34 38.7681C117.13 38.7669 117.771 38.1303 117.769 37.3461C117.768 36.562 117.126 35.9272 116.336 35.9283C115.545 35.9295 114.905 36.5661 114.906 37.3503Z" fill="#A2E6E6"/>
<path id="Vector_15" d="M131.372 37.3268C131.373 38.111 132.015 38.7458 132.806 38.7446C133.596 38.7435 134.236 38.1069 134.235 37.3227C134.234 36.5385 133.592 35.9038 132.801 35.9049C132.011 35.906 131.371 36.5427 131.372 37.3268Z" fill="#A2E6E6"/>
<path id="Vector_16" d="M65.5337 55.1701C65.5348 55.9543 66.1768 56.589 66.9675 56.5879C67.7583 56.5868 68.3984 55.9501 68.3973 55.166C68.3962 54.3818 67.7542 53.747 66.9634 53.7482C66.1727 53.7493 65.5325 54.3859 65.5337 55.1701Z" fill="#A2E6E6"/>
<path id="Vector_17" d="M81.9996 55.1462C82.0007 55.9303 82.6427 56.5651 83.4335 56.564C84.2242 56.5628 84.8644 55.9262 84.8632 55.142C84.8621 54.3579 84.2202 53.7231 83.4294 53.7242C82.6386 53.7254 81.9985 54.362 81.9996 55.1462Z" fill="#A2E6E6"/>
<path id="Vector_18" d="M98.4654 55.1227C98.4666 55.9069 99.1085 56.5417 99.8993 56.5405C100.69 56.5394 101.33 55.9028 101.329 55.1186C101.328 54.3344 100.686 53.6997 99.8952 53.7008C99.1044 53.7019 98.4643 54.3386 98.4654 55.1227Z" fill="#A2E6E6"/>
<path id="Vector_19" d="M114.931 55.0988C114.933 55.883 115.574 56.5178 116.365 56.5166C117.156 56.5155 117.796 55.8789 117.795 55.0947C117.794 54.3105 117.152 53.6757 116.361 53.6769C115.57 53.678 114.93 54.3146 114.931 55.0988Z" fill="#A2E6E6"/>
<path id="Vector_20" d="M131.397 55.0754C131.398 55.8595 132.04 56.4943 132.831 56.4932C133.622 56.492 134.262 55.8554 134.261 55.0712C134.26 54.2871 133.618 53.6523 132.827 53.6534C132.036 53.6546 131.396 54.2912 131.397 55.0754Z" fill="#A2E6E6"/>
<path id="Vector_21" d="M65.5593 72.9181C65.5604 73.7023 66.2024 74.3371 66.9932 74.336C67.7839 74.3348 68.4241 73.6982 68.4229 72.914C68.4218 72.1298 67.7799 71.4951 66.9891 71.4962C66.1983 71.4973 65.5582 72.134 65.5593 72.9181Z" fill="#A2E6E6"/>
<path id="Vector_22" d="M82.0251 72.8947C82.0263 73.6789 82.6682 74.3137 83.459 74.3125C84.2498 74.3114 84.8899 73.6748 84.8888 72.8906C84.8876 72.1064 84.2457 71.4716 83.4549 71.4728C82.6641 71.4739 82.024 72.1105 82.0251 72.8947Z" fill="#A2E6E6"/>
<path id="Vector_23" d="M98.4911 72.8708C98.4922 73.655 99.1342 74.2897 99.9249 74.2886C100.716 74.2875 101.356 73.6508 101.355 72.8667C101.354 72.0825 100.712 71.4477 99.9208 71.4488C99.1301 71.45 98.4899 72.0866 98.4911 72.8708Z" fill="#A2E6E6"/>
<path id="Vector_24" d="M114.957 72.8473C114.958 73.6315 115.6 74.2663 116.391 74.2652C117.182 74.264 117.822 73.6274 117.821 72.8432C117.819 72.059 117.177 71.4243 116.387 71.4254C115.596 71.4265 114.956 72.0632 114.957 72.8473Z" fill="#A2E6E6"/>
<path id="Vector_25" d="M131.423 72.8234C131.424 73.6076 132.066 74.2424 132.857 74.2412C133.647 74.2401 134.288 73.6035 134.286 72.8193C134.285 72.0351 133.643 71.4003 132.853 71.4015C132.062 71.4026 131.422 72.0392 131.423 72.8234Z" fill="#A2E6E6"/>
<path id="Vector_26" d="M65.5848 90.6667C65.5859 91.4508 66.2279 92.0856 67.0187 92.0845C67.8095 92.0834 68.4496 91.4467 68.4485 90.6626C68.4473 89.8784 67.8054 89.2436 67.0146 89.2447C66.2238 89.2459 65.5837 89.8825 65.5848 90.6667Z" fill="#A2E6E6"/>
<path id="Vector_27" d="M82.0506 90.6432C82.0518 91.4274 82.6937 92.0622 83.4845 92.0611C84.2753 92.0599 84.9154 91.4233 84.9143 90.6391C84.9131 89.8549 84.2712 89.2202 83.4804 89.2213C82.6896 89.2224 82.0495 89.8591 82.0506 90.6432Z" fill="#A2E6E6"/>
<path id="Vector_28" d="M98.5166 90.6193C98.5177 91.4035 99.1597 92.0383 99.9504 92.0371C100.741 92.036 101.381 91.3994 101.38 90.6152C101.379 89.831 100.737 89.1962 99.9464 89.1974C99.1556 89.1985 98.5155 89.8351 98.5166 90.6193Z" fill="#A2E6E6"/>
<path id="Vector_29" d="M114.982 90.5959C114.984 91.38 115.625 92.0148 116.416 92.0137C117.207 92.0126 117.847 91.3759 117.846 90.5918C117.845 89.8076 117.203 89.1728 116.412 89.1739C115.621 89.1751 114.981 89.8117 114.982 90.5959Z" fill="#A2E6E6"/>
<path id="Vector_30" d="M131.448 90.5719C131.449 91.3561 132.091 91.9909 132.882 91.9898C133.673 91.9886 134.313 91.352 134.312 90.5678C134.311 89.7836 133.669 89.1489 132.878 89.15C132.087 89.1511 131.447 89.7878 131.448 90.5719Z" fill="#A2E6E6"/>
<path id="Vector_31" d="M65.6103 108.415C65.6115 109.199 66.2534 109.834 67.0442 109.833C67.835 109.832 68.4751 109.195 68.474 108.411C68.4728 107.627 67.8309 106.992 67.0401 106.993C66.2493 106.994 65.6092 107.631 65.6103 108.415Z" fill="#A2E6E6"/>
<path id="Vector_32" d="M82.0763 108.392C82.0774 109.176 82.7194 109.811 83.5101 109.81C84.3009 109.808 84.941 109.172 84.9399 108.388C84.9388 107.603 84.2968 106.969 83.506 106.97C82.7153 106.971 82.0751 107.608 82.0763 108.392Z" fill="#A2E6E6"/>
<path id="Vector_33" d="M98.5421 108.368C98.5432 109.152 99.1852 109.787 99.976 109.786C100.767 109.785 101.407 109.148 101.406 108.364C101.405 107.58 100.763 106.945 99.9719 106.946C99.1811 106.947 98.541 107.584 98.5421 108.368Z" fill="#A2E6E6"/>
<path id="Vector_34" d="M115.008 108.344C115.009 109.129 115.651 109.763 116.442 109.762C117.233 109.761 117.873 109.124 117.872 108.34C117.871 107.556 117.229 106.921 116.438 106.922C115.647 106.924 115.007 107.56 115.008 108.344Z" fill="#A2E6E6"/>
<path id="Vector_35" d="M131.474 108.32C131.475 109.105 132.117 109.739 132.908 109.738C133.698 109.737 134.339 109.101 134.337 108.316C134.336 107.532 133.694 106.897 132.904 106.899C132.113 106.9 131.473 107.536 131.474 108.32Z" fill="#A2E6E6"/>
<path id="Vector_36" d="M65.6358 126.164C65.637 126.948 66.2789 127.583 67.0697 127.582C67.8605 127.58 68.5006 126.944 68.4995 126.16C68.4984 125.375 67.8564 124.741 67.0656 124.742C66.2748 124.743 65.6347 125.38 65.6358 126.164Z" fill="#A2E6E6"/>
<path id="Vector_37" d="M82.1018 126.14C82.1029 126.924 82.7449 127.559 83.5356 127.558C84.3264 127.557 84.9665 126.92 84.9654 126.136C84.9643 125.352 84.3223 124.717 83.5316 124.718C82.7408 124.72 82.1007 125.356 82.1018 126.14Z" fill="#A2E6E6"/>
<path id="Vector_38" d="M98.5676 126.116C98.5687 126.901 99.2107 127.535 100.001 127.534C100.792 127.533 101.432 126.896 101.431 126.112C101.43 125.328 100.788 124.693 99.9974 124.694C99.2066 124.696 98.5665 125.332 98.5676 126.116Z" fill="#A2E6E6"/>
<path id="Vector_39" d="M115.034 126.093C115.035 126.877 115.677 127.512 116.467 127.511C117.258 127.51 117.898 126.873 117.897 126.089C117.896 125.305 117.254 124.67 116.463 124.671C115.673 124.672 115.032 125.309 115.034 126.093Z" fill="#A2E6E6"/>
<path id="Vector_40" d="M131.499 126.069C131.501 126.853 132.142 127.488 132.933 127.487C133.724 127.486 134.364 126.849 134.363 126.065C134.362 125.281 133.72 124.646 132.929 124.647C132.138 124.648 131.498 125.285 131.499 126.069Z" fill="#A2E6E6"/>
<path id="Vector_41" d="M65.6615 143.912C65.6626 144.696 66.3046 145.331 67.0953 145.33C67.8861 145.329 68.5262 144.692 68.5251 143.908C68.524 143.124 67.882 142.489 67.0913 142.49C66.3005 142.491 65.6604 143.128 65.6615 143.912Z" fill="#A2E6E6"/>
<path id="Vector_42" d="M82.1273 143.888C82.1284 144.673 82.7704 145.307 83.5612 145.306C84.3519 145.305 84.9921 144.668 84.9909 143.884C84.9898 143.1 84.3478 142.465 83.5571 142.466C82.7663 142.468 82.1262 143.104 82.1273 143.888Z" fill="#A2E6E6"/>
<path id="Vector_43" d="M98.5931 143.865C98.5943 144.649 99.2362 145.284 100.027 145.283C100.818 145.282 101.458 144.645 101.457 143.861C101.456 143.077 100.814 142.442 100.023 142.443C99.2321 142.444 98.592 143.081 98.5931 143.865Z" fill="#A2E6E6"/>
<path id="Vector_44" d="M115.059 143.841C115.06 144.625 115.702 145.26 116.493 145.259C117.284 145.258 117.924 144.621 117.923 143.837C117.922 143.053 117.28 142.418 116.489 142.419C115.698 142.42 115.058 143.057 115.059 143.841Z" fill="#A2E6E6"/>
<path id="Vector_45" d="M131.525 143.818C131.526 144.602 132.168 145.237 132.959 145.235C133.75 145.234 134.39 144.598 134.389 143.813C134.387 143.029 133.745 142.394 132.955 142.396C132.164 142.397 131.524 143.033 131.525 143.818Z" fill="#A2E6E6"/>
<path id="Vector_46" d="M65.687 161.661C65.6881 162.445 66.3301 163.08 67.1209 163.079C67.9116 163.077 68.5518 162.441 68.5506 161.657C68.5495 160.873 67.9075 160.238 67.1168 160.239C66.326 160.24 65.6859 160.877 65.687 161.661Z" fill="#A2E6E6"/>
<path id="Vector_47" d="M82.1528 161.637C82.1539 162.421 82.7959 163.056 83.5867 163.055C84.3774 163.054 85.0176 162.417 85.0164 161.633C85.0153 160.849 84.3734 160.214 83.5826 160.215C82.7918 160.216 82.1517 160.853 82.1528 161.637Z" fill="#A2E6E6"/>
<path id="Vector_48" d="M98.6186 161.613C98.6198 162.398 99.2617 163.032 100.052 163.031C100.843 163.03 101.483 162.394 101.482 161.609C101.481 160.825 100.839 160.19 100.048 160.192C99.2576 160.193 98.6175 160.829 98.6186 161.613Z" fill="#A2E6E6"/>
<path id="Vector_49" d="M115.085 161.59C115.086 162.374 115.728 163.008 116.518 163.007C117.309 163.006 117.949 162.37 117.948 161.585C117.947 160.801 117.305 160.166 116.514 160.168C115.724 160.169 115.083 160.805 115.085 161.59Z" fill="#A2E6E6"/>
<path id="Vector_50" d="M131.551 161.566C131.552 162.35 132.194 162.985 132.984 162.984C133.775 162.983 134.415 162.346 134.414 161.562C134.413 160.778 133.771 160.143 132.98 160.144C132.19 160.145 131.549 160.782 131.551 161.566Z" fill="#A2E6E6"/>
<path id="Vector_51" d="M65.7125 179.409C65.7136 180.194 66.3556 180.828 67.1464 180.827C67.9371 180.826 68.5773 180.189 68.5761 179.405C68.575 178.621 67.9331 177.986 67.1423 177.987C66.3515 177.989 65.7114 178.625 65.7125 179.409Z" fill="#A2E6E6"/>
<path id="Vector_52" d="M82.1783 179.385C82.1795 180.17 82.8214 180.804 83.6122 180.803C84.403 180.802 85.0431 180.165 85.042 179.381C85.0408 178.597 84.3989 177.962 83.6081 177.963C82.8173 177.965 82.1772 178.601 82.1783 179.385Z" fill="#A2E6E6"/>
<path id="Vector_53" d="M98.6441 179.362C98.6453 180.146 99.2872 180.781 100.078 180.78C100.869 180.779 101.509 180.142 101.508 179.358C101.507 178.574 100.865 177.939 100.074 177.94C99.2832 177.941 98.643 178.578 98.6441 179.362Z" fill="#A2E6E6"/>
<path id="Vector_54" d="M115.11 179.338C115.111 180.122 115.753 180.757 116.544 180.756C117.335 180.755 117.975 180.118 117.974 179.334C117.973 178.55 117.331 177.915 116.54 177.916C115.749 177.917 115.109 178.554 115.11 179.338Z" fill="#A2E6E6"/>
<path id="Vector_55" d="M131.576 179.315C131.577 180.099 132.219 180.734 133.01 180.732C133.801 180.731 134.441 180.095 134.44 179.311C134.439 178.526 133.797 177.892 133.006 177.893C132.215 177.894 131.575 178.53 131.576 179.315Z" fill="#A2E6E6"/>
<path id="Vector_56" d="M65.738 197.158C65.7391 197.942 66.3811 198.577 67.1719 198.576C67.9626 198.575 68.6028 197.938 68.6017 197.154C68.6005 196.37 67.9586 195.735 67.1678 195.736C66.377 195.737 65.7369 196.374 65.738 197.158Z" fill="#A2E6E6"/>
<path id="Vector_57" d="M82.2038 197.134C82.205 197.918 82.8469 198.553 83.6377 198.552C84.4285 198.551 85.0686 197.914 85.0675 197.13C85.0663 196.346 84.4244 195.711 83.6336 195.712C82.8428 195.713 82.2027 196.35 82.2038 197.134Z" fill="#A2E6E6"/>
<path id="Vector_58" d="M98.6698 197.11C98.6709 197.894 99.3129 198.529 100.104 198.528C100.894 198.527 101.535 197.89 101.533 197.106C101.532 196.322 100.89 195.687 100.1 195.688C99.3088 195.689 98.6687 196.326 98.6698 197.11Z" fill="#A2E6E6"/>
<path id="Vector_59" d="M115.136 197.087C115.137 197.871 115.779 198.506 116.57 198.504C117.36 198.503 118 197.867 117.999 197.082C117.998 196.298 117.356 195.664 116.565 195.665C115.775 195.666 115.135 196.302 115.136 197.087Z" fill="#A2E6E6"/>
<path id="Vector_60" d="M131.602 197.063C131.603 197.847 132.245 198.482 133.035 198.48C133.826 198.479 134.466 197.843 134.465 197.059C134.464 196.274 133.822 195.64 133.031 195.641C132.241 195.642 131.6 196.278 131.602 197.063Z" fill="#A2E6E6"/>
<path id="Vector_61" d="M65.7635 214.906C65.7647 215.69 66.4066 216.325 67.1974 216.324C67.9882 216.323 68.6283 215.686 68.6272 214.902C68.626 214.118 67.9841 213.483 67.1933 213.484C66.4025 213.485 65.7624 214.122 65.7635 214.906Z" fill="#A2E6E6"/>
<path id="Vector_62" d="M82.2294 214.882C82.2305 215.667 82.8724 216.301 83.6632 216.3C84.454 216.299 85.0941 215.663 85.093 214.878C85.0919 214.094 84.4499 213.459 83.6591 213.461C82.8684 213.462 82.2282 214.098 82.2294 214.882Z" fill="#A2E6E6"/>
<path id="Vector_63" d="M98.6953 214.859C98.6964 215.643 99.3384 216.278 100.129 216.276C100.92 216.275 101.56 215.639 101.559 214.854C101.558 214.07 100.916 213.435 100.125 213.437C99.3343 213.438 98.6942 214.074 98.6953 214.859Z" fill="#A2E6E6"/>
<path id="Vector_64" d="M115.161 214.835C115.162 215.619 115.804 216.254 116.595 216.253C117.386 216.252 118.026 215.615 118.025 214.831C118.024 214.047 117.382 213.412 116.591 213.413C115.8 213.414 115.16 214.051 115.161 214.835Z" fill="#A2E6E6"/>
<path id="Vector_65" d="M131.627 214.811C131.628 215.595 132.27 216.23 133.061 216.229C133.852 216.228 134.492 215.591 134.491 214.807C134.49 214.023 133.848 213.388 133.057 213.389C132.266 213.39 131.626 214.027 131.627 214.811Z" fill="#A2E6E6"/>
<path id="Vector_66" d="M65.789 232.654C65.7902 233.439 66.4321 234.073 67.2229 234.072C68.0137 234.071 68.6538 233.435 68.6527 232.65C68.6515 231.866 68.0096 231.231 67.2188 231.233C66.428 231.234 65.7879 231.87 65.789 232.654Z" fill="#A2E6E6"/>
<path id="Vector_67" d="M82.255 232.631C82.2561 233.415 82.8981 234.05 83.6888 234.049C84.4796 234.048 85.1197 233.411 85.1186 232.627C85.1175 231.843 84.4755 231.208 83.6848 231.209C82.894 231.21 82.2539 231.847 82.255 232.631Z" fill="#A2E6E6"/>
<path id="Vector_68" d="M98.7208 232.607C98.7219 233.391 99.3639 234.026 100.155 234.025C100.945 234.024 101.586 233.387 101.584 232.603C101.583 231.819 100.941 231.184 100.151 231.185C99.3598 231.186 98.7197 231.823 98.7208 232.607Z" fill="#A2E6E6"/>
<path id="Vector_69" d="M115.187 232.584C115.188 233.368 115.83 234.003 116.621 234.001C117.411 234 118.052 233.364 118.05 232.58C118.049 231.795 117.407 231.161 116.617 231.162C115.826 231.163 115.186 231.799 115.187 232.584Z" fill="#A2E6E6"/>
<path id="Vector_70" d="M131.653 232.56C131.654 233.344 132.296 233.979 133.086 233.978C133.877 233.976 134.517 233.34 134.516 232.556C134.515 231.771 133.873 231.137 133.082 231.138C132.292 231.139 131.651 231.776 131.653 232.56Z" fill="#A2E6E6"/>
<path id="Vector_71" d="M65.8146 250.403C65.8157 251.187 66.4576 251.822 67.2484 251.821C68.0392 251.82 68.6793 251.183 68.6782 250.399C68.6771 249.615 68.0351 248.98 67.2443 248.981C66.4536 248.982 65.8134 249.619 65.8146 250.403Z" fill="#A2E6E6"/>
<path id="Vector_72" d="M82.2805 250.379C82.2816 251.163 82.9236 251.798 83.7144 251.797C84.5051 251.796 85.1453 251.159 85.1441 250.375C85.143 249.591 84.501 248.956 83.7103 248.957C82.9195 248.958 82.2794 249.595 82.2805 250.379Z" fill="#A2E6E6"/>
<path id="Vector_73" d="M98.7463 250.356C98.7474 251.14 99.3894 251.775 100.18 251.773C100.971 251.772 101.611 251.136 101.61 250.352C101.609 249.567 100.967 248.933 100.176 248.934C99.3853 248.935 98.7452 249.571 98.7463 250.356Z" fill="#A2E6E6"/>
<path id="Vector_74" d="M115.212 250.332C115.213 251.116 115.855 251.751 116.646 251.75C117.437 251.748 118.077 251.112 118.076 250.328C118.075 249.543 117.433 248.909 116.642 248.91C115.851 248.911 115.211 249.548 115.212 250.332Z" fill="#A2E6E6"/>
<path id="Vector_75" d="M131.678 250.308C131.679 251.092 132.321 251.727 133.112 251.726C133.903 251.725 134.543 251.088 134.542 250.304C134.541 249.52 133.899 248.885 133.108 248.886C132.317 248.887 131.677 249.524 131.678 250.308Z" fill="#A2E6E6"/>
</g>
<g id="Group_2">
<path id="Vector_76" d="M0.00205763 1.61296C0.00318584 2.39714 0.645146 3.03192 1.43592 3.03078C2.22669 3.02964 2.86682 2.39302 2.86569 1.60884C2.86456 0.824666 2.2226 0.189887 1.43183 0.191025C0.641061 0.192163 0.000929419 0.828786 0.00205763 1.61296Z" fill="#A2E6E6"/>
<path id="Vector_77" d="M16.4679 1.58952C16.469 2.3737 17.111 3.00848 17.9017 3.00734C18.6925 3.0062 19.3326 2.36958 19.3315 1.5854C19.3304 0.801228 18.6884 0.16645 17.8977 0.167587C17.1069 0.168725 16.4667 0.805348 16.4679 1.58952Z" fill="#A2E6E6"/>
<path id="Vector_78" d="M32.9338 1.5656C32.9349 2.34978 33.5769 2.98455 34.3677 2.98342C35.1584 2.98228 35.7986 2.34566 35.7975 1.56148C35.7963 0.777302 35.1544 0.142524 34.3636 0.143662C33.5728 0.144799 32.9327 0.781422 32.9338 1.5656Z" fill="#A2E6E6"/>
<path id="Vector_79" d="M49.3998 1.54216C49.4009 2.32634 50.0429 2.96112 50.8336 2.95998C51.6244 2.95884 52.2645 2.32222 52.2634 1.53804C52.2623 0.753865 51.6203 0.119086 50.8295 0.120224C50.0388 0.121362 49.3986 0.757985 49.3998 1.54216Z" fill="#A2E6E6"/>
<path id="Vector_80" d="M65.8656 1.51824C65.8667 2.30241 66.5087 2.93719 67.2994 2.93605C68.0902 2.93492 68.7303 2.29829 68.7292 1.51412C68.7281 0.729939 68.0861 0.0951606 67.2954 0.0962983C66.5046 0.097436 65.8645 0.734059 65.8656 1.51824Z" fill="#A2E6E6"/>
<path id="Vector_81" d="M0.0275703 19.3615C0.0286985 20.1457 0.670659 20.7805 1.46143 20.7793C2.2522 20.7782 2.89233 20.1416 2.8912 19.3574C2.89007 18.5732 2.24811 17.9384 1.45734 17.9396C0.666573 17.9407 0.0264421 18.5773 0.0275703 19.3615Z" fill="#A2E6E6"/>
<path id="Vector_82" d="M16.4934 19.3376C16.4945 20.1217 17.1365 20.7565 17.9272 20.7554C18.718 20.7543 19.3582 20.1176 19.357 19.3335C19.3559 18.5493 18.7139 17.9145 17.9232 17.9156C17.1324 17.9168 16.4923 18.5534 16.4934 19.3376Z" fill="#A2E6E6"/>
<path id="Vector_83" d="M32.9593 19.3141C32.9605 20.0983 33.6024 20.7331 34.3932 20.732C35.184 20.7308 35.8241 20.0942 35.823 19.31C35.8218 18.5258 35.1799 17.8911 34.3891 17.8922C33.5983 17.8933 32.9582 18.53 32.9593 19.3141Z" fill="#A2E6E6"/>
<path id="Vector_84" d="M49.4253 19.2902C49.4264 20.0744 50.0684 20.7092 50.8591 20.708C51.6499 20.7069 52.29 20.0703 52.2889 19.2861C52.2878 18.5019 51.6458 17.8671 50.855 17.8683C50.0643 17.8694 49.4241 18.506 49.4253 19.2902Z" fill="#A2E6E6"/>
<path id="Vector_85" d="M65.8911 19.2668C65.8922 20.0509 66.5342 20.6857 67.325 20.6846C68.1157 20.6835 68.7559 20.0468 68.7547 19.2627C68.7536 18.4785 68.1116 17.8437 67.3209 17.8448C66.5301 17.846 65.89 18.4826 65.8911 19.2668Z" fill="#A2E6E6"/>
<path id="Vector_86" d="M0.053083 37.11C0.0542112 37.8942 0.696172 38.529 1.48694 38.5278C2.27771 38.5267 2.91784 37.8901 2.91672 37.1059C2.91559 36.3217 2.27363 35.687 1.48286 35.6881C0.692086 35.6892 0.0519548 36.3259 0.053083 37.11Z" fill="#A2E6E6"/>
<path id="Vector_87" d="M16.519 37.0861C16.5202 37.8703 17.1621 38.5051 17.9529 38.5039C18.7437 38.5028 19.3838 37.8662 19.3827 37.082C19.3815 36.2978 18.7396 35.663 17.9488 35.6642C17.158 35.6653 16.5179 36.3019 16.519 37.0861Z" fill="#A2E6E6"/>
<path id="Vector_88" d="M32.9848 37.0627C32.986 37.8468 33.6279 38.4816 34.4187 38.4805C35.2095 38.4793 35.8496 37.8427 35.8485 37.0585C35.8474 36.2744 35.2054 35.6396 34.4146 35.6407C33.6238 35.6419 32.9837 36.2785 32.9848 37.0627Z" fill="#A2E6E6"/>
<path id="Vector_89" d="M49.4508 37.0387C49.4519 37.8229 50.0939 38.4577 50.8846 38.4566C51.6754 38.4554 52.3155 37.8188 52.3144 37.0346C52.3133 36.2504 51.6713 35.6157 50.8806 35.6168C50.0898 35.6179 49.4497 36.2546 49.4508 37.0387Z" fill="#A2E6E6"/>
<path id="Vector_90" d="M65.9166 37.0153C65.9177 37.7995 66.5597 38.4343 67.3505 38.4331C68.1412 38.432 68.7814 37.7954 68.7802 37.0112C68.7791 36.227 68.1372 35.5922 67.3464 35.5934C66.5556 35.5945 65.9155 36.2311 65.9166 37.0153Z" fill="#A2E6E6"/>
<path id="Vector_91" d="M0.0785957 54.8586C0.0797239 55.6427 0.721684 56.2775 1.51245 56.2764C2.30323 56.2752 2.94336 55.6386 2.94223 54.8544C2.9411 54.0703 2.29914 53.4355 1.50837 53.4366C0.717599 53.4378 0.0774675 54.0744 0.0785957 54.8586Z" fill="#A2E6E6"/>
<path id="Vector_92" d="M16.5445 54.8346C16.5457 55.6188 17.1876 56.2536 17.9784 56.2525C18.7692 56.2513 19.4093 55.6147 19.4082 54.8305C19.407 54.0463 18.7651 53.4116 17.9743 53.4127C17.1835 53.4138 16.5434 54.0505 16.5445 54.8346Z" fill="#A2E6E6"/>
<path id="Vector_93" d="M33.0105 54.8112C33.0116 55.5954 33.6536 56.2302 34.4443 56.229C35.2351 56.2279 35.8752 55.5913 35.8741 54.8071C35.873 54.0229 35.231 53.3881 34.4403 53.3893C33.6495 53.3904 33.0094 54.027 33.0105 54.8112Z" fill="#A2E6E6"/>
<path id="Vector_94" d="M49.4763 54.7873C49.4774 55.5715 50.1194 56.2062 50.9102 56.2051C51.7009 56.204 52.3411 55.5673 52.3399 54.7832C52.3388 53.999 51.6968 53.3642 50.9061 53.3653C50.1153 53.3665 49.4752 54.0031 49.4763 54.7873Z" fill="#A2E6E6"/>
<path id="Vector_95" d="M65.9421 54.7638C65.9432 55.548 66.5852 56.1828 67.376 56.1817C68.1668 56.1805 68.8069 55.5439 68.8058 54.7597C68.8046 53.9755 68.1627 53.3408 67.3719 53.3419C66.5811 53.343 65.941 53.9797 65.9421 54.7638Z" fill="#A2E6E6"/>
<path id="Vector_96" d="M0.10423 72.6066C0.105359 73.3908 0.747319 74.0256 1.53809 74.0244C2.32886 74.0233 2.96899 73.3867 2.96786 72.6025C2.96673 71.8183 2.32477 71.1835 1.534 71.1847C0.743234 71.1858 0.103102 71.8224 0.10423 72.6066Z" fill="#A2E6E6"/>
<path id="Vector_97" d="M16.5701 72.5832C16.5712 73.3674 17.2131 74.0021 18.0039 74.001C18.7947 73.9999 19.4348 73.3632 19.4337 72.5791C19.4326 71.7949 18.7906 71.1601 17.9998 71.1612C17.2091 71.1624 16.5689 71.799 16.5701 72.5832Z" fill="#A2E6E6"/>
<path id="Vector_98" d="M33.036 72.5593C33.0371 73.3434 33.6791 73.9782 34.4699 73.9771C35.2606 73.9759 35.9008 73.3393 35.8996 72.5551C35.8985 71.771 35.2565 71.1362 34.4658 71.1373C33.675 71.1385 33.0349 71.7751 33.036 72.5593Z" fill="#A2E6E6"/>
<path id="Vector_99" d="M49.5018 72.5358C49.5029 73.32 50.1449 73.9548 50.9357 73.9536C51.7264 73.9525 52.3666 73.3159 52.3654 72.5317C52.3643 71.7475 51.7224 71.1127 50.9316 71.1139C50.1408 71.115 49.5007 71.7516 49.5018 72.5358Z" fill="#A2E6E6"/>
<path id="Vector_100" d="M65.9678 72.5119C65.9689 73.2961 66.6108 73.9308 67.4016 73.9297C68.1924 73.9286 68.8325 73.2919 68.8314 72.5078C68.8303 71.7236 68.1883 71.0888 67.3975 71.09C66.6068 71.0911 65.9666 71.7277 65.9678 72.5119Z" fill="#A2E6E6"/>
<path id="Vector_101" d="M0.129743 90.3551C0.130871 91.1393 0.772832 91.7741 1.5636 91.773C2.35437 91.7718 2.9945 91.1352 2.99338 90.351C2.99225 89.5669 2.35029 88.9321 1.55952 88.9332C0.768746 88.9344 0.128615 89.571 0.129743 90.3551Z" fill="#A2E6E6"/>
<path id="Vector_102" d="M16.5956 90.3317C16.5967 91.1159 17.2387 91.7507 18.0294 91.7495C18.8202 91.7484 19.4603 91.1118 19.4592 90.3276C19.4581 89.5434 18.8161 88.9086 18.0253 88.9098C17.2346 88.9109 16.5944 89.5475 16.5956 90.3317Z" fill="#A2E6E6"/>
<path id="Vector_103" d="M33.0615 90.3078C33.0626 91.092 33.7046 91.7267 34.4954 91.7256C35.2861 91.7245 35.9263 91.0878 35.9251 90.3037C35.924 89.5195 35.282 88.8847 34.4913 88.8858C33.7005 88.887 33.0604 89.5236 33.0615 90.3078Z" fill="#A2E6E6"/>
<path id="Vector_104" d="M49.5273 90.2843C49.5285 91.0685 50.1704 91.7033 50.9612 91.7022C51.752 91.701 52.3921 91.0644 52.391 90.2802C52.3898 89.4961 51.7479 88.8613 50.9571 88.8624C50.1663 88.8635 49.5262 89.5002 49.5273 90.2843Z" fill="#A2E6E6"/>
<path id="Vector_105" d="M65.9933 90.2604C65.9944 91.0446 66.6364 91.6794 67.4271 91.6782C68.2179 91.6771 68.858 91.0405 68.8569 90.2563C68.8558 89.4721 68.2138 88.8373 67.423 88.8385C66.6323 88.8396 65.9921 89.4762 65.9933 90.2604Z" fill="#A2E6E6"/>
<path id="Vector_106" d="M0.155256 108.104C0.156384 108.888 0.798345 109.523 1.58912 109.522C2.37989 109.52 3.02002 108.884 3.01889 108.1C3.01776 107.315 2.3758 106.681 1.58503 106.682C0.794259 106.683 0.154128 107.32 0.155256 108.104Z" fill="#A2E6E6"/>
<path id="Vector_107" d="M16.6212 108.08C16.6223 108.864 17.2643 109.499 18.0551 109.498C18.8458 109.497 19.486 108.86 19.4848 108.076C19.4837 107.292 18.8417 106.657 18.051 106.658C17.2602 106.659 16.6201 107.296 16.6212 108.08Z" fill="#A2E6E6"/>
<path id="Vector_108" d="M33.087 108.056C33.0881 108.84 33.7301 109.475 34.5209 109.474C35.3116 109.473 35.9518 108.836 35.9507 108.052C35.9495 107.268 35.3076 106.633 34.5168 106.634C33.726 106.636 33.0859 107.272 33.087 108.056Z" fill="#A2E6E6"/>
<path id="Vector_109" d="M49.553 108.033C49.5541 108.817 50.196 109.452 50.9868 109.451C51.7776 109.45 52.4177 108.813 52.4166 108.029C52.4155 107.245 51.7735 106.61 50.9827 106.611C50.192 106.612 49.5518 107.249 49.553 108.033Z" fill="#A2E6E6"/>
<path id="Vector_110" d="M66.0188 108.009C66.0199 108.793 66.6619 109.428 67.4526 109.427C68.2434 109.426 68.8835 108.789 68.8824 108.005C68.8813 107.221 68.2393 106.586 67.4486 106.587C66.6578 106.588 66.0177 107.225 66.0188 108.009Z" fill="#A2E6E6"/>
<path id="Vector_111" d="M0.180891 125.852C0.182019 126.636 0.823979 127.271 1.61475 127.27C2.40552 127.269 3.04565 126.632 3.04452 125.848C3.0434 125.064 2.40143 124.429 1.61066 124.43C0.819894 124.431 0.179762 125.068 0.180891 125.852Z" fill="#A2E6E6"/>
<path id="Vector_112" d="M16.6467 125.829C16.6478 126.613 17.2898 127.248 18.0806 127.247C18.8713 127.245 19.5115 126.609 19.5103 125.825C19.5092 125.04 18.8673 124.406 18.0765 124.407C17.2857 124.408 16.6456 125.045 16.6467 125.829Z" fill="#A2E6E6"/>
<path id="Vector_113" d="M33.1125 125.805C33.1137 126.589 33.7556 127.224 34.5464 127.223C35.3372 127.222 35.9773 126.585 35.9762 125.801C35.975 125.017 35.3331 124.382 34.5423 124.383C33.7515 124.384 33.1114 125.021 33.1125 125.805Z" fill="#A2E6E6"/>
<path id="Vector_114" d="M49.5785 125.781C49.5796 126.566 50.2216 127.2 51.0123 127.199C51.8031 127.198 52.4432 126.561 52.4421 125.777C52.441 124.993 51.799 124.358 51.0082 124.359C50.2175 124.361 49.5773 124.997 49.5785 125.781Z" fill="#A2E6E6"/>
<path id="Vector_115" d="M66.0443 125.757C66.0454 126.542 66.6874 127.176 67.4782 127.175C68.2689 127.174 68.9091 126.538 68.9079 125.753C68.9068 124.969 68.2648 124.334 67.4741 124.336C66.6833 124.337 66.0432 124.973 66.0443 125.757Z" fill="#A2E6E6"/>
<path id="Vector_116" d="M0.206403 143.601C0.207532 144.385 0.849492 145.02 1.64026 145.019C2.43103 145.017 3.07116 144.381 3.07004 143.597C3.06891 142.812 2.42695 142.178 1.63618 142.179C0.845406 142.18 0.205275 142.817 0.206403 143.601Z" fill="#A2E6E6"/>
<path id="Vector_117" d="M16.6722 143.577C16.6734 144.361 17.3153 144.996 18.1061 144.995C18.8969 144.994 19.537 144.357 19.5359 143.573C19.5347 142.789 18.8928 142.154 18.102 142.155C17.3112 142.156 16.6711 142.793 16.6722 143.577Z" fill="#A2E6E6"/>
<path id="Vector_118" d="M33.138 143.553C33.1392 144.338 33.7811 144.972 34.5719 144.971C35.3627 144.97 36.0028 144.333 36.0017 143.549C36.0005 142.765 35.3586 142.13 34.5678 142.131C33.777 142.133 33.1369 142.769 33.138 143.553Z" fill="#A2E6E6"/>
<path id="Vector_119" d="M49.604 143.529C49.6051 144.314 50.2471 144.948 51.0378 144.947C51.8286 144.946 52.4687 144.31 52.4676 143.525C52.4665 142.741 51.8245 142.106 51.0338 142.108C50.243 142.109 49.6029 142.745 49.604 143.529Z" fill="#A2E6E6"/>
<path id="Vector_120" d="M66.0698 143.506C66.0709 144.29 66.7129 144.925 67.5037 144.924C68.2944 144.923 68.9346 144.286 68.9334 143.502C68.9323 142.718 68.2904 142.083 67.4996 142.084C66.7088 142.085 66.0687 142.722 66.0698 143.506Z" fill="#A2E6E6"/>
<path id="Vector_121" d="M0.231916 161.349C0.233044 162.133 0.875005 162.768 1.66578 162.767C2.45655 162.766 3.09668 162.129 3.09555 161.345C3.09442 160.561 2.45246 159.926 1.66169 159.927C0.870919 159.928 0.230788 160.565 0.231916 161.349Z" fill="#A2E6E6"/>
<path id="Vector_122" d="M16.6977 161.325C16.6989 162.11 17.3408 162.744 18.1316 162.743C18.9224 162.742 19.5625 162.105 19.5614 161.321C19.5602 160.537 18.9183 159.902 18.1275 159.903C17.3367 159.905 16.6966 160.541 16.6977 161.325Z" fill="#A2E6E6"/>
<path id="Vector_123" d="M33.1636 161.302C33.1647 162.086 33.8066 162.721 34.5974 162.72C35.3882 162.719 36.0283 162.082 36.0272 161.298C36.0261 160.514 35.3841 159.879 34.5933 159.88C33.8026 159.881 33.1624 160.518 33.1636 161.302Z" fill="#A2E6E6"/>
<path id="Vector_124" d="M49.6295 161.278C49.6306 162.062 50.2726 162.697 51.0634 162.696C51.8541 162.695 52.4943 162.058 52.4931 161.274C52.492 160.49 51.85 159.855 51.0593 159.856C50.2685 159.857 49.6284 160.494 49.6295 161.278Z" fill="#A2E6E6"/>
<path id="Vector_125" d="M66.0954 161.255C66.0966 162.039 66.7385 162.674 67.5293 162.672C68.3201 162.671 68.9602 162.035 68.9591 161.25C68.9579 160.466 68.316 159.831 67.5252 159.833C66.7344 159.834 66.0943 160.47 66.0954 161.255Z" fill="#A2E6E6"/>
<path id="Vector_126" d="M0.257429 179.098C0.258557 179.882 0.900517 180.517 1.69129 180.516C2.48206 180.515 3.12219 179.878 3.12106 179.094C3.11993 178.31 2.47797 177.675 1.6872 177.676C0.896432 177.677 0.256301 178.314 0.257429 179.098Z" fill="#A2E6E6"/>
<path id="Vector_127" d="M16.7232 179.074C16.7244 179.858 17.3663 180.493 18.1571 180.492C18.9479 180.491 19.588 179.854 19.5869 179.07C19.5858 178.286 18.9438 177.651 18.153 177.652C17.3623 177.653 16.7221 178.29 16.7232 179.074Z" fill="#A2E6E6"/>
<path id="Vector_128" d="M33.1891 179.05C33.1902 179.835 33.8322 180.469 34.6229 180.468C35.4137 180.467 36.0538 179.831 36.0527 179.046C36.0516 178.262 35.4096 177.627 34.6188 177.629C33.8281 177.63 33.1879 178.266 33.1891 179.05Z" fill="#A2E6E6"/>
<path id="Vector_129" d="M49.6551 179.027C49.6563 179.811 50.2982 180.445 51.089 180.444C51.8798 180.443 52.5199 179.807 52.5188 179.022C52.5176 178.238 51.8757 177.603 51.0849 177.605C50.2941 177.606 49.654 178.242 49.6551 179.027Z" fill="#A2E6E6"/>
<path id="Vector_130" d="M66.121 179.003C66.1221 179.787 66.764 180.422 67.5548 180.421C68.3456 180.42 68.9857 179.783 68.9846 178.999C68.9835 178.215 68.3415 177.58 67.5507 177.581C66.76 177.582 66.1198 178.219 66.121 179.003Z" fill="#A2E6E6"/>
<path id="Vector_131" d="M0.282941 196.846C0.28407 197.631 0.92603 198.265 1.7168 198.264C2.50757 198.263 3.1477 197.626 3.14657 196.842C3.14545 196.058 2.50349 195.423 1.71271 195.424C0.921944 195.426 0.281813 196.062 0.282941 196.846Z" fill="#A2E6E6"/>
<path id="Vector_132" d="M16.7488 196.822C16.7499 197.607 17.3919 198.241 18.1826 198.24C18.9734 198.239 19.6135 197.602 19.6124 196.818C19.6113 196.034 18.9693 195.399 18.1785 195.4C17.3878 195.402 16.7476 196.038 16.7488 196.822Z" fill="#A2E6E6"/>
<path id="Vector_133" d="M33.2147 196.799C33.2158 197.583 33.8578 198.217 34.6486 198.216C35.4393 198.215 36.0795 197.579 36.0783 196.794C36.0772 196.01 35.4352 195.375 34.6445 195.377C33.8537 195.378 33.2136 196.014 33.2147 196.799Z" fill="#A2E6E6"/>
<path id="Vector_134" d="M49.6805 196.775C49.6817 197.559 50.3236 198.194 51.1144 198.193C51.9052 198.192 52.5453 197.555 52.5442 196.771C52.543 195.987 51.9011 195.352 51.1103 195.353C50.3195 195.354 49.6794 195.991 49.6805 196.775Z" fill="#A2E6E6"/>
<path id="Vector_135" d="M66.1465 196.751C66.1476 197.535 66.7896 198.17 67.5803 198.169C68.3711 198.168 69.0112 197.531 69.0101 196.747C69.009 195.963 68.367 195.328 67.5762 195.329C66.7855 195.33 66.1453 195.967 66.1465 196.751Z" fill="#A2E6E6"/>
<path id="Vector_136" d="M0.308454 214.594C0.309582 215.379 0.951543 216.013 1.74231 216.012C2.53308 216.011 3.17321 215.374 3.17209 214.59C3.17096 213.806 2.529 213.171 1.73823 213.172C0.947457 213.174 0.307326 213.81 0.308454 214.594Z" fill="#A2E6E6"/>
<path id="Vector_137" d="M16.7743 214.571C16.7754 215.355 17.4174 215.99 18.2081 215.989C18.9989 215.988 19.639 215.351 19.6379 214.567C19.6368 213.783 18.9948 213.148 18.204 213.149C17.4133 213.15 16.7731 213.787 16.7743 214.571Z" fill="#A2E6E6"/>
<path id="Vector_138" d="M33.2402 214.547C33.2413 215.331 33.8833 215.966 34.6741 215.965C35.4648 215.964 36.105 215.327 36.1038 214.543C36.1027 213.759 35.4608 213.124 34.67 213.125C33.8792 213.126 33.2391 213.763 33.2402 214.547Z" fill="#A2E6E6"/>
<path id="Vector_139" d="M49.7062 214.524C49.7073 215.308 50.3492 215.943 51.14 215.941C51.9308 215.94 52.5709 215.304 52.5698 214.519C52.5687 213.735 51.9267 213.101 51.1359 213.102C50.3452 213.103 49.705 213.739 49.7062 214.524Z" fill="#A2E6E6"/>
<path id="Vector_140" d="M66.172 214.5C66.1731 215.284 66.8151 215.919 67.6058 215.917C68.3966 215.916 69.0367 215.28 69.0356 214.496C69.0345 213.711 68.3925 213.077 67.6018 213.078C66.811 213.079 66.1709 213.716 66.172 214.5Z" fill="#A2E6E6"/>
<path id="Vector_141" d="M0.333967 232.343C0.335095 233.127 0.977055 233.762 1.76783 233.761C2.5586 233.76 3.19873 233.123 3.1976 232.339C3.19647 231.555 2.55451 230.92 1.76374 230.921C0.97297 230.922 0.332839 231.559 0.333967 232.343Z" fill="#A2E6E6"/>
<path id="Vector_142" d="M16.7999 232.32C16.801 233.104 17.443 233.738 18.2338 233.737C19.0245 233.736 19.6647 233.1 19.6635 232.315C19.6624 231.531 19.0205 230.896 18.2297 230.898C17.4389 230.899 16.7988 231.535 16.7999 232.32Z" fill="#A2E6E6"/>
<path id="Vector_143" d="M33.2657 232.296C33.2669 233.08 33.9088 233.715 34.6996 233.713C35.4904 233.712 36.1305 233.076 36.1294 232.291C36.1282 231.507 35.4863 230.873 34.6955 230.874C33.9047 230.875 33.2646 231.511 33.2657 232.296Z" fill="#A2E6E6"/>
<path id="Vector_144" d="M49.7317 232.272C49.7328 233.056 50.3748 233.691 51.1655 233.69C51.9563 233.689 52.5964 233.052 52.5953 232.268C52.5942 231.484 51.9522 230.849 51.1614 230.85C50.3707 230.851 49.7305 231.488 49.7317 232.272Z" fill="#A2E6E6"/>
<path id="Vector_145" d="M66.1975 232.248C66.1986 233.032 66.8406 233.667 67.6314 233.666C68.4221 233.665 69.0623 233.028 69.0611 232.244C69.06 231.46 68.418 230.825 67.6273 230.826C66.8365 230.827 66.1964 231.464 66.1975 232.248Z" fill="#A2E6E6"/>
<path id="Vector_146" d="M0.35948 250.091C0.360608 250.876 1.00257 251.51 1.79334 251.509C2.58411 251.508 3.22424 250.872 3.22311 250.087C3.22198 249.303 2.58002 248.668 1.78925 248.67C0.998483 248.671 0.358351 249.307 0.35948 250.091Z" fill="#A2E6E6"/>
<path id="Vector_147" d="M16.8254 250.068C16.8266 250.852 17.4685 251.487 18.2593 251.485C19.0501 251.484 19.6902 250.848 19.6891 250.063C19.6879 249.279 19.046 248.644 18.2552 248.646C17.4644 248.647 16.8243 249.283 16.8254 250.068Z" fill="#A2E6E6"/>
<path id="Vector_148" d="M33.2912 250.044C33.2924 250.828 33.9343 251.463 34.7251 251.462C35.5159 251.461 36.156 250.824 36.1549 250.04C36.1537 249.256 35.5118 248.621 34.721 248.622C33.9302 248.623 33.2901 249.26 33.2912 250.044Z" fill="#A2E6E6"/>
<path id="Vector_149" d="M49.7572 250.02C49.7583 250.804 50.4003 251.439 51.191 251.438C51.9818 251.437 52.6219 250.8 52.6208 250.016C52.6197 249.232 51.9777 248.597 51.187 248.598C50.3962 248.599 49.7561 249.236 49.7572 250.02Z" fill="#A2E6E6"/>
<path id="Vector_150" d="M66.223 249.997C66.2241 250.781 66.8661 251.416 67.6569 251.415C68.4476 251.413 69.0878 250.777 69.0866 249.993C69.0855 249.208 68.4435 248.574 67.6528 248.575C66.862 248.576 66.2219 249.213 66.223 249.997Z" fill="#A2E6E6"/>
</g>
</g>
</g>
</svg>
