<svg width="406" height="135" viewBox="0 0 406 135" fill="none" xmlns="http://www.w3.org/2000/svg">
<path d="M156.101 68.7272C156.886 68.7272 157.521 68.0862 157.521 67.2954C157.521 66.5046 156.886 65.8636 156.101 65.8636C155.317 65.8636 154.682 66.5046 154.682 67.2954C154.682 68.0862 155.317 68.7272 156.101 68.7272Z" fill="#A2E6E6"/>
<path d="M156.101 52.2613C156.886 52.2613 157.521 51.6203 157.521 50.8295C157.521 50.0388 156.886 49.3977 156.101 49.3977C155.317 49.3977 154.682 50.0388 154.682 50.8295C154.682 51.6203 155.317 52.2613 156.101 52.2613Z" fill="#A2E6E6"/>
<path d="M156.101 35.7955C156.886 35.7955 157.521 35.1544 157.521 34.3636C157.521 33.5729 156.886 32.9318 156.101 32.9318C155.317 32.9318 154.682 33.5729 154.682 34.3636C154.682 35.1544 155.317 35.7955 156.101 35.7955Z" fill="#A2E6E6"/>
<path d="M156.101 19.3295C156.886 19.3295 157.521 18.6885 157.521 17.8977C157.521 17.1069 156.886 16.4659 156.101 16.4659C155.317 16.4659 154.682 17.1069 154.682 17.8977C154.682 18.6885 155.317 19.3295 156.101 19.3295Z" fill="#A2E6E6"/>
<path d="M156.101 2.86364C156.886 2.86364 157.521 2.22259 157.521 1.43182C157.521 0.641047 156.886 0 156.101 0C155.317 0 154.682 0.641047 154.682 1.43182C154.682 2.22259 155.317 2.86364 156.101 2.86364Z" fill="#A2E6E6"/>
<path d="M173.85 68.7272C174.634 68.7272 175.27 68.0862 175.27 67.2954C175.27 66.5046 174.634 65.8636 173.85 65.8636C173.066 65.8636 172.43 66.5046 172.43 67.2954C172.43 68.0862 173.066 68.7272 173.85 68.7272Z" fill="#A2E6E6"/>
<path d="M173.85 52.2613C174.634 52.2613 175.27 51.6203 175.27 50.8295C175.27 50.0388 174.634 49.3977 173.85 49.3977C173.066 49.3977 172.43 50.0388 172.43 50.8295C172.43 51.6203 173.066 52.2613 173.85 52.2613Z" fill="#A2E6E6"/>
<path d="M173.85 35.7955C174.634 35.7955 175.27 35.1544 175.27 34.3636C175.27 33.5729 174.634 32.9318 173.85 32.9318C173.066 32.9318 172.43 33.5729 172.43 34.3636C172.43 35.1544 173.066 35.7955 173.85 35.7955Z" fill="#A2E6E6"/>
<path d="M173.85 19.3295C174.634 19.3295 175.27 18.6885 175.27 17.8977C175.27 17.1069 174.634 16.4659 173.85 16.4659C173.066 16.4659 172.43 17.1069 172.43 17.8977C172.43 18.6885 173.066 19.3295 173.85 19.3295Z" fill="#A2E6E6"/>
<path d="M173.85 2.86364C174.634 2.86364 175.27 2.22259 175.27 1.43182C175.27 0.641047 174.634 0 173.85 0C173.066 0 172.43 0.641047 172.43 1.43182C172.43 2.22259 173.066 2.86364 173.85 2.86364Z" fill="#A2E6E6"/>
<path d="M191.598 68.7272C192.383 68.7272 193.018 68.0862 193.018 67.2954C193.018 66.5046 192.383 65.8636 191.598 65.8636C190.814 65.8636 190.178 66.5046 190.178 67.2954C190.178 68.0862 190.814 68.7272 191.598 68.7272Z" fill="#A2E6E6"/>
<path d="M191.598 52.2613C192.383 52.2613 193.018 51.6203 193.018 50.8295C193.018 50.0388 192.383 49.3977 191.598 49.3977C190.814 49.3977 190.178 50.0388 190.178 50.8295C190.178 51.6203 190.814 52.2613 191.598 52.2613Z" fill="#A2E6E6"/>
<path d="M191.598 35.7955C192.383 35.7955 193.018 35.1544 193.018 34.3636C193.018 33.5729 192.383 32.9318 191.598 32.9318C190.814 32.9318 190.178 33.5729 190.178 34.3636C190.178 35.1544 190.814 35.7955 191.598 35.7955Z" fill="#A2E6E6"/>
<path d="M191.598 19.3295C192.383 19.3295 193.018 18.6885 193.018 17.8977C193.018 17.1069 192.383 16.4659 191.598 16.4659C190.814 16.4659 190.178 17.1069 190.178 17.8977C190.178 18.6885 190.814 19.3295 191.598 19.3295Z" fill="#A2E6E6"/>
<path d="M191.598 2.86364C192.383 2.86364 193.018 2.22259 193.018 1.43182C193.018 0.641047 192.383 0 191.598 0C190.814 0 190.178 0.641047 190.178 1.43182C190.178 2.22259 190.814 2.86364 191.598 2.86364Z" fill="#A2E6E6"/>
<path d="M209.347 68.7272C210.131 68.7272 210.767 68.0862 210.767 67.2954C210.767 66.5046 210.131 65.8636 209.347 65.8636C208.563 65.8636 207.927 66.5046 207.927 67.2954C207.927 68.0862 208.563 68.7272 209.347 68.7272Z" fill="#A2E6E6"/>
<path d="M209.347 52.2613C210.131 52.2613 210.767 51.6203 210.767 50.8295C210.767 50.0388 210.131 49.3977 209.347 49.3977C208.563 49.3977 207.927 50.0388 207.927 50.8295C207.927 51.6203 208.563 52.2613 209.347 52.2613Z" fill="#A2E6E6"/>
<path d="M209.347 35.7955C210.131 35.7955 210.767 35.1544 210.767 34.3636C210.767 33.5729 210.131 32.9318 209.347 32.9318C208.563 32.9318 207.927 33.5729 207.927 34.3636C207.927 35.1544 208.563 35.7955 209.347 35.7955Z" fill="#A2E6E6"/>
<path d="M209.347 19.3295C210.131 19.3295 210.767 18.6885 210.767 17.8977C210.767 17.1069 210.131 16.4659 209.347 16.4659C208.563 16.4659 207.927 17.1069 207.927 17.8977C207.927 18.6885 208.563 19.3295 209.347 19.3295Z" fill="#A2E6E6"/>
<path d="M209.347 2.86364C210.131 2.86364 210.767 2.22259 210.767 1.43182C210.767 0.641047 210.131 0 209.347 0C208.563 0 207.927 0.641047 207.927 1.43182C207.927 2.22259 208.563 2.86364 209.347 2.86364Z" fill="#A2E6E6"/>
<path d="M227.095 68.7272C227.879 68.7272 228.515 68.0862 228.515 67.2954C228.515 66.5046 227.879 65.8636 227.095 65.8636C226.311 65.8636 225.675 66.5046 225.675 67.2954C225.675 68.0862 226.311 68.7272 227.095 68.7272Z" fill="#A2E6E6"/>
<path d="M227.095 52.2613C227.879 52.2613 228.515 51.6203 228.515 50.8295C228.515 50.0388 227.879 49.3977 227.095 49.3977C226.311 49.3977 225.675 50.0388 225.675 50.8295C225.675 51.6203 226.311 52.2613 227.095 52.2613Z" fill="#A2E6E6"/>
<path d="M227.095 35.7955C227.879 35.7955 228.515 35.1544 228.515 34.3636C228.515 33.5729 227.879 32.9318 227.095 32.9318C226.311 32.9318 225.675 33.5729 225.675 34.3636C225.675 35.1544 226.311 35.7955 227.095 35.7955Z" fill="#A2E6E6"/>
<path d="M227.095 19.3295C227.879 19.3295 228.515 18.6885 228.515 17.8977C228.515 17.1069 227.879 16.4659 227.095 16.4659C226.311 16.4659 225.675 17.1069 225.675 17.8977C225.675 18.6885 226.311 19.3295 227.095 19.3295Z" fill="#A2E6E6"/>
<path d="M227.095 2.86364C227.879 2.86364 228.515 2.22259 228.515 1.43182C228.515 0.641047 227.879 0 227.095 0C226.311 0 225.675 0.641047 225.675 1.43182C225.675 2.22259 226.311 2.86364 227.095 2.86364Z" fill="#A2E6E6"/>
<path d="M244.844 68.7272C245.628 68.7272 246.264 68.0862 246.264 67.2954C246.264 66.5046 245.628 65.8636 244.844 65.8636C244.06 65.8636 243.424 66.5046 243.424 67.2954C243.424 68.0862 244.06 68.7272 244.844 68.7272Z" fill="#A2E6E6"/>
<path d="M244.844 52.2613C245.628 52.2613 246.264 51.6203 246.264 50.8295C246.264 50.0388 245.628 49.3977 244.844 49.3977C244.06 49.3977 243.424 50.0388 243.424 50.8295C243.424 51.6203 244.06 52.2613 244.844 52.2613Z" fill="#A2E6E6"/>
<path d="M244.844 35.7955C245.628 35.7955 246.264 35.1544 246.264 34.3636C246.264 33.5729 245.628 32.9318 244.844 32.9318C244.06 32.9318 243.424 33.5729 243.424 34.3636C243.424 35.1544 244.06 35.7955 244.844 35.7955Z" fill="#A2E6E6"/>
<path d="M244.844 19.3295C245.628 19.3295 246.264 18.6885 246.264 17.8977C246.264 17.1069 245.628 16.4659 244.844 16.4659C244.06 16.4659 243.424 17.1069 243.424 17.8977C243.424 18.6885 244.06 19.3295 244.844 19.3295Z" fill="#A2E6E6"/>
<path d="M244.844 2.86364C245.628 2.86364 246.264 2.22259 246.264 1.43182C246.264 0.641047 245.628 0 244.844 0C244.06 0 243.424 0.641047 243.424 1.43182C243.424 2.22259 244.06 2.86364 244.844 2.86364Z" fill="#A2E6E6"/>
<path d="M262.592 68.7272C263.376 68.7272 264.012 68.0862 264.012 67.2954C264.012 66.5046 263.376 65.8636 262.592 65.8636C261.808 65.8636 261.172 66.5046 261.172 67.2954C261.172 68.0862 261.808 68.7272 262.592 68.7272Z" fill="#A2E6E6"/>
<path d="M262.592 52.2613C263.376 52.2613 264.012 51.6203 264.012 50.8295C264.012 50.0388 263.376 49.3977 262.592 49.3977C261.808 49.3977 261.172 50.0388 261.172 50.8295C261.172 51.6203 261.808 52.2613 262.592 52.2613Z" fill="#A2E6E6"/>
<path d="M262.592 35.7955C263.376 35.7955 264.012 35.1544 264.012 34.3636C264.012 33.5729 263.376 32.9318 262.592 32.9318C261.808 32.9318 261.172 33.5729 261.172 34.3636C261.172 35.1544 261.808 35.7955 262.592 35.7955Z" fill="#A2E6E6"/>
<path d="M262.592 19.3295C263.376 19.3295 264.012 18.6885 264.012 17.8977C264.012 17.1069 263.376 16.4659 262.592 16.4659C261.808 16.4659 261.172 17.1069 261.172 17.8977C261.172 18.6885 261.808 19.3295 262.592 19.3295Z" fill="#A2E6E6"/>
<path d="M262.592 2.86364C263.376 2.86364 264.012 2.22259 264.012 1.43182C264.012 0.641047 263.376 0 262.592 0C261.808 0 261.172 0.641047 261.172 1.43182C261.172 2.22259 261.808 2.86364 262.592 2.86364Z" fill="#A2E6E6"/>
<path d="M280.341 68.7272C281.125 68.7272 281.761 68.0862 281.761 67.2954C281.761 66.5046 281.125 65.8636 280.341 65.8636C279.557 65.8636 278.921 66.5046 278.921 67.2954C278.921 68.0862 279.557 68.7272 280.341 68.7272Z" fill="#A2E6E6"/>
<path d="M280.341 52.2613C281.125 52.2613 281.761 51.6203 281.761 50.8295C281.761 50.0388 281.125 49.3977 280.341 49.3977C279.557 49.3977 278.921 50.0388 278.921 50.8295C278.921 51.6203 279.557 52.2613 280.341 52.2613Z" fill="#A2E6E6"/>
<path d="M280.341 35.7955C281.125 35.7955 281.761 35.1544 281.761 34.3636C281.761 33.5729 281.125 32.9318 280.341 32.9318C279.557 32.9318 278.921 33.5729 278.921 34.3636C278.921 35.1544 279.557 35.7955 280.341 35.7955Z" fill="#A2E6E6"/>
<path d="M280.341 19.3295C281.125 19.3295 281.761 18.6885 281.761 17.8977C281.761 17.1069 281.125 16.4659 280.341 16.4659C279.557 16.4659 278.921 17.1069 278.921 17.8977C278.921 18.6885 279.557 19.3295 280.341 19.3295Z" fill="#A2E6E6"/>
<path d="M280.341 2.86364C281.125 2.86364 281.761 2.22259 281.761 1.43182C281.761 0.641047 281.125 0 280.341 0C279.557 0 278.921 0.641047 278.921 1.43182C278.921 2.22259 279.557 2.86364 280.341 2.86364Z" fill="#A2E6E6"/>
<path d="M298.089 68.7272C298.873 68.7272 299.509 68.0862 299.509 67.2954C299.509 66.5046 298.873 65.8636 298.089 65.8636C297.305 65.8636 296.669 66.5046 296.669 67.2954C296.669 68.0862 297.305 68.7272 298.089 68.7272Z" fill="#A2E6E6"/>
<path d="M298.089 52.2613C298.873 52.2613 299.509 51.6203 299.509 50.8295C299.509 50.0388 298.873 49.3977 298.089 49.3977C297.305 49.3977 296.669 50.0388 296.669 50.8295C296.669 51.6203 297.305 52.2613 298.089 52.2613Z" fill="#A2E6E6"/>
<path d="M298.089 35.7955C298.873 35.7955 299.509 35.1544 299.509 34.3636C299.509 33.5729 298.873 32.9318 298.089 32.9318C297.305 32.9318 296.669 33.5729 296.669 34.3636C296.669 35.1544 297.305 35.7955 298.089 35.7955Z" fill="#A2E6E6"/>
<path d="M298.089 19.3295C298.873 19.3295 299.509 18.6885 299.509 17.8977C299.509 17.1069 298.873 16.4659 298.089 16.4659C297.305 16.4659 296.669 17.1069 296.669 17.8977C296.669 18.6885 297.305 19.3295 298.089 19.3295Z" fill="#A2E6E6"/>
<path d="M298.089 2.86364C298.873 2.86364 299.509 2.22259 299.509 1.43182C299.509 0.641047 298.873 0 298.089 0C297.305 0 296.669 0.641047 296.669 1.43182C296.669 2.22259 297.305 2.86364 298.089 2.86364Z" fill="#A2E6E6"/>
<path d="M315.838 68.7272C316.622 68.7272 317.258 68.0862 317.258 67.2954C317.258 66.5046 316.622 65.8636 315.838 65.8636C315.054 65.8636 314.418 66.5046 314.418 67.2954C314.418 68.0862 315.054 68.7272 315.838 68.7272Z" fill="#A2E6E6"/>
<path d="M315.838 52.2613C316.622 52.2613 317.258 51.6203 317.258 50.8295C317.258 50.0388 316.622 49.3977 315.838 49.3977C315.054 49.3977 314.418 50.0388 314.418 50.8295C314.418 51.6203 315.054 52.2613 315.838 52.2613Z" fill="#A2E6E6"/>
<path d="M315.838 35.7955C316.622 35.7955 317.258 35.1544 317.258 34.3636C317.258 33.5729 316.622 32.9318 315.838 32.9318C315.054 32.9318 314.418 33.5729 314.418 34.3636C314.418 35.1544 315.054 35.7955 315.838 35.7955Z" fill="#A2E6E6"/>
<path d="M315.838 19.3295C316.622 19.3295 317.258 18.6885 317.258 17.8977C317.258 17.1069 316.622 16.4659 315.838 16.4659C315.054 16.4659 314.418 17.1069 314.418 17.8977C314.418 18.6885 315.054 19.3295 315.838 19.3295Z" fill="#A2E6E6"/>
<path d="M315.838 2.86364C316.622 2.86364 317.258 2.22259 317.258 1.43182C317.258 0.641047 316.622 0 315.838 0C315.054 0 314.418 0.641047 314.418 1.43182C314.418 2.22259 315.054 2.86364 315.838 2.86364Z" fill="#A2E6E6"/>
<path d="M333.586 68.7272C334.37 68.7272 335.006 68.0862 335.006 67.2954C335.006 66.5046 334.37 65.8636 333.586 65.8636C332.802 65.8636 332.166 66.5046 332.166 67.2954C332.166 68.0862 332.802 68.7272 333.586 68.7272Z" fill="#A2E6E6"/>
<path d="M333.586 52.2613C334.37 52.2613 335.006 51.6203 335.006 50.8295C335.006 50.0388 334.37 49.3977 333.586 49.3977C332.802 49.3977 332.166 50.0388 332.166 50.8295C332.166 51.6203 332.802 52.2613 333.586 52.2613Z" fill="#A2E6E6"/>
<path d="M333.586 35.7955C334.37 35.7955 335.006 35.1544 335.006 34.3636C335.006 33.5729 334.37 32.9318 333.586 32.9318C332.802 32.9318 332.166 33.5729 332.166 34.3636C332.166 35.1544 332.802 35.7955 333.586 35.7955Z" fill="#A2E6E6"/>
<path d="M333.586 19.3295C334.37 19.3295 335.006 18.6885 335.006 17.8977C335.006 17.1069 334.37 16.4659 333.586 16.4659C332.802 16.4659 332.166 17.1069 332.166 17.8977C332.166 18.6885 332.802 19.3295 333.586 19.3295Z" fill="#A2E6E6"/>
<path d="M333.586 2.86364C334.37 2.86364 335.006 2.22259 335.006 1.43182C335.006 0.641047 334.37 0 333.586 0C332.802 0 332.166 0.641047 332.166 1.43182C332.166 2.22259 332.802 2.86364 333.586 2.86364Z" fill="#A2E6E6"/>
<path d="M351.335 68.7272C352.119 68.7272 352.755 68.0862 352.755 67.2954C352.755 66.5046 352.119 65.8636 351.335 65.8636C350.55 65.8636 349.915 66.5046 349.915 67.2954C349.915 68.0862 350.55 68.7272 351.335 68.7272Z" fill="#A2E6E6"/>
<path d="M351.335 52.2613C352.119 52.2613 352.755 51.6203 352.755 50.8295C352.755 50.0388 352.119 49.3977 351.335 49.3977C350.55 49.3977 349.915 50.0388 349.915 50.8295C349.915 51.6203 350.55 52.2613 351.335 52.2613Z" fill="#A2E6E6"/>
<path d="M351.335 35.7955C352.119 35.7955 352.755 35.1544 352.755 34.3636C352.755 33.5729 352.119 32.9318 351.335 32.9318C350.55 32.9318 349.915 33.5729 349.915 34.3636C349.915 35.1544 350.55 35.7955 351.335 35.7955Z" fill="#A2E6E6"/>
<path d="M351.335 19.3295C352.119 19.3295 352.755 18.6885 352.755 17.8977C352.755 17.1069 352.119 16.4659 351.335 16.4659C350.55 16.4659 349.915 17.1069 349.915 17.8977C349.915 18.6885 350.55 19.3295 351.335 19.3295Z" fill="#A2E6E6"/>
<path d="M351.335 2.86364C352.119 2.86364 352.755 2.22259 352.755 1.43182C352.755 0.641047 352.119 0 351.335 0C350.551 0 349.915 0.641047 349.915 1.43182C349.915 2.22259 350.551 2.86364 351.335 2.86364Z" fill="#A2E6E6"/>
<path d="M369.083 68.7272C369.867 68.7272 370.503 68.0862 370.503 67.2954C370.503 66.5046 369.867 65.8636 369.083 65.8636C368.299 65.8636 367.663 66.5046 367.663 67.2954C367.663 68.0862 368.299 68.7272 369.083 68.7272Z" fill="#A2E6E6"/>
<path d="M369.083 52.2613C369.867 52.2613 370.503 51.6203 370.503 50.8295C370.503 50.0388 369.867 49.3977 369.083 49.3977C368.299 49.3977 367.663 50.0388 367.663 50.8295C367.663 51.6203 368.299 52.2613 369.083 52.2613Z" fill="#A2E6E6"/>
<path d="M369.083 35.7955C369.867 35.7955 370.503 35.1544 370.503 34.3636C370.503 33.5729 369.867 32.9318 369.083 32.9318C368.299 32.9318 367.663 33.5729 367.663 34.3636C367.663 35.1544 368.299 35.7955 369.083 35.7955Z" fill="#A2E6E6"/>
<path d="M369.083 19.3295C369.867 19.3295 370.503 18.6885 370.503 17.8977C370.503 17.1069 369.867 16.4659 369.083 16.4659C368.299 16.4659 367.663 17.1069 367.663 17.8977C367.663 18.6885 368.299 19.3295 369.083 19.3295Z" fill="#A2E6E6"/>
<path d="M369.083 2.86364C369.867 2.86364 370.503 2.22259 370.503 1.43182C370.503 0.641047 369.867 0 369.083 0C368.299 0 367.663 0.641047 367.663 1.43182C367.663 2.22259 368.299 2.86364 369.083 2.86364Z" fill="#A2E6E6"/>
<path d="M386.832 68.7272C387.616 68.7272 388.251 68.0862 388.251 67.2954C388.251 66.5046 387.616 65.8636 386.832 65.8636C386.047 65.8636 385.412 66.5046 385.412 67.2954C385.412 68.0862 386.047 68.7272 386.832 68.7272Z" fill="#A2E6E6"/>
<path d="M386.832 52.2613C387.616 52.2613 388.251 51.6203 388.251 50.8295C388.251 50.0388 387.616 49.3977 386.832 49.3977C386.047 49.3977 385.412 50.0388 385.412 50.8295C385.412 51.6203 386.047 52.2613 386.832 52.2613Z" fill="#A2E6E6"/>
<path d="M386.832 35.7955C387.616 35.7955 388.251 35.1544 388.251 34.3636C388.251 33.5729 387.616 32.9318 386.832 32.9318C386.047 32.9318 385.412 33.5729 385.412 34.3636C385.412 35.1544 386.047 35.7955 386.832 35.7955Z" fill="#A2E6E6"/>
<path d="M386.832 19.3295C387.616 19.3295 388.251 18.6885 388.251 17.8977C388.251 17.1069 387.616 16.4659 386.832 16.4659C386.047 16.4659 385.412 17.1069 385.412 17.8977C385.412 18.6885 386.047 19.3295 386.832 19.3295Z" fill="#A2E6E6"/>
<path d="M386.832 2.86364C387.616 2.86364 388.252 2.22259 388.252 1.43182C388.252 0.641047 387.616 0 386.832 0C386.047 0 385.412 0.641047 385.412 1.43182C385.412 2.22259 386.047 2.86364 386.832 2.86364Z" fill="#A2E6E6"/>
<path d="M404.58 68.7272C405.364 68.7272 406 68.0862 406 67.2954C406 66.5046 405.364 65.8636 404.58 65.8636C403.796 65.8636 403.16 66.5046 403.16 67.2954C403.16 68.0862 403.796 68.7272 404.58 68.7272Z" fill="#A2E6E6"/>
<path d="M404.58 52.2613C405.364 52.2613 406 51.6203 406 50.8295C406 50.0388 405.364 49.3977 404.58 49.3977C403.796 49.3977 403.16 50.0388 403.16 50.8295C403.16 51.6203 403.796 52.2613 404.58 52.2613Z" fill="#A2E6E6"/>
<path d="M404.58 35.7955C405.364 35.7955 406 35.1544 406 34.3636C406 33.5729 405.364 32.9318 404.58 32.9318C403.796 32.9318 403.16 33.5729 403.16 34.3636C403.16 35.1544 403.796 35.7955 404.58 35.7955Z" fill="#A2E6E6"/>
<path d="M404.58 19.3295C405.364 19.3295 406 18.6885 406 17.8977C406 17.1069 405.364 16.4659 404.58 16.4659C403.796 16.4659 403.16 17.1069 403.16 17.8977C403.16 18.6885 403.796 19.3295 404.58 19.3295Z" fill="#A2E6E6"/>
<path d="M404.58 2.86364C405.364 2.86364 406 2.22259 406 1.43182C406 0.641047 405.364 0 404.58 0C403.796 0 403.16 0.641047 403.16 1.43182C403.16 2.22259 403.796 2.86364 404.58 2.86364Z" fill="#A2E6E6"/>
<path d="M155.696 134.182C156.48 134.182 157.116 133.541 157.116 132.75C157.116 131.959 156.48 131.318 155.696 131.318C154.912 131.318 154.276 131.959 154.276 132.75C154.276 133.541 154.912 134.182 155.696 134.182Z" fill="#A2E6E6"/>
<path d="M155.696 117.716C156.48 117.716 157.116 117.075 157.116 116.284C157.116 115.493 156.48 114.852 155.696 114.852C154.912 114.852 154.276 115.493 154.276 116.284C154.276 117.075 154.912 117.716 155.696 117.716Z" fill="#A2E6E6"/>
<path d="M155.696 101.25C156.48 101.25 157.116 100.609 157.116 99.8182C157.116 99.0274 156.48 98.3864 155.696 98.3864C154.912 98.3864 154.276 99.0274 154.276 99.8182C154.276 100.609 154.912 101.25 155.696 101.25Z" fill="#A2E6E6"/>
<path d="M155.696 84.784C156.48 84.784 157.116 84.143 157.116 83.3522C157.116 82.5615 156.48 81.9204 155.696 81.9204C154.912 81.9204 154.276 82.5615 154.276 83.3522C154.276 84.143 154.912 84.784 155.696 84.784Z" fill="#A2E6E6"/>
<path d="M155.696 68.3182C156.48 68.3182 157.116 67.6771 157.116 66.8863C157.116 66.0956 156.48 65.4545 155.696 65.4545C154.912 65.4545 154.276 66.0956 154.276 66.8863C154.276 67.6771 154.912 68.3182 155.696 68.3182Z" fill="#A2E6E6"/>
<path d="M173.444 134.182C174.228 134.182 174.864 133.541 174.864 132.75C174.864 131.959 174.228 131.318 173.444 131.318C172.66 131.318 172.024 131.959 172.024 132.75C172.024 133.541 172.66 134.182 173.444 134.182Z" fill="#A2E6E6"/>
<path d="M173.444 117.716C174.228 117.716 174.864 117.075 174.864 116.284C174.864 115.493 174.228 114.852 173.444 114.852C172.66 114.852 172.024 115.493 172.024 116.284C172.024 117.075 172.66 117.716 173.444 117.716Z" fill="#A2E6E6"/>
<path d="M173.444 101.25C174.228 101.25 174.864 100.609 174.864 99.8182C174.864 99.0274 174.228 98.3864 173.444 98.3864C172.66 98.3864 172.024 99.0274 172.024 99.8182C172.024 100.609 172.66 101.25 173.444 101.25Z" fill="#A2E6E6"/>
<path d="M173.444 84.784C174.228 84.784 174.864 84.143 174.864 83.3522C174.864 82.5615 174.228 81.9204 173.444 81.9204C172.66 81.9204 172.024 82.5615 172.024 83.3522C172.024 84.143 172.66 84.784 173.444 84.784Z" fill="#A2E6E6"/>
<path d="M173.444 68.3182C174.229 68.3182 174.864 67.6771 174.864 66.8863C174.864 66.0956 174.229 65.4545 173.444 65.4545C172.66 65.4545 172.025 66.0956 172.025 66.8863C172.025 67.6771 172.66 68.3182 173.444 68.3182Z" fill="#A2E6E6"/>
<path d="M191.193 134.182C191.977 134.182 192.613 133.541 192.613 132.75C192.613 131.959 191.977 131.318 191.193 131.318C190.409 131.318 189.773 131.959 189.773 132.75C189.773 133.541 190.409 134.182 191.193 134.182Z" fill="#A2E6E6"/>
<path d="M191.193 117.716C191.977 117.716 192.613 117.075 192.613 116.284C192.613 115.493 191.977 114.852 191.193 114.852C190.409 114.852 189.773 115.493 189.773 116.284C189.773 117.075 190.409 117.716 191.193 117.716Z" fill="#A2E6E6"/>
<path d="M191.193 101.25C191.977 101.25 192.613 100.609 192.613 99.8182C192.613 99.0274 191.977 98.3864 191.193 98.3864C190.409 98.3864 189.773 99.0274 189.773 99.8182C189.773 100.609 190.409 101.25 191.193 101.25Z" fill="#A2E6E6"/>
<path d="M191.193 84.784C191.977 84.784 192.613 84.143 192.613 83.3522C192.613 82.5615 191.977 81.9204 191.193 81.9204C190.409 81.9204 189.773 82.5615 189.773 83.3522C189.773 84.143 190.409 84.784 191.193 84.784Z" fill="#A2E6E6"/>
<path d="M191.193 68.3182C191.977 68.3182 192.613 67.6771 192.613 66.8863C192.613 66.0956 191.977 65.4545 191.193 65.4545C190.409 65.4545 189.773 66.0956 189.773 66.8863C189.773 67.6771 190.409 68.3182 191.193 68.3182Z" fill="#A2E6E6"/>
<path d="M208.941 134.182C209.726 134.182 210.361 133.541 210.361 132.75C210.361 131.959 209.726 131.318 208.941 131.318C208.157 131.318 207.521 131.959 207.521 132.75C207.521 133.541 208.157 134.182 208.941 134.182Z" fill="#A2E6E6"/>
<path d="M208.941 117.716C209.726 117.716 210.361 117.075 210.361 116.284C210.361 115.493 209.726 114.852 208.941 114.852C208.157 114.852 207.521 115.493 207.521 116.284C207.521 117.075 208.157 117.716 208.941 117.716Z" fill="#A2E6E6"/>
<path d="M208.941 101.25C209.726 101.25 210.361 100.609 210.361 99.8182C210.361 99.0274 209.726 98.3864 208.941 98.3864C208.157 98.3864 207.521 99.0274 207.521 99.8182C207.521 100.609 208.157 101.25 208.941 101.25Z" fill="#A2E6E6"/>
<path d="M208.941 84.784C209.726 84.784 210.361 84.143 210.361 83.3522C210.361 82.5615 209.726 81.9204 208.941 81.9204C208.157 81.9204 207.521 82.5615 207.521 83.3522C207.521 84.143 208.157 84.784 208.941 84.784Z" fill="#A2E6E6"/>
<path d="M208.941 68.3182C209.726 68.3182 210.361 67.6771 210.361 66.8863C210.361 66.0956 209.726 65.4545 208.941 65.4545C208.157 65.4545 207.521 66.0956 207.521 66.8863C207.521 67.6771 208.157 68.3182 208.941 68.3182Z" fill="#A2E6E6"/>
<path d="M226.69 134.182C227.474 134.182 228.11 133.541 228.11 132.75C228.11 131.959 227.474 131.318 226.69 131.318C225.906 131.318 225.27 131.959 225.27 132.75C225.27 133.541 225.906 134.182 226.69 134.182Z" fill="#A2E6E6"/>
<path d="M226.69 117.716C227.474 117.716 228.11 117.075 228.11 116.284C228.11 115.493 227.474 114.852 226.69 114.852C225.906 114.852 225.27 115.493 225.27 116.284C225.27 117.075 225.906 117.716 226.69 117.716Z" fill="#A2E6E6"/>
<path d="M226.69 101.25C227.474 101.25 228.11 100.609 228.11 99.8182C228.11 99.0274 227.474 98.3864 226.69 98.3864C225.906 98.3864 225.27 99.0274 225.27 99.8182C225.27 100.609 225.906 101.25 226.69 101.25Z" fill="#A2E6E6"/>
<path d="M226.69 84.784C227.474 84.784 228.11 84.143 228.11 83.3522C228.11 82.5615 227.474 81.9204 226.69 81.9204C225.906 81.9204 225.27 82.5615 225.27 83.3522C225.27 84.143 225.906 84.784 226.69 84.784Z" fill="#A2E6E6"/>
<path d="M226.69 68.3182C227.474 68.3182 228.11 67.6771 228.11 66.8863C228.11 66.0956 227.474 65.4545 226.69 65.4545C225.906 65.4545 225.27 66.0956 225.27 66.8863C225.27 67.6771 225.906 68.3182 226.69 68.3182Z" fill="#A2E6E6"/>
<path d="M244.438 134.182C245.222 134.182 245.858 133.541 245.858 132.75C245.858 131.959 245.222 131.318 244.438 131.318C243.654 131.318 243.018 131.959 243.018 132.75C243.018 133.541 243.654 134.182 244.438 134.182Z" fill="#A2E6E6"/>
<path d="M244.438 117.716C245.222 117.716 245.858 117.075 245.858 116.284C245.858 115.493 245.222 114.852 244.438 114.852C243.654 114.852 243.018 115.493 243.018 116.284C243.018 117.075 243.654 117.716 244.438 117.716Z" fill="#A2E6E6"/>
<path d="M244.438 101.25C245.222 101.25 245.858 100.609 245.858 99.8182C245.858 99.0274 245.222 98.3864 244.438 98.3864C243.654 98.3864 243.018 99.0274 243.018 99.8182C243.018 100.609 243.654 101.25 244.438 101.25Z" fill="#A2E6E6"/>
<path d="M244.438 84.784C245.222 84.784 245.858 84.143 245.858 83.3522C245.858 82.5615 245.222 81.9204 244.438 81.9204C243.654 81.9204 243.018 82.5615 243.018 83.3522C243.018 84.143 243.654 84.784 244.438 84.784Z" fill="#A2E6E6"/>
<path d="M244.438 68.3182C245.222 68.3182 245.858 67.6771 245.858 66.8863C245.858 66.0956 245.222 65.4545 244.438 65.4545C243.654 65.4545 243.018 66.0956 243.018 66.8863C243.018 67.6771 243.654 68.3182 244.438 68.3182Z" fill="#A2E6E6"/>
<path d="M262.187 134.182C262.971 134.182 263.607 133.541 263.607 132.75C263.607 131.959 262.971 131.318 262.187 131.318C261.403 131.318 260.767 131.959 260.767 132.75C260.767 133.541 261.403 134.182 262.187 134.182Z" fill="#A2E6E6"/>
<path d="M262.187 117.716C262.971 117.716 263.607 117.075 263.607 116.284C263.607 115.493 262.971 114.852 262.187 114.852C261.403 114.852 260.767 115.493 260.767 116.284C260.767 117.075 261.403 117.716 262.187 117.716Z" fill="#A2E6E6"/>
<path d="M262.187 101.25C262.971 101.25 263.607 100.609 263.607 99.8182C263.607 99.0274 262.971 98.3864 262.187 98.3864C261.403 98.3864 260.767 99.0274 260.767 99.8182C260.767 100.609 261.403 101.25 262.187 101.25Z" fill="#A2E6E6"/>
<path d="M262.187 84.784C262.971 84.784 263.607 84.143 263.607 83.3522C263.607 82.5615 262.971 81.9204 262.187 81.9204C261.403 81.9204 260.767 82.5615 260.767 83.3522C260.767 84.143 261.403 84.784 262.187 84.784Z" fill="#A2E6E6"/>
<path d="M262.187 68.3182C262.971 68.3182 263.607 67.6771 263.607 66.8863C263.607 66.0956 262.971 65.4545 262.187 65.4545C261.403 65.4545 260.767 66.0956 260.767 66.8863C260.767 67.6771 261.403 68.3182 262.187 68.3182Z" fill="#A2E6E6"/>
<path d="M279.935 134.182C280.719 134.182 281.355 133.541 281.355 132.75C281.355 131.959 280.719 131.318 279.935 131.318C279.151 131.318 278.515 131.959 278.515 132.75C278.515 133.541 279.151 134.182 279.935 134.182Z" fill="#A2E6E6"/>
<path d="M279.935 117.716C280.719 117.716 281.355 117.075 281.355 116.284C281.355 115.493 280.719 114.852 279.935 114.852C279.151 114.852 278.515 115.493 278.515 116.284C278.515 117.075 279.151 117.716 279.935 117.716Z" fill="#A2E6E6"/>
<path d="M279.935 101.25C280.719 101.25 281.355 100.609 281.355 99.8182C281.355 99.0274 280.719 98.3864 279.935 98.3864C279.151 98.3864 278.515 99.0274 278.515 99.8182C278.515 100.609 279.151 101.25 279.935 101.25Z" fill="#A2E6E6"/>
<path d="M279.935 84.784C280.719 84.784 281.355 84.143 281.355 83.3522C281.355 82.5615 280.719 81.9204 279.935 81.9204C279.151 81.9204 278.515 82.5615 278.515 83.3522C278.515 84.143 279.151 84.784 279.935 84.784Z" fill="#A2E6E6"/>
<path d="M279.935 68.3182C280.719 68.3182 281.355 67.6771 281.355 66.8863C281.355 66.0956 280.719 65.4545 279.935 65.4545C279.151 65.4545 278.515 66.0956 278.515 66.8863C278.515 67.6771 279.151 68.3182 279.935 68.3182Z" fill="#A2E6E6"/>
<path d="M297.684 134.182C298.468 134.182 299.104 133.541 299.104 132.75C299.104 131.959 298.468 131.318 297.684 131.318C296.9 131.318 296.264 131.959 296.264 132.75C296.264 133.541 296.9 134.182 297.684 134.182Z" fill="#A2E6E6"/>
<path d="M297.684 117.716C298.468 117.716 299.104 117.075 299.104 116.284C299.104 115.493 298.468 114.852 297.684 114.852C296.9 114.852 296.264 115.493 296.264 116.284C296.264 117.075 296.9 117.716 297.684 117.716Z" fill="#A2E6E6"/>
<path d="M297.684 101.25C298.468 101.25 299.104 100.609 299.104 99.8182C299.104 99.0274 298.468 98.3864 297.684 98.3864C296.9 98.3864 296.264 99.0274 296.264 99.8182C296.264 100.609 296.9 101.25 297.684 101.25Z" fill="#A2E6E6"/>
<path d="M297.684 84.784C298.468 84.784 299.104 84.143 299.104 83.3522C299.104 82.5615 298.468 81.9204 297.684 81.9204C296.9 81.9204 296.264 82.5615 296.264 83.3522C296.264 84.143 296.9 84.784 297.684 84.784Z" fill="#A2E6E6"/>
<path d="M297.684 68.3182C298.468 68.3182 299.104 67.6771 299.104 66.8863C299.104 66.0956 298.468 65.4545 297.684 65.4545C296.9 65.4545 296.264 66.0956 296.264 66.8863C296.264 67.6771 296.9 68.3182 297.684 68.3182Z" fill="#A2E6E6"/>
<path d="M315.432 134.182C316.216 134.182 316.852 133.541 316.852 132.75C316.852 131.959 316.216 131.318 315.432 131.318C314.648 131.318 314.012 131.959 314.012 132.75C314.012 133.541 314.648 134.182 315.432 134.182Z" fill="#A2E6E6"/>
<path d="M315.432 117.716C316.216 117.716 316.852 117.075 316.852 116.284C316.852 115.493 316.216 114.852 315.432 114.852C314.648 114.852 314.012 115.493 314.012 116.284C314.012 117.075 314.648 117.716 315.432 117.716Z" fill="#A2E6E6"/>
<path d="M315.432 101.25C316.216 101.25 316.852 100.609 316.852 99.8182C316.852 99.0274 316.216 98.3864 315.432 98.3864C314.648 98.3864 314.012 99.0274 314.012 99.8182C314.012 100.609 314.648 101.25 315.432 101.25Z" fill="#A2E6E6"/>
<path d="M315.432 84.784C316.216 84.784 316.852 84.143 316.852 83.3522C316.852 82.5615 316.216 81.9204 315.432 81.9204C314.648 81.9204 314.012 82.5615 314.012 83.3522C314.012 84.143 314.648 84.784 315.432 84.784Z" fill="#A2E6E6"/>
<path d="M315.432 68.3182C316.216 68.3182 316.852 67.6771 316.852 66.8863C316.852 66.0956 316.216 65.4545 315.432 65.4545C314.648 65.4545 314.012 66.0956 314.012 66.8863C314.012 67.6771 314.648 68.3182 315.432 68.3182Z" fill="#A2E6E6"/>
<path d="M333.181 134.182C333.965 134.182 334.601 133.541 334.601 132.75C334.601 131.959 333.965 131.318 333.181 131.318C332.397 131.318 331.761 131.959 331.761 132.75C331.761 133.541 332.397 134.182 333.181 134.182Z" fill="#A2E6E6"/>
<path d="M333.181 117.716C333.965 117.716 334.601 117.075 334.601 116.284C334.601 115.493 333.965 114.852 333.181 114.852C332.397 114.852 331.761 115.493 331.761 116.284C331.761 117.075 332.397 117.716 333.181 117.716Z" fill="#A2E6E6"/>
<path d="M333.181 101.25C333.965 101.25 334.601 100.609 334.601 99.8182C334.601 99.0274 333.965 98.3864 333.181 98.3864C332.397 98.3864 331.761 99.0274 331.761 99.8182C331.761 100.609 332.397 101.25 333.181 101.25Z" fill="#A2E6E6"/>
<path d="M333.181 84.784C333.965 84.784 334.601 84.143 334.601 83.3522C334.601 82.5615 333.965 81.9204 333.181 81.9204C332.397 81.9204 331.761 82.5615 331.761 83.3522C331.761 84.143 332.397 84.784 333.181 84.784Z" fill="#A2E6E6"/>
<path d="M333.181 68.3182C333.965 68.3182 334.601 67.6771 334.601 66.8863C334.601 66.0956 333.965 65.4545 333.181 65.4545C332.397 65.4545 331.761 66.0956 331.761 66.8863C331.761 67.6771 332.397 68.3182 333.181 68.3182Z" fill="#A2E6E6"/>
<path d="M350.929 134.182C351.713 134.182 352.349 133.541 352.349 132.75C352.349 131.959 351.713 131.318 350.929 131.318C350.145 131.318 349.509 131.959 349.509 132.75C349.509 133.541 350.145 134.182 350.929 134.182Z" fill="#A2E6E6"/>
<path d="M350.929 117.716C351.713 117.716 352.349 117.075 352.349 116.284C352.349 115.493 351.713 114.852 350.929 114.852C350.145 114.852 349.509 115.493 349.509 116.284C349.509 117.075 350.145 117.716 350.929 117.716Z" fill="#A2E6E6"/>
<path d="M350.929 101.25C351.713 101.25 352.349 100.609 352.349 99.8182C352.349 99.0274 351.713 98.3864 350.929 98.3864C350.145 98.3864 349.509 99.0274 349.509 99.8182C349.509 100.609 350.145 101.25 350.929 101.25Z" fill="#A2E6E6"/>
<path d="M350.929 84.784C351.713 84.784 352.349 84.143 352.349 83.3522C352.349 82.5615 351.713 81.9204 350.929 81.9204C350.145 81.9204 349.509 82.5615 349.509 83.3522C349.509 84.143 350.145 84.784 350.929 84.784Z" fill="#A2E6E6"/>
<path d="M350.929 68.3182C351.713 68.3182 352.349 67.6771 352.349 66.8863C352.349 66.0956 351.713 65.4545 350.929 65.4545C350.145 65.4545 349.509 66.0956 349.509 66.8863C349.509 67.6771 350.145 68.3182 350.929 68.3182Z" fill="#A2E6E6"/>
<path d="M368.678 134.182C369.462 134.182 370.097 133.541 370.097 132.75C370.097 131.959 369.462 131.318 368.678 131.318C367.893 131.318 367.258 131.959 367.258 132.75C367.258 133.541 367.893 134.182 368.678 134.182Z" fill="#A2E6E6"/>
<path d="M368.678 117.716C369.462 117.716 370.097 117.075 370.097 116.284C370.097 115.493 369.462 114.852 368.678 114.852C367.893 114.852 367.258 115.493 367.258 116.284C367.258 117.075 367.893 117.716 368.678 117.716Z" fill="#A2E6E6"/>
<path d="M368.678 101.25C369.462 101.25 370.097 100.609 370.097 99.8182C370.097 99.0274 369.462 98.3864 368.678 98.3864C367.893 98.3864 367.258 99.0274 367.258 99.8182C367.258 100.609 367.893 101.25 368.678 101.25Z" fill="#A2E6E6"/>
<path d="M368.678 84.784C369.462 84.784 370.097 84.143 370.097 83.3522C370.097 82.5615 369.462 81.9204 368.678 81.9204C367.893 81.9204 367.258 82.5615 367.258 83.3522C367.258 84.143 367.893 84.784 368.678 84.784Z" fill="#A2E6E6"/>
<path d="M368.678 68.3182C369.462 68.3182 370.097 67.6771 370.097 66.8863C370.097 66.0956 369.462 65.4545 368.678 65.4545C367.893 65.4545 367.258 66.0956 367.258 66.8863C367.258 67.6771 367.893 68.3182 368.678 68.3182Z" fill="#A2E6E6"/>
<path d="M386.426 134.182C387.21 134.182 387.846 133.541 387.846 132.75C387.846 131.959 387.21 131.318 386.426 131.318C385.642 131.318 385.006 131.959 385.006 132.75C385.006 133.541 385.642 134.182 386.426 134.182Z" fill="#A2E6E6"/>
<path d="M386.426 117.716C387.21 117.716 387.846 117.075 387.846 116.284C387.846 115.493 387.21 114.852 386.426 114.852C385.642 114.852 385.006 115.493 385.006 116.284C385.006 117.075 385.642 117.716 386.426 117.716Z" fill="#A2E6E6"/>
<path d="M386.426 101.25C387.21 101.25 387.846 100.609 387.846 99.8182C387.846 99.0274 387.21 98.3864 386.426 98.3864C385.642 98.3864 385.006 99.0274 385.006 99.8182C385.006 100.609 385.642 101.25 386.426 101.25Z" fill="#A2E6E6"/>
<path d="M386.426 84.784C387.21 84.784 387.846 84.143 387.846 83.3522C387.846 82.5615 387.21 81.9204 386.426 81.9204C385.642 81.9204 385.006 82.5615 385.006 83.3522C385.006 84.143 385.642 84.784 386.426 84.784Z" fill="#A2E6E6"/>
<path d="M386.426 68.3182C387.21 68.3182 387.846 67.6771 387.846 66.8863C387.846 66.0956 387.21 65.4545 386.426 65.4545C385.642 65.4545 385.006 66.0956 385.006 66.8863C385.006 67.6771 385.642 68.3182 386.426 68.3182Z" fill="#A2E6E6"/>
<path d="M404.175 134.182C404.959 134.182 405.594 133.541 405.594 132.75C405.594 131.959 404.959 131.318 404.175 131.318C403.39 131.318 402.755 131.959 402.755 132.75C402.755 133.541 403.39 134.182 404.175 134.182Z" fill="#A2E6E6"/>
<path d="M404.175 117.716C404.959 117.716 405.594 117.075 405.594 116.284C405.594 115.493 404.959 114.852 404.175 114.852C403.39 114.852 402.755 115.493 402.755 116.284C402.755 117.075 403.39 117.716 404.175 117.716Z" fill="#A2E6E6"/>
<path d="M404.175 101.25C404.959 101.25 405.594 100.609 405.594 99.8182C405.594 99.0274 404.959 98.3864 404.175 98.3864C403.39 98.3864 402.755 99.0274 402.755 99.8182C402.755 100.609 403.39 101.25 404.175 101.25Z" fill="#A2E6E6"/>
<path d="M404.175 84.784C404.959 84.784 405.594 84.143 405.594 83.3522C405.594 82.5615 404.959 81.9204 404.175 81.9204C403.39 81.9204 402.755 82.5615 402.755 83.3522C402.755 84.143 403.39 84.784 404.175 84.784Z" fill="#A2E6E6"/>
<path d="M404.175 68.3182C404.959 68.3182 405.594 67.6771 405.594 66.8863C405.594 66.0956 404.959 65.4545 404.175 65.4545C403.39 65.4545 402.755 66.0956 402.755 66.8863C402.755 67.6771 403.39 68.3182 404.175 68.3182Z" fill="#A2E6E6"/>
<path d="M14.3164 69.5454C15.1005 69.5454 15.7362 68.9044 15.7362 68.1136C15.7362 67.3228 15.1005 66.6818 14.3164 66.6818C13.5322 66.6818 12.8965 67.3228 12.8965 68.1136C12.8965 68.9044 13.5322 69.5454 14.3164 69.5454Z" fill="#A2E6E6"/>
<path d="M14.3164 53.0795C15.1005 53.0795 15.7362 52.4385 15.7362 51.6477C15.7362 50.8569 15.1005 50.2159 14.3164 50.2159C13.5322 50.2159 12.8965 50.8569 12.8965 51.6477C12.8965 52.4385 13.5322 53.0795 14.3164 53.0795Z" fill="#A2E6E6"/>
<path d="M14.3164 36.6136C15.1005 36.6136 15.7362 35.9726 15.7362 35.1818C15.7362 34.391 15.1005 33.75 14.3164 33.75C13.5322 33.75 12.8965 34.391 12.8965 35.1818C12.8965 35.9726 13.5322 36.6136 14.3164 36.6136Z" fill="#A2E6E6"/>
<path d="M14.3164 20.1477C15.1005 20.1477 15.7362 19.5066 15.7362 18.7159C15.7362 17.9251 15.1005 17.2841 14.3164 17.2841C13.5322 17.2841 12.8965 17.9251 12.8965 18.7159C12.8965 19.5066 13.5322 20.1477 14.3164 20.1477Z" fill="#A2E6E6"/>
<path d="M14.3165 3.68181C15.1007 3.68181 15.7364 3.04077 15.7364 2.24999C15.7364 1.45922 15.1007 0.818176 14.3165 0.818176C13.5323 0.818176 12.8966 1.45922 12.8966 2.24999C12.8966 3.04077 13.5323 3.68181 14.3165 3.68181Z" fill="#A2E6E6"/>
<path d="M32.0649 69.5454C32.8491 69.5454 33.4848 68.9044 33.4848 68.1136C33.4848 67.3228 32.8491 66.6818 32.0649 66.6818C31.2807 66.6818 30.645 67.3228 30.645 68.1136C30.645 68.9044 31.2807 69.5454 32.0649 69.5454Z" fill="#A2E6E6"/>
<path d="M32.0649 53.0795C32.8491 53.0795 33.4848 52.4385 33.4848 51.6477C33.4848 50.8569 32.8491 50.2159 32.0649 50.2159C31.2807 50.2159 30.645 50.8569 30.645 51.6477C30.645 52.4385 31.2807 53.0795 32.0649 53.0795Z" fill="#A2E6E6"/>
<path d="M32.0649 36.6136C32.8491 36.6136 33.4848 35.9726 33.4848 35.1818C33.4848 34.391 32.8491 33.75 32.0649 33.75C31.2807 33.75 30.645 34.391 30.645 35.1818C30.645 35.9726 31.2807 36.6136 32.0649 36.6136Z" fill="#A2E6E6"/>
<path d="M32.0649 20.1477C32.8491 20.1477 33.4848 19.5066 33.4848 18.7159C33.4848 17.9251 32.8491 17.2841 32.0649 17.2841C31.2807 17.2841 30.645 17.9251 30.645 18.7159C30.645 19.5066 31.2807 20.1477 32.0649 20.1477Z" fill="#A2E6E6"/>
<path d="M32.0649 3.68181C32.8491 3.68181 33.4848 3.04077 33.4848 2.24999C33.4848 1.45922 32.8491 0.818176 32.0649 0.818176C31.2807 0.818176 30.645 1.45922 30.645 2.24999C30.645 3.04077 31.2807 3.68181 32.0649 3.68181Z" fill="#A2E6E6"/>
<path d="M49.8134 69.5454C50.5976 69.5454 51.2333 68.9044 51.2333 68.1136C51.2333 67.3228 50.5976 66.6818 49.8134 66.6818C49.0293 66.6818 48.3936 67.3228 48.3936 68.1136C48.3936 68.9044 49.0293 69.5454 49.8134 69.5454Z" fill="#A2E6E6"/>
<path d="M49.8134 53.0795C50.5976 53.0795 51.2333 52.4385 51.2333 51.6477C51.2333 50.8569 50.5976 50.2159 49.8134 50.2159C49.0293 50.2159 48.3936 50.8569 48.3936 51.6477C48.3936 52.4385 49.0293 53.0795 49.8134 53.0795Z" fill="#A2E6E6"/>
<path d="M49.8134 36.6136C50.5976 36.6136 51.2333 35.9726 51.2333 35.1818C51.2333 34.391 50.5976 33.75 49.8134 33.75C49.0293 33.75 48.3936 34.391 48.3936 35.1818C48.3936 35.9726 49.0293 36.6136 49.8134 36.6136Z" fill="#A2E6E6"/>
<path d="M49.8134 20.1477C50.5976 20.1477 51.2333 19.5066 51.2333 18.7159C51.2333 17.9251 50.5976 17.2841 49.8134 17.2841C49.0293 17.2841 48.3936 17.9251 48.3936 18.7159C48.3936 19.5066 49.0293 20.1477 49.8134 20.1477Z" fill="#A2E6E6"/>
<path d="M49.8134 3.68181C50.5976 3.68181 51.2333 3.04077 51.2333 2.24999C51.2333 1.45922 50.5976 0.818176 49.8134 0.818176C49.0293 0.818176 48.3936 1.45922 48.3936 2.24999C48.3936 3.04077 49.0293 3.68181 49.8134 3.68181Z" fill="#A2E6E6"/>
<path d="M67.562 69.5454C68.3461 69.5454 68.9818 68.9044 68.9818 68.1136C68.9818 67.3228 68.3461 66.6818 67.562 66.6818C66.7778 66.6818 66.1421 67.3228 66.1421 68.1136C66.1421 68.9044 66.7778 69.5454 67.562 69.5454Z" fill="#A2E6E6"/>
<path d="M67.562 53.0795C68.3461 53.0795 68.9818 52.4385 68.9818 51.6477C68.9818 50.8569 68.3461 50.2159 67.562 50.2159C66.7778 50.2159 66.1421 50.8569 66.1421 51.6477C66.1421 52.4385 66.7778 53.0795 67.562 53.0795Z" fill="#A2E6E6"/>
<path d="M67.562 36.6136C68.3461 36.6136 68.9818 35.9726 68.9818 35.1818C68.9818 34.391 68.3461 33.75 67.562 33.75C66.7778 33.75 66.1421 34.391 66.1421 35.1818C66.1421 35.9726 66.7778 36.6136 67.562 36.6136Z" fill="#A2E6E6"/>
<path d="M67.562 20.1477C68.3461 20.1477 68.9818 19.5066 68.9818 18.7159C68.9818 17.9251 68.3461 17.2841 67.562 17.2841C66.7778 17.2841 66.1421 17.9251 66.1421 18.7159C66.1421 19.5066 66.7778 20.1477 67.562 20.1477Z" fill="#A2E6E6"/>
<path d="M67.5618 3.68181C68.346 3.68181 68.9817 3.04077 68.9817 2.24999C68.9817 1.45922 68.346 0.818176 67.5618 0.818176C66.7777 0.818176 66.142 1.45922 66.142 2.24999C66.142 3.04077 66.7777 3.68181 67.5618 3.68181Z" fill="#A2E6E6"/>
<path d="M85.3103 69.5454C86.0944 69.5454 86.7301 68.9044 86.7301 68.1136C86.7301 67.3228 86.0944 66.6818 85.3103 66.6818C84.5261 66.6818 83.8904 67.3228 83.8904 68.1136C83.8904 68.9044 84.5261 69.5454 85.3103 69.5454Z" fill="#A2E6E6"/>
<path d="M85.3103 53.0795C86.0944 53.0795 86.7301 52.4385 86.7301 51.6477C86.7301 50.8569 86.0944 50.2159 85.3103 50.2159C84.5261 50.2159 83.8904 50.8569 83.8904 51.6477C83.8904 52.4385 84.5261 53.0795 85.3103 53.0795Z" fill="#A2E6E6"/>
<path d="M85.3103 36.6136C86.0944 36.6136 86.7301 35.9726 86.7301 35.1818C86.7301 34.391 86.0944 33.75 85.3103 33.75C84.5261 33.75 83.8904 34.391 83.8904 35.1818C83.8904 35.9726 84.5261 36.6136 85.3103 36.6136Z" fill="#A2E6E6"/>
<path d="M85.3103 20.1477C86.0944 20.1477 86.7301 19.5066 86.7301 18.7159C86.7301 17.9251 86.0944 17.2841 85.3103 17.2841C84.5261 17.2841 83.8904 17.9251 83.8904 18.7159C83.8904 19.5066 84.5261 20.1477 85.3103 20.1477Z" fill="#A2E6E6"/>
<path d="M85.3103 3.68181C86.0944 3.68181 86.7301 3.04077 86.7301 2.24999C86.7301 1.45922 86.0944 0.818176 85.3103 0.818176C84.5261 0.818176 83.8904 1.45922 83.8904 2.24999C83.8904 3.04077 84.5261 3.68181 85.3103 3.68181Z" fill="#A2E6E6"/>
<path d="M103.059 69.5454C103.843 69.5454 104.479 68.9044 104.479 68.1136C104.479 67.3228 103.843 66.6818 103.059 66.6818C102.275 66.6818 101.639 67.3228 101.639 68.1136C101.639 68.9044 102.275 69.5454 103.059 69.5454Z" fill="#A2E6E6"/>
<path d="M103.059 53.0795C103.843 53.0795 104.479 52.4385 104.479 51.6477C104.479 50.8569 103.843 50.2159 103.059 50.2159C102.275 50.2159 101.639 50.8569 101.639 51.6477C101.639 52.4385 102.275 53.0795 103.059 53.0795Z" fill="#A2E6E6"/>
<path d="M103.059 36.6136C103.843 36.6136 104.479 35.9726 104.479 35.1818C104.479 34.391 103.843 33.75 103.059 33.75C102.275 33.75 101.639 34.391 101.639 35.1818C101.639 35.9726 102.275 36.6136 103.059 36.6136Z" fill="#A2E6E6"/>
<path d="M103.059 20.1477C103.843 20.1477 104.479 19.5066 104.479 18.7159C104.479 17.9251 103.843 17.2841 103.059 17.2841C102.275 17.2841 101.639 17.9251 101.639 18.7159C101.639 19.5066 102.275 20.1477 103.059 20.1477Z" fill="#A2E6E6"/>
<path d="M103.059 3.68181C103.843 3.68181 104.479 3.04077 104.479 2.24999C104.479 1.45922 103.843 0.818176 103.059 0.818176C102.275 0.818176 101.639 1.45922 101.639 2.24999C101.639 3.04077 102.275 3.68181 103.059 3.68181Z" fill="#A2E6E6"/>
<path d="M120.807 69.5454C121.591 69.5454 122.227 68.9044 122.227 68.1136C122.227 67.3228 121.591 66.6818 120.807 66.6818C120.023 66.6818 119.387 67.3228 119.387 68.1136C119.387 68.9044 120.023 69.5454 120.807 69.5454Z" fill="#A2E6E6"/>
<path d="M120.807 53.0795C121.591 53.0795 122.227 52.4385 122.227 51.6477C122.227 50.8569 121.591 50.2159 120.807 50.2159C120.023 50.2159 119.387 50.8569 119.387 51.6477C119.387 52.4385 120.023 53.0795 120.807 53.0795Z" fill="#A2E6E6"/>
<path d="M120.807 36.6136C121.591 36.6136 122.227 35.9726 122.227 35.1818C122.227 34.391 121.591 33.75 120.807 33.75C120.023 33.75 119.387 34.391 119.387 35.1818C119.387 35.9726 120.023 36.6136 120.807 36.6136Z" fill="#A2E6E6"/>
<path d="M120.807 20.1477C121.591 20.1477 122.227 19.5066 122.227 18.7159C122.227 17.9251 121.591 17.2841 120.807 17.2841C120.023 17.2841 119.387 17.9251 119.387 18.7159C119.387 19.5066 120.023 20.1477 120.807 20.1477Z" fill="#A2E6E6"/>
<path d="M120.807 3.68181C121.591 3.68181 122.227 3.04077 122.227 2.24999C122.227 1.45922 121.591 0.818176 120.807 0.818176C120.023 0.818176 119.387 1.45922 119.387 2.24999C119.387 3.04077 120.023 3.68181 120.807 3.68181Z" fill="#A2E6E6"/>
<path d="M138.556 69.5454C139.34 69.5454 139.976 68.9044 139.976 68.1136C139.976 67.3228 139.34 66.6818 138.556 66.6818C137.772 66.6818 137.136 67.3228 137.136 68.1136C137.136 68.9044 137.772 69.5454 138.556 69.5454Z" fill="#A2E6E6"/>
<path d="M138.556 53.0795C139.34 53.0795 139.976 52.4385 139.976 51.6477C139.976 50.8569 139.34 50.2159 138.556 50.2159C137.772 50.2159 137.136 50.8569 137.136 51.6477C137.136 52.4385 137.772 53.0795 138.556 53.0795Z" fill="#A2E6E6"/>
<path d="M138.556 36.6136C139.34 36.6136 139.976 35.9726 139.976 35.1818C139.976 34.391 139.34 33.75 138.556 33.75C137.772 33.75 137.136 34.391 137.136 35.1818C137.136 35.9726 137.772 36.6136 138.556 36.6136Z" fill="#A2E6E6"/>
<path d="M138.556 20.1477C139.34 20.1477 139.976 19.5066 139.976 18.7159C139.976 17.9251 139.34 17.2841 138.556 17.2841C137.772 17.2841 137.136 17.9251 137.136 18.7159C137.136 19.5066 137.772 20.1477 138.556 20.1477Z" fill="#A2E6E6"/>
<path d="M138.556 3.68181C139.34 3.68181 139.976 3.04077 139.976 2.24999C139.976 1.45922 139.34 0.818176 138.556 0.818176C137.772 0.818176 137.136 1.45922 137.136 2.24999C137.136 3.04077 137.772 3.68181 138.556 3.68181Z" fill="#A2E6E6"/>
<path d="M156.304 69.5454C157.088 69.5454 157.724 68.9044 157.724 68.1136C157.724 67.3228 157.088 66.6818 156.304 66.6818C155.52 66.6818 154.884 67.3228 154.884 68.1136C154.884 68.9044 155.52 69.5454 156.304 69.5454Z" fill="#A2E6E6"/>
<path d="M156.304 53.0795C157.088 53.0795 157.724 52.4385 157.724 51.6477C157.724 50.8569 157.088 50.2159 156.304 50.2159C155.52 50.2159 154.884 50.8569 154.884 51.6477C154.884 52.4385 155.52 53.0795 156.304 53.0795Z" fill="#A2E6E6"/>
<path d="M156.304 36.6136C157.088 36.6136 157.724 35.9726 157.724 35.1818C157.724 34.391 157.088 33.75 156.304 33.75C155.52 33.75 154.884 34.391 154.884 35.1818C154.884 35.9726 155.52 36.6136 156.304 36.6136Z" fill="#A2E6E6"/>
<path d="M156.304 20.1477C157.088 20.1477 157.724 19.5066 157.724 18.7159C157.724 17.9251 157.088 17.2841 156.304 17.2841C155.52 17.2841 154.884 17.9251 154.884 18.7159C154.884 19.5066 155.52 20.1477 156.304 20.1477Z" fill="#A2E6E6"/>
<path d="M156.304 3.68181C157.088 3.68181 157.724 3.04077 157.724 2.24999C157.724 1.45922 157.088 0.818176 156.304 0.818176C155.52 0.818176 154.884 1.45922 154.884 2.24999C154.884 3.04077 155.52 3.68181 156.304 3.68181Z" fill="#A2E6E6"/>
<path d="M13.9108 135C14.695 135 15.3307 134.359 15.3307 133.568C15.3307 132.777 14.695 132.136 13.9108 132.136C13.1267 132.136 12.491 132.777 12.491 133.568C12.491 134.359 13.1267 135 13.9108 135Z" fill="#A2E6E6"/>
<path d="M13.9108 118.534C14.695 118.534 15.3307 117.893 15.3307 117.102C15.3307 116.311 14.695 115.67 13.9108 115.67C13.1267 115.67 12.491 116.311 12.491 117.102C12.491 117.893 13.1267 118.534 13.9108 118.534Z" fill="#A2E6E6"/>
<path d="M13.9108 102.068C14.695 102.068 15.3307 101.427 15.3307 100.636C15.3307 99.8456 14.695 99.2046 13.9108 99.2046C13.1267 99.2046 12.491 99.8456 12.491 100.636C12.491 101.427 13.1267 102.068 13.9108 102.068Z" fill="#A2E6E6"/>
<path d="M13.9108 85.6022C14.695 85.6022 15.3307 84.9612 15.3307 84.1704C15.3307 83.3796 14.695 82.7386 13.9108 82.7386C13.1267 82.7386 12.491 83.3796 12.491 84.1704C12.491 84.9612 13.1267 85.6022 13.9108 85.6022Z" fill="#A2E6E6"/>
<path d="M13.9108 69.1363C14.695 69.1363 15.3307 68.4953 15.3307 67.7045C15.3307 66.9138 14.695 66.2727 13.9108 66.2727C13.1267 66.2727 12.491 66.9138 12.491 67.7045C12.491 68.4953 13.1267 69.1363 13.9108 69.1363Z" fill="#A2E6E6"/>
<path d="M31.6593 135C32.4434 135 33.0791 134.359 33.0791 133.568C33.0791 132.777 32.4434 132.136 31.6593 132.136C30.8751 132.136 30.2394 132.777 30.2394 133.568C30.2394 134.359 30.8751 135 31.6593 135Z" fill="#A2E6E6"/>
<path d="M31.6593 118.534C32.4434 118.534 33.0791 117.893 33.0791 117.102C33.0791 116.311 32.4434 115.67 31.6593 115.67C30.8751 115.67 30.2394 116.311 30.2394 117.102C30.2394 117.893 30.8751 118.534 31.6593 118.534Z" fill="#A2E6E6"/>
<path d="M31.6593 102.068C32.4434 102.068 33.0791 101.427 33.0791 100.636C33.0791 99.8456 32.4434 99.2046 31.6593 99.2046C30.8751 99.2046 30.2394 99.8456 30.2394 100.636C30.2394 101.427 30.8751 102.068 31.6593 102.068Z" fill="#A2E6E6"/>
<path d="M31.6593 85.6022C32.4434 85.6022 33.0791 84.9612 33.0791 84.1704C33.0791 83.3796 32.4434 82.7386 31.6593 82.7386C30.8751 82.7386 30.2394 83.3796 30.2394 84.1704C30.2394 84.9612 30.8751 85.6022 31.6593 85.6022Z" fill="#A2E6E6"/>
<path d="M31.6593 69.1363C32.4434 69.1363 33.0791 68.4953 33.0791 67.7045C33.0791 66.9138 32.4434 66.2727 31.6593 66.2727C30.8751 66.2727 30.2394 66.9138 30.2394 67.7045C30.2394 68.4953 30.8751 69.1363 31.6593 69.1363Z" fill="#A2E6E6"/>
<path d="M49.4078 135C50.192 135 50.8277 134.359 50.8277 133.568C50.8277 132.777 50.192 132.136 49.4078 132.136C48.6236 132.136 47.9879 132.777 47.9879 133.568C47.9879 134.359 48.6236 135 49.4078 135Z" fill="#A2E6E6"/>
<path d="M49.4078 118.534C50.192 118.534 50.8277 117.893 50.8277 117.102C50.8277 116.311 50.192 115.67 49.4078 115.67C48.6236 115.67 47.9879 116.311 47.9879 117.102C47.9879 117.893 48.6236 118.534 49.4078 118.534Z" fill="#A2E6E6"/>
<path d="M49.4078 102.068C50.192 102.068 50.8277 101.427 50.8277 100.636C50.8277 99.8456 50.192 99.2046 49.4078 99.2046C48.6236 99.2046 47.9879 99.8456 47.9879 100.636C47.9879 101.427 48.6236 102.068 49.4078 102.068Z" fill="#A2E6E6"/>
<path d="M49.4078 85.6022C50.192 85.6022 50.8277 84.9612 50.8277 84.1704C50.8277 83.3796 50.192 82.7386 49.4078 82.7386C48.6236 82.7386 47.9879 83.3796 47.9879 84.1704C47.9879 84.9612 48.6236 85.6022 49.4078 85.6022Z" fill="#A2E6E6"/>
<path d="M49.4078 69.1363C50.192 69.1363 50.8277 68.4953 50.8277 67.7045C50.8277 66.9138 50.192 66.2727 49.4078 66.2727C48.6236 66.2727 47.9879 66.9138 47.9879 67.7045C47.9879 68.4953 48.6236 69.1363 49.4078 69.1363Z" fill="#A2E6E6"/>
<path d="M67.1562 135C67.9404 135 68.5761 134.359 68.5761 133.568C68.5761 132.777 67.9404 132.136 67.1562 132.136C66.372 132.136 65.7363 132.777 65.7363 133.568C65.7363 134.359 66.372 135 67.1562 135Z" fill="#A2E6E6"/>
<path d="M67.1562 118.534C67.9404 118.534 68.5761 117.893 68.5761 117.102C68.5761 116.311 67.9404 115.67 67.1562 115.67C66.372 115.67 65.7363 116.311 65.7363 117.102C65.7363 117.893 66.372 118.534 67.1562 118.534Z" fill="#A2E6E6"/>
<path d="M67.1562 102.068C67.9404 102.068 68.5761 101.427 68.5761 100.636C68.5761 99.8456 67.9404 99.2046 67.1562 99.2046C66.372 99.2046 65.7363 99.8456 65.7363 100.636C65.7363 101.427 66.372 102.068 67.1562 102.068Z" fill="#A2E6E6"/>
<path d="M67.1562 85.6022C67.9404 85.6022 68.5761 84.9612 68.5761 84.1704C68.5761 83.3796 67.9404 82.7386 67.1562 82.7386C66.372 82.7386 65.7363 83.3796 65.7363 84.1704C65.7363 84.9612 66.372 85.6022 67.1562 85.6022Z" fill="#A2E6E6"/>
<path d="M67.1562 69.1363C67.9404 69.1363 68.5761 68.4953 68.5761 67.7045C68.5761 66.9138 67.9404 66.2727 67.1562 66.2727C66.372 66.2727 65.7363 66.9138 65.7363 67.7045C65.7363 68.4953 66.372 69.1363 67.1562 69.1363Z" fill="#A2E6E6"/>
<path d="M84.9047 135C85.6889 135 86.3246 134.359 86.3246 133.568C86.3246 132.777 85.6889 132.136 84.9047 132.136C84.1206 132.136 83.4849 132.777 83.4849 133.568C83.4849 134.359 84.1206 135 84.9047 135Z" fill="#A2E6E6"/>
<path d="M84.9047 118.534C85.6889 118.534 86.3246 117.893 86.3246 117.102C86.3246 116.311 85.6889 115.67 84.9047 115.67C84.1206 115.67 83.4849 116.311 83.4849 117.102C83.4849 117.893 84.1206 118.534 84.9047 118.534Z" fill="#A2E6E6"/>
<path d="M84.9047 102.068C85.6889 102.068 86.3246 101.427 86.3246 100.636C86.3246 99.8456 85.6889 99.2046 84.9047 99.2046C84.1206 99.2046 83.4849 99.8456 83.4849 100.636C83.4849 101.427 84.1206 102.068 84.9047 102.068Z" fill="#A2E6E6"/>
<path d="M84.9047 85.6022C85.6889 85.6022 86.3246 84.9612 86.3246 84.1704C86.3246 83.3796 85.6889 82.7386 84.9047 82.7386C84.1206 82.7386 83.4849 83.3796 83.4849 84.1704C83.4849 84.9612 84.1206 85.6022 84.9047 85.6022Z" fill="#A2E6E6"/>
<path d="M84.9047 69.1363C85.6889 69.1363 86.3246 68.4953 86.3246 67.7045C86.3246 66.9138 85.6889 66.2727 84.9047 66.2727C84.1206 66.2727 83.4849 66.9138 83.4849 67.7045C83.4849 68.4953 84.1206 69.1363 84.9047 69.1363Z" fill="#A2E6E6"/>
<path d="M102.653 135C103.437 135 104.073 134.359 104.073 133.568C104.073 132.777 103.437 132.136 102.653 132.136C101.869 132.136 101.233 132.777 101.233 133.568C101.233 134.359 101.869 135 102.653 135Z" fill="#A2E6E6"/>
<path d="M102.653 118.534C103.437 118.534 104.073 117.893 104.073 117.102C104.073 116.311 103.437 115.67 102.653 115.67C101.869 115.67 101.233 116.311 101.233 117.102C101.233 117.893 101.869 118.534 102.653 118.534Z" fill="#A2E6E6"/>
<path d="M102.653 102.068C103.437 102.068 104.073 101.427 104.073 100.636C104.073 99.8456 103.437 99.2046 102.653 99.2046C101.869 99.2046 101.233 99.8456 101.233 100.636C101.233 101.427 101.869 102.068 102.653 102.068Z" fill="#A2E6E6"/>
<path d="M102.653 85.6022C103.437 85.6022 104.073 84.9612 104.073 84.1704C104.073 83.3796 103.437 82.7386 102.653 82.7386C101.869 82.7386 101.233 83.3796 101.233 84.1704C101.233 84.9612 101.869 85.6022 102.653 85.6022Z" fill="#A2E6E6"/>
<path d="M102.653 69.1363C103.437 69.1363 104.073 68.4953 104.073 67.7045C104.073 66.9138 103.437 66.2727 102.653 66.2727C101.869 66.2727 101.233 66.9138 101.233 67.7045C101.233 68.4953 101.869 69.1363 102.653 69.1363Z" fill="#A2E6E6"/>
<path d="M120.402 135C121.186 135 121.821 134.359 121.821 133.568C121.821 132.777 121.186 132.136 120.402 132.136C119.617 132.136 118.982 132.777 118.982 133.568C118.982 134.359 119.617 135 120.402 135Z" fill="#A2E6E6"/>
<path d="M120.402 118.534C121.186 118.534 121.821 117.893 121.821 117.102C121.821 116.311 121.186 115.67 120.402 115.67C119.617 115.67 118.982 116.311 118.982 117.102C118.982 117.893 119.617 118.534 120.402 118.534Z" fill="#A2E6E6"/>
<path d="M120.402 102.068C121.186 102.068 121.821 101.427 121.821 100.636C121.821 99.8456 121.186 99.2046 120.402 99.2046C119.617 99.2046 118.982 99.8456 118.982 100.636C118.982 101.427 119.617 102.068 120.402 102.068Z" fill="#A2E6E6"/>
<path d="M120.402 85.6022C121.186 85.6022 121.821 84.9612 121.821 84.1704C121.821 83.3796 121.186 82.7386 120.402 82.7386C119.617 82.7386 118.982 83.3796 118.982 84.1704C118.982 84.9612 119.617 85.6022 120.402 85.6022Z" fill="#A2E6E6"/>
<path d="M120.402 69.1363C121.186 69.1363 121.821 68.4953 121.821 67.7045C121.821 66.9138 121.186 66.2727 120.402 66.2727C119.617 66.2727 118.982 66.9138 118.982 67.7045C118.982 68.4953 119.617 69.1363 120.402 69.1363Z" fill="#A2E6E6"/>
<path d="M138.15 135C138.934 135 139.57 134.359 139.57 133.568C139.57 132.777 138.934 132.136 138.15 132.136C137.366 132.136 136.73 132.777 136.73 133.568C136.73 134.359 137.366 135 138.15 135Z" fill="#A2E6E6"/>
<path d="M138.15 118.534C138.934 118.534 139.57 117.893 139.57 117.102C139.57 116.311 138.934 115.67 138.15 115.67C137.366 115.67 136.73 116.311 136.73 117.102C136.73 117.893 137.366 118.534 138.15 118.534Z" fill="#A2E6E6"/>
<path d="M138.15 102.068C138.934 102.068 139.57 101.427 139.57 100.636C139.57 99.8456 138.934 99.2046 138.15 99.2046C137.366 99.2046 136.73 99.8456 136.73 100.636C136.73 101.427 137.366 102.068 138.15 102.068Z" fill="#A2E6E6"/>
<path d="M138.15 85.6022C138.934 85.6022 139.57 84.9612 139.57 84.1704C139.57 83.3796 138.934 82.7386 138.15 82.7386C137.366 82.7386 136.73 83.3796 136.73 84.1704C136.73 84.9612 137.366 85.6022 138.15 85.6022Z" fill="#A2E6E6"/>
<path d="M138.15 69.1363C138.934 69.1363 139.57 68.4953 139.57 67.7045C139.57 66.9138 138.934 66.2727 138.15 66.2727C137.366 66.2727 136.73 66.9138 136.73 67.7045C136.73 68.4953 137.366 69.1363 138.15 69.1363Z" fill="#A2E6E6"/>
<path d="M155.899 135C156.683 135 157.319 134.359 157.319 133.568C157.319 132.777 156.683 132.136 155.899 132.136C155.114 132.136 154.479 132.777 154.479 133.568C154.479 134.359 155.114 135 155.899 135Z" fill="#A2E6E6"/>
<path d="M155.899 118.534C156.683 118.534 157.319 117.893 157.319 117.102C157.319 116.311 156.683 115.67 155.899 115.67C155.114 115.67 154.479 116.311 154.479 117.102C154.479 117.893 155.114 118.534 155.899 118.534Z" fill="#A2E6E6"/>
<path d="M155.899 102.068C156.683 102.068 157.319 101.427 157.319 100.636C157.319 99.8456 156.683 99.2046 155.899 99.2046C155.114 99.2046 154.479 99.8456 154.479 100.636C154.479 101.427 155.114 102.068 155.899 102.068Z" fill="#A2E6E6"/>
<path d="M155.899 85.6022C156.683 85.6022 157.319 84.9612 157.319 84.1704C157.319 83.3796 156.683 82.7386 155.899 82.7386C155.114 82.7386 154.479 83.3796 154.479 84.1704C154.479 84.9612 155.114 85.6022 155.899 85.6022Z" fill="#A2E6E6"/>
<path d="M155.899 69.1363C156.683 69.1363 157.319 68.4953 157.319 67.7045C157.319 66.9138 156.683 66.2727 155.899 66.2727C155.114 66.2727 154.479 66.9138 154.479 67.7045C154.479 68.4953 155.114 69.1363 155.899 69.1363Z" fill="#A2E6E6"/>
</svg>
