<svg width="226" height="136" viewBox="0 0 226 136" fill="none" xmlns="http://www.w3.org/2000/svg">
<path d="M1.64597 69.8074C2.35329 69.8074 2.9267 69.1591 2.9267 68.3594C2.9267 67.5597 2.35329 66.9114 1.64597 66.9114C0.938637 66.9114 0.365234 67.5597 0.365234 68.3594C0.365234 69.1591 0.938637 69.8074 1.64597 69.8074Z" fill="#A2E6E6"/>
<path d="M1.64597 53.1556C2.35329 53.1556 2.9267 52.5074 2.9267 51.7077C2.9267 50.908 2.35329 50.2597 1.64597 50.2597C0.938637 50.2597 0.365234 50.908 0.365234 51.7077C0.365234 52.5074 0.938637 53.1556 1.64597 53.1556Z" fill="#A2E6E6"/>
<path d="M1.64597 36.5042C2.35329 36.5042 2.9267 35.8559 2.9267 35.0562C2.9267 34.2565 2.35329 33.6082 1.64597 33.6082C0.938637 33.6082 0.365234 34.2565 0.365234 35.0562C0.365234 35.8559 0.938637 36.5042 1.64597 36.5042Z" fill="#A2E6E6"/>
<path d="M1.64597 19.8526C2.35329 19.8526 2.9267 19.2043 2.9267 18.4046C2.9267 17.6049 2.35329 16.9566 1.64597 16.9566C0.938637 16.9566 0.365234 17.6049 0.365234 18.4046C0.365234 19.2043 0.938637 19.8526 1.64597 19.8526Z" fill="#A2E6E6"/>
<path d="M1.64597 3.20083C2.35329 3.20083 2.9267 2.55256 2.9267 1.75287C2.9267 0.953177 2.35329 0.304901 1.64597 0.304901C0.938637 0.304901 0.365234 0.953177 0.365234 1.75287C0.365234 2.55256 0.938637 3.20083 1.64597 3.20083Z" fill="#A2E6E6"/>
<path d="M17.6557 69.8074C18.3631 69.8074 18.9365 69.1591 18.9365 68.3594C18.9365 67.5597 18.3631 66.9114 17.6557 66.9114C16.9484 66.9114 16.375 67.5597 16.375 68.3594C16.375 69.1591 16.9484 69.8074 17.6557 69.8074Z" fill="#A2E6E6"/>
<path d="M17.6557 53.1556C18.3631 53.1556 18.9365 52.5074 18.9365 51.7077C18.9365 50.908 18.3631 50.2597 17.6557 50.2597C16.9484 50.2597 16.375 50.908 16.375 51.7077C16.375 52.5074 16.9484 53.1556 17.6557 53.1556Z" fill="#A2E6E6"/>
<path d="M17.6557 36.5042C18.3631 36.5042 18.9365 35.8559 18.9365 35.0562C18.9365 34.2565 18.3631 33.6082 17.6557 33.6082C16.9484 33.6082 16.375 34.2565 16.375 35.0562C16.375 35.8559 16.9484 36.5042 17.6557 36.5042Z" fill="#A2E6E6"/>
<path d="M17.6557 19.8526C18.3631 19.8526 18.9365 19.2043 18.9365 18.4046C18.9365 17.6049 18.3631 16.9566 17.6557 16.9566C16.9484 16.9566 16.375 17.6049 16.375 18.4046C16.375 19.2043 16.9484 19.8526 17.6557 19.8526Z" fill="#A2E6E6"/>
<path d="M17.6557 3.20083C18.3631 3.20083 18.9365 2.55256 18.9365 1.75287C18.9365 0.953177 18.3631 0.304901 17.6557 0.304901C16.9484 0.304901 16.375 0.953177 16.375 1.75287C16.375 2.55256 16.9484 3.20083 17.6557 3.20083Z" fill="#A2E6E6"/>
<path d="M33.6635 69.8074C34.3709 69.8074 34.9443 69.1591 34.9443 68.3594C34.9443 67.5597 34.3709 66.9114 33.6635 66.9114C32.9562 66.9114 32.3828 67.5597 32.3828 68.3594C32.3828 69.1591 32.9562 69.8074 33.6635 69.8074Z" fill="#A2E6E6"/>
<path d="M33.6635 53.1556C34.3709 53.1556 34.9443 52.5074 34.9443 51.7077C34.9443 50.908 34.3709 50.2597 33.6635 50.2597C32.9562 50.2597 32.3828 50.908 32.3828 51.7077C32.3828 52.5074 32.9562 53.1556 33.6635 53.1556Z" fill="#A2E6E6"/>
<path d="M33.6635 36.5042C34.3709 36.5042 34.9443 35.8559 34.9443 35.0562C34.9443 34.2565 34.3709 33.6082 33.6635 33.6082C32.9562 33.6082 32.3828 34.2565 32.3828 35.0562C32.3828 35.8559 32.9562 36.5042 33.6635 36.5042Z" fill="#A2E6E6"/>
<path d="M33.6635 19.8526C34.3709 19.8526 34.9443 19.2043 34.9443 18.4046C34.9443 17.6049 34.3709 16.9566 33.6635 16.9566C32.9562 16.9566 32.3828 17.6049 32.3828 18.4046C32.3828 19.2043 32.9562 19.8526 33.6635 19.8526Z" fill="#A2E6E6"/>
<path d="M33.6635 3.20083C34.3709 3.20083 34.9443 2.55256 34.9443 1.75287C34.9443 0.953177 34.3709 0.304901 33.6635 0.304901C32.9562 0.304901 32.3828 0.953177 32.3828 1.75287C32.3828 2.55256 32.9562 3.20083 33.6635 3.20083Z" fill="#A2E6E6"/>
<path d="M49.6733 69.8074C50.3806 69.8074 50.954 69.1591 50.954 68.3594C50.954 67.5597 50.3806 66.9114 49.6733 66.9114C48.966 66.9114 48.3926 67.5597 48.3926 68.3594C48.3926 69.1591 48.966 69.8074 49.6733 69.8074Z" fill="#A2E6E6"/>
<path d="M49.6733 53.1556C50.3806 53.1556 50.954 52.5074 50.954 51.7077C50.954 50.908 50.3806 50.2597 49.6733 50.2597C48.966 50.2597 48.3926 50.908 48.3926 51.7077C48.3926 52.5074 48.966 53.1556 49.6733 53.1556Z" fill="#A2E6E6"/>
<path d="M49.6733 36.5042C50.3806 36.5042 50.954 35.8559 50.954 35.0562C50.954 34.2565 50.3806 33.6082 49.6733 33.6082C48.966 33.6082 48.3926 34.2565 48.3926 35.0562C48.3926 35.8559 48.966 36.5042 49.6733 36.5042Z" fill="#A2E6E6"/>
<path d="M49.6733 19.8526C50.3806 19.8526 50.954 19.2043 50.954 18.4046C50.954 17.6049 50.3806 16.9566 49.6733 16.9566C48.966 16.9566 48.3926 17.6049 48.3926 18.4046C48.3926 19.2043 48.966 19.8526 49.6733 19.8526Z" fill="#A2E6E6"/>
<path d="M49.6733 3.20083C50.3806 3.20083 50.954 2.55256 50.954 1.75287C50.954 0.953177 50.3806 0.304901 49.6733 0.304901C48.966 0.304901 48.3926 0.953177 48.3926 1.75287C48.3926 2.55256 48.966 3.20083 49.6733 3.20083Z" fill="#A2E6E6"/>
<path d="M65.6831 69.8074C66.3904 69.8074 66.9638 69.1591 66.9638 68.3594C66.9638 67.5597 66.3904 66.9114 65.6831 66.9114C64.9757 66.9114 64.4023 67.5597 64.4023 68.3594C64.4023 69.1591 64.9757 69.8074 65.6831 69.8074Z" fill="#A2E6E6"/>
<path d="M65.6831 53.1556C66.3904 53.1556 66.9638 52.5074 66.9638 51.7077C66.9638 50.908 66.3904 50.2597 65.6831 50.2597C64.9757 50.2597 64.4023 50.908 64.4023 51.7077C64.4023 52.5074 64.9757 53.1556 65.6831 53.1556Z" fill="#A2E6E6"/>
<path d="M65.6831 36.5042C66.3904 36.5042 66.9638 35.8559 66.9638 35.0562C66.9638 34.2565 66.3904 33.6082 65.6831 33.6082C64.9757 33.6082 64.4023 34.2565 64.4023 35.0562C64.4023 35.8559 64.9757 36.5042 65.6831 36.5042Z" fill="#A2E6E6"/>
<path d="M65.6831 19.8526C66.3904 19.8526 66.9638 19.2043 66.9638 18.4046C66.9638 17.6049 66.3904 16.9566 65.6831 16.9566C64.9757 16.9566 64.4023 17.6049 64.4023 18.4046C64.4023 19.2043 64.9757 19.8526 65.6831 19.8526Z" fill="#A2E6E6"/>
<path d="M65.6831 3.20083C66.3904 3.20083 66.9638 2.55256 66.9638 1.75287C66.9638 0.953177 66.3904 0.304901 65.6831 0.304901C64.9757 0.304901 64.4023 0.953177 64.4023 1.75287C64.4023 2.55256 64.9757 3.20083 65.6831 3.20083Z" fill="#A2E6E6"/>
<path d="M81.6909 69.8074C82.3982 69.8074 82.9716 69.1591 82.9716 68.3594C82.9716 67.5597 82.3982 66.9114 81.6909 66.9114C80.9836 66.9114 80.4102 67.5597 80.4102 68.3594C80.4102 69.1591 80.9836 69.8074 81.6909 69.8074Z" fill="#A2E6E6"/>
<path d="M81.6909 53.1556C82.3982 53.1556 82.9716 52.5074 82.9716 51.7077C82.9716 50.908 82.3982 50.2597 81.6909 50.2597C80.9836 50.2597 80.4102 50.908 80.4102 51.7077C80.4102 52.5074 80.9836 53.1556 81.6909 53.1556Z" fill="#A2E6E6"/>
<path d="M81.6909 36.5042C82.3982 36.5042 82.9716 35.8559 82.9716 35.0562C82.9716 34.2565 82.3982 33.6082 81.6909 33.6082C80.9836 33.6082 80.4102 34.2565 80.4102 35.0562C80.4102 35.8559 80.9836 36.5042 81.6909 36.5042Z" fill="#A2E6E6"/>
<path d="M81.6909 19.8526C82.3982 19.8526 82.9716 19.2043 82.9716 18.4046C82.9716 17.6049 82.3982 16.9566 81.6909 16.9566C80.9836 16.9566 80.4102 17.6049 80.4102 18.4046C80.4102 19.2043 80.9836 19.8526 81.6909 19.8526Z" fill="#A2E6E6"/>
<path d="M81.6909 3.20083C82.3982 3.20083 82.9716 2.55256 82.9716 1.75287C82.9716 0.953177 82.3982 0.304901 81.6909 0.304901C80.9836 0.304901 80.4102 0.953177 80.4102 1.75287C80.4102 2.55256 80.9836 3.20083 81.6909 3.20083Z" fill="#A2E6E6"/>
<path d="M97.7007 69.8074C98.408 69.8074 98.9814 69.1591 98.9814 68.3594C98.9814 67.5597 98.408 66.9114 97.7007 66.9114C96.9933 66.9114 96.4199 67.5597 96.4199 68.3594C96.4199 69.1591 96.9933 69.8074 97.7007 69.8074Z" fill="#A2E6E6"/>
<path d="M97.7007 53.1556C98.408 53.1556 98.9814 52.5074 98.9814 51.7077C98.9814 50.908 98.408 50.2597 97.7007 50.2597C96.9933 50.2597 96.4199 50.908 96.4199 51.7077C96.4199 52.5074 96.9933 53.1556 97.7007 53.1556Z" fill="#A2E6E6"/>
<path d="M97.7007 36.5042C98.408 36.5042 98.9814 35.8559 98.9814 35.0562C98.9814 34.2565 98.408 33.6082 97.7007 33.6082C96.9933 33.6082 96.4199 34.2565 96.4199 35.0562C96.4199 35.8559 96.9933 36.5042 97.7007 36.5042Z" fill="#A2E6E6"/>
<path d="M97.7007 19.8526C98.408 19.8526 98.9814 19.2043 98.9814 18.4046C98.9814 17.6049 98.408 16.9566 97.7007 16.9566C96.9933 16.9566 96.4199 17.6049 96.4199 18.4046C96.4199 19.2043 96.9933 19.8526 97.7007 19.8526Z" fill="#A2E6E6"/>
<path d="M97.7007 3.20083C98.408 3.20083 98.9814 2.55256 98.9814 1.75287C98.9814 0.953177 98.408 0.304901 97.7007 0.304901C96.9933 0.304901 96.4199 0.953177 96.4199 1.75287C96.4199 2.55256 96.9933 3.20083 97.7007 3.20083Z" fill="#A2E6E6"/>
<path d="M113.71 69.8074C114.418 69.8074 114.991 69.1591 114.991 68.3594C114.991 67.5597 114.418 66.9114 113.71 66.9114C113.003 66.9114 112.43 67.5597 112.43 68.3594C112.43 69.1591 113.003 69.8074 113.71 69.8074Z" fill="#A2E6E6"/>
<path d="M113.71 53.1556C114.418 53.1556 114.991 52.5074 114.991 51.7077C114.991 50.908 114.418 50.2597 113.71 50.2597C113.003 50.2597 112.43 50.908 112.43 51.7077C112.43 52.5074 113.003 53.1556 113.71 53.1556Z" fill="#A2E6E6"/>
<path d="M113.71 36.5042C114.418 36.5042 114.991 35.8559 114.991 35.0562C114.991 34.2565 114.418 33.6082 113.71 33.6082C113.003 33.6082 112.43 34.2565 112.43 35.0562C112.43 35.8559 113.003 36.5042 113.71 36.5042Z" fill="#A2E6E6"/>
<path d="M113.71 19.8526C114.418 19.8526 114.991 19.2043 114.991 18.4046C114.991 17.6049 114.418 16.9566 113.71 16.9566C113.003 16.9566 112.43 17.6049 112.43 18.4046C112.43 19.2043 113.003 19.8526 113.71 19.8526Z" fill="#A2E6E6"/>
<path d="M113.71 3.20083C114.418 3.20083 114.991 2.55256 114.991 1.75287C114.991 0.953177 114.418 0.304901 113.71 0.304901C113.003 0.304901 112.43 0.953177 112.43 1.75287C112.43 2.55256 113.003 3.20083 113.71 3.20083Z" fill="#A2E6E6"/>
<path d="M129.718 69.8074C130.426 69.8074 130.999 69.1591 130.999 68.3594C130.999 67.5597 130.426 66.9114 129.718 66.9114C129.011 66.9114 128.438 67.5597 128.438 68.3594C128.438 69.1591 129.011 69.8074 129.718 69.8074Z" fill="#A2E6E6"/>
<path d="M129.718 53.1556C130.426 53.1556 130.999 52.5074 130.999 51.7077C130.999 50.908 130.426 50.2597 129.718 50.2597C129.011 50.2597 128.438 50.908 128.438 51.7077C128.438 52.5074 129.011 53.1556 129.718 53.1556Z" fill="#A2E6E6"/>
<path d="M129.718 36.5042C130.426 36.5042 130.999 35.8559 130.999 35.0562C130.999 34.2565 130.426 33.6082 129.718 33.6082C129.011 33.6082 128.438 34.2565 128.438 35.0562C128.438 35.8559 129.011 36.5042 129.718 36.5042Z" fill="#A2E6E6"/>
<path d="M129.718 19.8526C130.426 19.8526 130.999 19.2043 130.999 18.4046C130.999 17.6049 130.426 16.9566 129.718 16.9566C129.011 16.9566 128.438 17.6049 128.438 18.4046C128.438 19.2043 129.011 19.8526 129.718 19.8526Z" fill="#A2E6E6"/>
<path d="M129.718 3.20083C130.426 3.20083 130.999 2.55256 130.999 1.75287C130.999 0.953177 130.426 0.304901 129.718 0.304901C129.011 0.304901 128.438 0.953177 128.438 1.75287C128.438 2.55256 129.011 3.20083 129.718 3.20083Z" fill="#A2E6E6"/>
<path d="M145.728 69.8074C146.435 69.8074 147.009 69.1591 147.009 68.3594C147.009 67.5597 146.435 66.9114 145.728 66.9114C145.021 66.9114 144.447 67.5597 144.447 68.3594C144.447 69.1591 145.021 69.8074 145.728 69.8074Z" fill="#A2E6E6"/>
<path d="M145.728 53.1556C146.435 53.1556 147.009 52.5074 147.009 51.7077C147.009 50.908 146.435 50.2597 145.728 50.2597C145.021 50.2597 144.447 50.908 144.447 51.7077C144.447 52.5074 145.021 53.1556 145.728 53.1556Z" fill="#A2E6E6"/>
<path d="M145.728 36.5042C146.435 36.5042 147.009 35.8559 147.009 35.0562C147.009 34.2565 146.435 33.6082 145.728 33.6082C145.021 33.6082 144.447 34.2565 144.447 35.0562C144.447 35.8559 145.021 36.5042 145.728 36.5042Z" fill="#A2E6E6"/>
<path d="M145.728 19.8526C146.435 19.8526 147.009 19.2043 147.009 18.4046C147.009 17.6049 146.435 16.9566 145.728 16.9566C145.021 16.9566 144.447 17.6049 144.447 18.4046C144.447 19.2043 145.021 19.8526 145.728 19.8526Z" fill="#A2E6E6"/>
<path d="M145.728 3.20083C146.435 3.20083 147.009 2.55256 147.009 1.75287C147.009 0.953177 146.435 0.304901 145.728 0.304901C145.021 0.304901 144.447 0.953177 144.447 1.75287C144.447 2.55256 145.021 3.20083 145.728 3.20083Z" fill="#A2E6E6"/>
<path d="M161.738 69.8074C162.445 69.8074 163.018 69.1591 163.018 68.3594C163.018 67.5597 162.445 66.9114 161.738 66.9114C161.03 66.9114 160.457 67.5597 160.457 68.3594C160.457 69.1591 161.03 69.8074 161.738 69.8074Z" fill="#A2E6E6"/>
<path d="M161.738 53.1556C162.445 53.1556 163.018 52.5074 163.018 51.7077C163.018 50.908 162.445 50.2597 161.738 50.2597C161.03 50.2597 160.457 50.908 160.457 51.7077C160.457 52.5074 161.03 53.1556 161.738 53.1556Z" fill="#A2E6E6"/>
<path d="M161.738 36.5042C162.445 36.5042 163.018 35.8559 163.018 35.0562C163.018 34.2565 162.445 33.6082 161.738 33.6082C161.03 33.6082 160.457 34.2565 160.457 35.0562C160.457 35.8559 161.03 36.5042 161.738 36.5042Z" fill="#A2E6E6"/>
<path d="M161.738 19.8526C162.445 19.8526 163.018 19.2043 163.018 18.4046C163.018 17.6049 162.445 16.9566 161.738 16.9566C161.03 16.9566 160.457 17.6049 160.457 18.4046C160.457 19.2043 161.03 19.8526 161.738 19.8526Z" fill="#A2E6E6"/>
<path d="M161.738 3.20083C162.445 3.20083 163.018 2.55256 163.018 1.75287C163.018 0.953177 162.445 0.304901 161.738 0.304901C161.03 0.304901 160.457 0.953177 160.457 1.75287C160.457 2.55256 161.03 3.20083 161.738 3.20083Z" fill="#A2E6E6"/>
<path d="M177.746 69.8074C178.453 69.8074 179.026 69.1591 179.026 68.3594C179.026 67.5597 178.453 66.9114 177.746 66.9114C177.038 66.9114 176.465 67.5597 176.465 68.3594C176.465 69.1591 177.038 69.8074 177.746 69.8074Z" fill="#A2E6E6"/>
<path d="M177.746 53.1556C178.453 53.1556 179.026 52.5074 179.026 51.7077C179.026 50.908 178.453 50.2597 177.746 50.2597C177.038 50.2597 176.465 50.908 176.465 51.7077C176.465 52.5074 177.038 53.1556 177.746 53.1556Z" fill="#A2E6E6"/>
<path d="M177.746 36.5042C178.453 36.5042 179.026 35.8559 179.026 35.0562C179.026 34.2565 178.453 33.6082 177.746 33.6082C177.038 33.6082 176.465 34.2565 176.465 35.0562C176.465 35.8559 177.038 36.5042 177.746 36.5042Z" fill="#A2E6E6"/>
<path d="M177.746 19.8526C178.453 19.8526 179.026 19.2043 179.026 18.4046C179.026 17.6049 178.453 16.9566 177.746 16.9566C177.038 16.9566 176.465 17.6049 176.465 18.4046C176.465 19.2043 177.038 19.8526 177.746 19.8526Z" fill="#A2E6E6"/>
<path d="M177.746 3.20083C178.453 3.20083 179.026 2.55256 179.026 1.75287C179.026 0.953177 178.453 0.304901 177.746 0.304901C177.038 0.304901 176.465 0.953177 176.465 1.75287C176.465 2.55256 177.038 3.20083 177.746 3.20083Z" fill="#A2E6E6"/>
<path d="M193.755 69.8074C194.463 69.8074 195.036 69.1591 195.036 68.3594C195.036 67.5597 194.463 66.9114 193.755 66.9114C193.048 66.9114 192.475 67.5597 192.475 68.3594C192.475 69.1591 193.048 69.8074 193.755 69.8074Z" fill="#A2E6E6"/>
<path d="M193.755 53.1556C194.463 53.1556 195.036 52.5074 195.036 51.7077C195.036 50.908 194.463 50.2597 193.755 50.2597C193.048 50.2597 192.475 50.908 192.475 51.7077C192.475 52.5074 193.048 53.1556 193.755 53.1556Z" fill="#A2E6E6"/>
<path d="M193.755 36.5042C194.463 36.5042 195.036 35.8559 195.036 35.0562C195.036 34.2565 194.463 33.6082 193.755 33.6082C193.048 33.6082 192.475 34.2565 192.475 35.0562C192.475 35.8559 193.048 36.5042 193.755 36.5042Z" fill="#A2E6E6"/>
<path d="M193.755 19.8526C194.463 19.8526 195.036 19.2043 195.036 18.4046C195.036 17.6049 194.463 16.9566 193.755 16.9566C193.048 16.9566 192.475 17.6049 192.475 18.4046C192.475 19.2043 193.048 19.8526 193.755 19.8526Z" fill="#A2E6E6"/>
<path d="M193.755 3.20083C194.463 3.20083 195.036 2.55256 195.036 1.75287C195.036 0.953177 194.463 0.304901 193.755 0.304901C193.048 0.304901 192.475 0.953177 192.475 1.75287C192.475 2.55256 193.048 3.20083 193.755 3.20083Z" fill="#A2E6E6"/>
<path d="M209.765 69.8074C210.472 69.8074 211.046 69.1591 211.046 68.3594C211.046 67.5597 210.472 66.9114 209.765 66.9114C209.058 66.9114 208.484 67.5597 208.484 68.3594C208.484 69.1591 209.058 69.8074 209.765 69.8074Z" fill="#A2E6E6"/>
<path d="M209.765 53.1556C210.472 53.1556 211.046 52.5074 211.046 51.7077C211.046 50.908 210.472 50.2597 209.765 50.2597C209.058 50.2597 208.484 50.908 208.484 51.7077C208.484 52.5074 209.058 53.1556 209.765 53.1556Z" fill="#A2E6E6"/>
<path d="M209.765 36.5042C210.472 36.5042 211.046 35.8559 211.046 35.0562C211.046 34.2565 210.472 33.6082 209.765 33.6082C209.058 33.6082 208.484 34.2565 208.484 35.0562C208.484 35.8559 209.058 36.5042 209.765 36.5042Z" fill="#A2E6E6"/>
<path d="M209.765 19.8526C210.472 19.8526 211.046 19.2043 211.046 18.4046C211.046 17.6049 210.472 16.9566 209.765 16.9566C209.058 16.9566 208.484 17.6049 208.484 18.4046C208.484 19.2043 209.058 19.8526 209.765 19.8526Z" fill="#A2E6E6"/>
<path d="M209.765 3.20083C210.472 3.20083 211.046 2.55256 211.046 1.75287C211.046 0.953177 210.472 0.304901 209.765 0.304901C209.058 0.304901 208.484 0.953177 208.484 1.75287C208.484 2.55256 209.058 3.20083 209.765 3.20083Z" fill="#A2E6E6"/>
<path d="M225.773 69.8074C226.48 69.8074 227.054 69.1591 227.054 68.3594C227.054 67.5597 226.48 66.9114 225.773 66.9114C225.066 66.9114 224.492 67.5597 224.492 68.3594C224.492 69.1591 225.066 69.8074 225.773 69.8074Z" fill="#A2E6E6"/>
<path d="M225.773 53.1556C226.48 53.1556 227.054 52.5074 227.054 51.7077C227.054 50.908 226.48 50.2597 225.773 50.2597C225.066 50.2597 224.492 50.908 224.492 51.7077C224.492 52.5074 225.066 53.1556 225.773 53.1556Z" fill="#A2E6E6"/>
<path d="M225.773 36.5042C226.48 36.5042 227.054 35.8559 227.054 35.0562C227.054 34.2565 226.48 33.6082 225.773 33.6082C225.066 33.6082 224.492 34.2565 224.492 35.0562C224.492 35.8559 225.066 36.5042 225.773 36.5042Z" fill="#A2E6E6"/>
<path d="M225.773 19.8526C226.48 19.8526 227.054 19.2043 227.054 18.4046C227.054 17.6049 226.48 16.9566 225.773 16.9566C225.066 16.9566 224.492 17.6049 224.492 18.4046C224.492 19.2043 225.066 19.8526 225.773 19.8526Z" fill="#A2E6E6"/>
<path d="M225.773 3.20083C226.48 3.20083 227.054 2.55256 227.054 1.75287C227.054 0.953177 226.48 0.304901 225.773 0.304901C225.066 0.304901 224.492 0.953177 224.492 1.75287C224.492 2.55256 225.066 3.20083 225.773 3.20083Z" fill="#A2E6E6"/>
<path d="M1.28073 136C1.98806 136 2.56146 135.352 2.56146 134.552C2.56146 133.752 1.98806 133.104 1.28073 133.104C0.573403 133.104 0 133.752 0 134.552C0 135.352 0.573403 136 1.28073 136Z" fill="#A2E6E6"/>
<path d="M1.28073 119.348C1.98806 119.348 2.56146 118.7 2.56146 117.9C2.56146 117.101 1.98806 116.452 1.28073 116.452C0.573403 116.452 0 117.101 0 117.9C0 118.7 0.573403 119.348 1.28073 119.348Z" fill="#A2E6E6"/>
<path d="M1.28073 102.697C1.98806 102.697 2.56146 102.049 2.56146 101.249C2.56146 100.449 1.98806 99.8009 1.28073 99.8009C0.573403 99.8009 0 100.449 0 101.249C0 102.049 0.573403 102.697 1.28073 102.697Z" fill="#A2E6E6"/>
<path d="M1.28073 86.0452C1.98806 86.0452 2.56146 85.3969 2.56146 84.5973C2.56146 83.7976 1.98806 83.1493 1.28073 83.1493C0.573403 83.1493 0 83.7976 0 84.5973C0 85.3969 0.573403 86.0452 1.28073 86.0452Z" fill="#A2E6E6"/>
<path d="M1.28073 69.3936C1.98806 69.3936 2.56146 68.7454 2.56146 67.9457C2.56146 67.146 1.98806 66.4977 1.28073 66.4977C0.573403 66.4977 0 67.146 0 67.9457C0 68.7454 0.573403 69.3936 1.28073 69.3936Z" fill="#A2E6E6"/>
<path d="M17.2905 136C17.9978 136 18.5712 135.352 18.5712 134.552C18.5712 133.752 17.9978 133.104 17.2905 133.104C16.5832 133.104 16.0098 133.752 16.0098 134.552C16.0098 135.352 16.5832 136 17.2905 136Z" fill="#A2E6E6"/>
<path d="M17.2905 119.348C17.9978 119.348 18.5712 118.7 18.5712 117.9C18.5712 117.101 17.9978 116.452 17.2905 116.452C16.5832 116.452 16.0098 117.101 16.0098 117.9C16.0098 118.7 16.5832 119.348 17.2905 119.348Z" fill="#A2E6E6"/>
<path d="M17.2905 102.697C17.9978 102.697 18.5712 102.049 18.5712 101.249C18.5712 100.449 17.9978 99.8009 17.2905 99.8009C16.5832 99.8009 16.0098 100.449 16.0098 101.249C16.0098 102.049 16.5832 102.697 17.2905 102.697Z" fill="#A2E6E6"/>
<path d="M17.2905 86.0452C17.9978 86.0452 18.5712 85.3969 18.5712 84.5973C18.5712 83.7976 17.9978 83.1493 17.2905 83.1493C16.5832 83.1493 16.0098 83.7976 16.0098 84.5973C16.0098 85.3969 16.5832 86.0452 17.2905 86.0452Z" fill="#A2E6E6"/>
<path d="M17.2905 69.3936C17.9978 69.3936 18.5712 68.7454 18.5712 67.9457C18.5712 67.146 17.9978 66.4977 17.2905 66.4977C16.5832 66.4977 16.0098 67.146 16.0098 67.9457C16.0098 68.7454 16.5832 69.3936 17.2905 69.3936Z" fill="#A2E6E6"/>
<path d="M33.2983 136C34.0056 136 34.579 135.352 34.579 134.552C34.579 133.752 34.0056 133.104 33.2983 133.104C32.591 133.104 32.0176 133.752 32.0176 134.552C32.0176 135.352 32.591 136 33.2983 136Z" fill="#A2E6E6"/>
<path d="M33.2983 119.348C34.0056 119.348 34.579 118.7 34.579 117.9C34.579 117.101 34.0056 116.452 33.2983 116.452C32.591 116.452 32.0176 117.101 32.0176 117.9C32.0176 118.7 32.591 119.348 33.2983 119.348Z" fill="#A2E6E6"/>
<path d="M33.2983 102.697C34.0056 102.697 34.579 102.049 34.579 101.249C34.579 100.449 34.0056 99.8009 33.2983 99.8009C32.591 99.8009 32.0176 100.449 32.0176 101.249C32.0176 102.049 32.591 102.697 33.2983 102.697Z" fill="#A2E6E6"/>
<path d="M33.2983 86.0452C34.0056 86.0452 34.579 85.3969 34.579 84.5973C34.579 83.7976 34.0056 83.1493 33.2983 83.1493C32.591 83.1493 32.0176 83.7976 32.0176 84.5973C32.0176 85.3969 32.591 86.0452 33.2983 86.0452Z" fill="#A2E6E6"/>
<path d="M33.2983 69.3936C34.0056 69.3936 34.579 68.7454 34.579 67.9457C34.579 67.146 34.0056 66.4977 33.2983 66.4977C32.591 66.4977 32.0176 67.146 32.0176 67.9457C32.0176 68.7454 32.591 69.3936 33.2983 69.3936Z" fill="#A2E6E6"/>
<path d="M49.3081 136C50.0154 136 50.5888 135.352 50.5888 134.552C50.5888 133.752 50.0154 133.104 49.3081 133.104C48.6007 133.104 48.0273 133.752 48.0273 134.552C48.0273 135.352 48.6007 136 49.3081 136Z" fill="#A2E6E6"/>
<path d="M49.3081 119.348C50.0154 119.348 50.5888 118.7 50.5888 117.9C50.5888 117.101 50.0154 116.452 49.3081 116.452C48.6007 116.452 48.0273 117.101 48.0273 117.9C48.0273 118.7 48.6007 119.348 49.3081 119.348Z" fill="#A2E6E6"/>
<path d="M49.3081 102.697C50.0154 102.697 50.5888 102.049 50.5888 101.249C50.5888 100.449 50.0154 99.8009 49.3081 99.8009C48.6007 99.8009 48.0273 100.449 48.0273 101.249C48.0273 102.049 48.6007 102.697 49.3081 102.697Z" fill="#A2E6E6"/>
<path d="M49.3081 86.0452C50.0154 86.0452 50.5888 85.3969 50.5888 84.5973C50.5888 83.7976 50.0154 83.1493 49.3081 83.1493C48.6007 83.1493 48.0273 83.7976 48.0273 84.5973C48.0273 85.3969 48.6007 86.0452 49.3081 86.0452Z" fill="#A2E6E6"/>
<path d="M49.3081 69.3936C50.0154 69.3936 50.5888 68.7454 50.5888 67.9457C50.5888 67.146 50.0154 66.4977 49.3081 66.4977C48.6007 66.4977 48.0273 67.146 48.0273 67.9457C48.0273 68.7454 48.6007 69.3936 49.3081 69.3936Z" fill="#A2E6E6"/>
<path d="M65.3178 136C66.0252 136 66.5986 135.352 66.5986 134.552C66.5986 133.752 66.0252 133.104 65.3178 133.104C64.6105 133.104 64.0371 133.752 64.0371 134.552C64.0371 135.352 64.6105 136 65.3178 136Z" fill="#A2E6E6"/>
<path d="M65.3178 119.348C66.0252 119.348 66.5986 118.7 66.5986 117.9C66.5986 117.101 66.0252 116.452 65.3178 116.452C64.6105 116.452 64.0371 117.101 64.0371 117.9C64.0371 118.7 64.6105 119.348 65.3178 119.348Z" fill="#A2E6E6"/>
<path d="M65.3178 102.697C66.0252 102.697 66.5986 102.049 66.5986 101.249C66.5986 100.449 66.0252 99.8009 65.3178 99.8009C64.6105 99.8009 64.0371 100.449 64.0371 101.249C64.0371 102.049 64.6105 102.697 65.3178 102.697Z" fill="#A2E6E6"/>
<path d="M65.3178 86.0452C66.0252 86.0452 66.5986 85.3969 66.5986 84.5973C66.5986 83.7976 66.0252 83.1493 65.3178 83.1493C64.6105 83.1493 64.0371 83.7976 64.0371 84.5973C64.0371 85.3969 64.6105 86.0452 65.3178 86.0452Z" fill="#A2E6E6"/>
<path d="M65.3178 69.3936C66.0252 69.3936 66.5986 68.7454 66.5986 67.9457C66.5986 67.146 66.0252 66.4977 65.3178 66.4977C64.6105 66.4977 64.0371 67.146 64.0371 67.9457C64.0371 68.7454 64.6105 69.3936 65.3178 69.3936Z" fill="#A2E6E6"/>
<path d="M81.3276 136C82.0349 136 82.6083 135.352 82.6083 134.552C82.6083 133.752 82.0349 133.104 81.3276 133.104C80.6203 133.104 80.0469 133.752 80.0469 134.552C80.0469 135.352 80.6203 136 81.3276 136Z" fill="#A2E6E6"/>
<path d="M81.3276 119.348C82.0349 119.348 82.6083 118.7 82.6083 117.9C82.6083 117.101 82.0349 116.452 81.3276 116.452C80.6203 116.452 80.0469 117.101 80.0469 117.9C80.0469 118.7 80.6203 119.348 81.3276 119.348Z" fill="#A2E6E6"/>
<path d="M81.3276 102.697C82.0349 102.697 82.6083 102.049 82.6083 101.249C82.6083 100.449 82.0349 99.8009 81.3276 99.8009C80.6203 99.8009 80.0469 100.449 80.0469 101.249C80.0469 102.049 80.6203 102.697 81.3276 102.697Z" fill="#A2E6E6"/>
<path d="M81.3276 86.0452C82.0349 86.0452 82.6083 85.3969 82.6083 84.5973C82.6083 83.7976 82.0349 83.1493 81.3276 83.1493C80.6203 83.1493 80.0469 83.7976 80.0469 84.5973C80.0469 85.3969 80.6203 86.0452 81.3276 86.0452Z" fill="#A2E6E6"/>
<path d="M81.3257 69.3936C82.033 69.3936 82.6064 68.7454 82.6064 67.9457C82.6064 67.146 82.033 66.4977 81.3257 66.4977C80.6183 66.4977 80.0449 67.146 80.0449 67.9457C80.0449 68.7454 80.6183 69.3936 81.3257 69.3936Z" fill="#A2E6E6"/>
<path d="M97.3354 136C98.0427 136 98.6161 135.352 98.6161 134.552C98.6161 133.752 98.0427 133.104 97.3354 133.104C96.6281 133.104 96.0547 133.752 96.0547 134.552C96.0547 135.352 96.6281 136 97.3354 136Z" fill="#A2E6E6"/>
<path d="M97.3354 119.348C98.0427 119.348 98.6161 118.7 98.6161 117.9C98.6161 117.101 98.0427 116.452 97.3354 116.452C96.6281 116.452 96.0547 117.101 96.0547 117.9C96.0547 118.7 96.6281 119.348 97.3354 119.348Z" fill="#A2E6E6"/>
<path d="M97.3354 102.697C98.0427 102.697 98.6161 102.049 98.6161 101.249C98.6161 100.449 98.0427 99.8009 97.3354 99.8009C96.6281 99.8009 96.0547 100.449 96.0547 101.249C96.0547 102.049 96.6281 102.697 97.3354 102.697Z" fill="#A2E6E6"/>
<path d="M97.3354 86.0452C98.0427 86.0452 98.6161 85.3969 98.6161 84.5973C98.6161 83.7976 98.0427 83.1493 97.3354 83.1493C96.6281 83.1493 96.0547 83.7976 96.0547 84.5973C96.0547 85.3969 96.6281 86.0452 97.3354 86.0452Z" fill="#A2E6E6"/>
<path d="M97.3354 69.3936C98.0427 69.3936 98.6161 68.7454 98.6161 67.9457C98.6161 67.146 98.0427 66.4977 97.3354 66.4977C96.6281 66.4977 96.0547 67.146 96.0547 67.9457C96.0547 68.7454 96.6281 69.3936 97.3354 69.3936Z" fill="#A2E6E6"/>
<path d="M113.345 136C114.053 136 114.626 135.352 114.626 134.552C114.626 133.752 114.053 133.104 113.345 133.104C112.638 133.104 112.064 133.752 112.064 134.552C112.064 135.352 112.638 136 113.345 136Z" fill="#A2E6E6"/>
<path d="M113.345 119.348C114.053 119.348 114.626 118.7 114.626 117.9C114.626 117.101 114.053 116.452 113.345 116.452C112.638 116.452 112.064 117.101 112.064 117.9C112.064 118.7 112.638 119.348 113.345 119.348Z" fill="#A2E6E6"/>
<path d="M113.345 102.697C114.053 102.697 114.626 102.049 114.626 101.249C114.626 100.449 114.053 99.8009 113.345 99.8009C112.638 99.8009 112.064 100.449 112.064 101.249C112.064 102.049 112.638 102.697 113.345 102.697Z" fill="#A2E6E6"/>
<path d="M113.345 86.0452C114.053 86.0452 114.626 85.3969 114.626 84.5973C114.626 83.7976 114.053 83.1493 113.345 83.1493C112.638 83.1493 112.064 83.7976 112.064 84.5973C112.064 85.3969 112.638 86.0452 113.345 86.0452Z" fill="#A2E6E6"/>
<path d="M113.345 69.3936C114.053 69.3936 114.626 68.7454 114.626 67.9457C114.626 67.146 114.053 66.4977 113.345 66.4977C112.638 66.4977 112.064 67.146 112.064 67.9457C112.064 68.7454 112.638 69.3936 113.345 69.3936Z" fill="#A2E6E6"/>
<path d="M129.355 136C130.062 136 130.636 135.352 130.636 134.552C130.636 133.752 130.062 133.104 129.355 133.104C128.648 133.104 128.074 133.752 128.074 134.552C128.074 135.352 128.648 136 129.355 136Z" fill="#A2E6E6"/>
<path d="M129.355 119.348C130.062 119.348 130.636 118.7 130.636 117.9C130.636 117.101 130.062 116.452 129.355 116.452C128.648 116.452 128.074 117.101 128.074 117.9C128.074 118.7 128.648 119.348 129.355 119.348Z" fill="#A2E6E6"/>
<path d="M129.355 102.697C130.062 102.697 130.636 102.049 130.636 101.249C130.636 100.449 130.062 99.8009 129.355 99.8009C128.648 99.8009 128.074 100.449 128.074 101.249C128.074 102.049 128.648 102.697 129.355 102.697Z" fill="#A2E6E6"/>
<path d="M129.355 86.0452C130.062 86.0452 130.636 85.3969 130.636 84.5973C130.636 83.7976 130.062 83.1493 129.355 83.1493C128.648 83.1493 128.074 83.7976 128.074 84.5973C128.074 85.3969 128.648 86.0452 129.355 86.0452Z" fill="#A2E6E6"/>
<path d="M129.353 69.3936C130.06 69.3936 130.634 68.7454 130.634 67.9457C130.634 67.146 130.06 66.4977 129.353 66.4977C128.646 66.4977 128.072 67.146 128.072 67.9457C128.072 68.7454 128.646 69.3936 129.353 69.3936Z" fill="#A2E6E6"/>
<path d="M145.363 136C146.07 136 146.643 135.352 146.643 134.552C146.643 133.752 146.07 133.104 145.363 133.104C144.655 133.104 144.082 133.752 144.082 134.552C144.082 135.352 144.655 136 145.363 136Z" fill="#A2E6E6"/>
<path d="M145.363 119.348C146.07 119.348 146.643 118.7 146.643 117.9C146.643 117.101 146.07 116.452 145.363 116.452C144.655 116.452 144.082 117.101 144.082 117.9C144.082 118.7 144.655 119.348 145.363 119.348Z" fill="#A2E6E6"/>
<path d="M145.363 102.697C146.07 102.697 146.643 102.049 146.643 101.249C146.643 100.449 146.07 99.8009 145.363 99.8009C144.655 99.8009 144.082 100.449 144.082 101.249C144.082 102.049 144.655 102.697 145.363 102.697Z" fill="#A2E6E6"/>
<path d="M145.363 86.0452C146.07 86.0452 146.643 85.3969 146.643 84.5973C146.643 83.7976 146.07 83.1493 145.363 83.1493C144.655 83.1493 144.082 83.7976 144.082 84.5973C144.082 85.3969 144.655 86.0452 145.363 86.0452Z" fill="#A2E6E6"/>
<path d="M145.363 69.3936C146.07 69.3936 146.643 68.7454 146.643 67.9457C146.643 67.146 146.07 66.4977 145.363 66.4977C144.655 66.4977 144.082 67.146 144.082 67.9457C144.082 68.7454 144.655 69.3936 145.363 69.3936Z" fill="#A2E6E6"/>
<path d="M161.373 136C162.08 136 162.653 135.352 162.653 134.552C162.653 133.752 162.08 133.104 161.373 133.104C160.665 133.104 160.092 133.752 160.092 134.552C160.092 135.352 160.665 136 161.373 136Z" fill="#A2E6E6"/>
<path d="M161.373 119.348C162.08 119.348 162.653 118.7 162.653 117.9C162.653 117.101 162.08 116.452 161.373 116.452C160.665 116.452 160.092 117.101 160.092 117.9C160.092 118.7 160.665 119.348 161.373 119.348Z" fill="#A2E6E6"/>
<path d="M161.373 102.697C162.08 102.697 162.653 102.049 162.653 101.249C162.653 100.449 162.08 99.8009 161.373 99.8009C160.665 99.8009 160.092 100.449 160.092 101.249C160.092 102.049 160.665 102.697 161.373 102.697Z" fill="#A2E6E6"/>
<path d="M161.373 86.0452C162.08 86.0452 162.653 85.3969 162.653 84.5973C162.653 83.7976 162.08 83.1493 161.373 83.1493C160.665 83.1493 160.092 83.7976 160.092 84.5973C160.092 85.3969 160.665 86.0452 161.373 86.0452Z" fill="#A2E6E6"/>
<path d="M161.373 69.3936C162.08 69.3936 162.653 68.7454 162.653 67.9457C162.653 67.146 162.08 66.4977 161.373 66.4977C160.665 66.4977 160.092 67.146 160.092 67.9457C160.092 68.7454 160.665 69.3936 161.373 69.3936Z" fill="#A2E6E6"/>
<path d="M177.382 136C178.09 136 178.663 135.352 178.663 134.552C178.663 133.752 178.09 133.104 177.382 133.104C176.675 133.104 176.102 133.752 176.102 134.552C176.102 135.352 176.675 136 177.382 136Z" fill="#A2E6E6"/>
<path d="M177.382 119.348C178.09 119.348 178.663 118.7 178.663 117.9C178.663 117.101 178.09 116.452 177.382 116.452C176.675 116.452 176.102 117.101 176.102 117.9C176.102 118.7 176.675 119.348 177.382 119.348Z" fill="#A2E6E6"/>
<path d="M177.382 102.697C178.09 102.697 178.663 102.049 178.663 101.249C178.663 100.449 178.09 99.8009 177.382 99.8009C176.675 99.8009 176.102 100.449 176.102 101.249C176.102 102.049 176.675 102.697 177.382 102.697Z" fill="#A2E6E6"/>
<path d="M177.382 86.0452C178.09 86.0452 178.663 85.3969 178.663 84.5973C178.663 83.7976 178.09 83.1493 177.382 83.1493C176.675 83.1493 176.102 83.7976 176.102 84.5973C176.102 85.3969 176.675 86.0452 177.382 86.0452Z" fill="#A2E6E6"/>
<path d="M177.38 69.3936C178.088 69.3936 178.661 68.7454 178.661 67.9457C178.661 67.146 178.088 66.4977 177.38 66.4977C176.673 66.4977 176.1 67.146 176.1 67.9457C176.1 68.7454 176.673 69.3936 177.38 69.3936Z" fill="#A2E6E6"/>
<path d="M193.39 136C194.097 136 194.671 135.352 194.671 134.552C194.671 133.752 194.097 133.104 193.39 133.104C192.683 133.104 192.109 133.752 192.109 134.552C192.109 135.352 192.683 136 193.39 136Z" fill="#A2E6E6"/>
<path d="M193.39 119.348C194.097 119.348 194.671 118.7 194.671 117.9C194.671 117.101 194.097 116.452 193.39 116.452C192.683 116.452 192.109 117.101 192.109 117.9C192.109 118.7 192.683 119.348 193.39 119.348Z" fill="#A2E6E6"/>
<path d="M193.39 102.697C194.097 102.697 194.671 102.049 194.671 101.249C194.671 100.449 194.097 99.8009 193.39 99.8009C192.683 99.8009 192.109 100.449 192.109 101.249C192.109 102.049 192.683 102.697 193.39 102.697Z" fill="#A2E6E6"/>
<path d="M193.39 86.0452C194.097 86.0452 194.671 85.3969 194.671 84.5973C194.671 83.7976 194.097 83.1493 193.39 83.1493C192.683 83.1493 192.109 83.7976 192.109 84.5973C192.109 85.3969 192.683 86.0452 193.39 86.0452Z" fill="#A2E6E6"/>
<path d="M193.39 69.3936C194.097 69.3936 194.671 68.7454 194.671 67.9457C194.671 67.146 194.097 66.4977 193.39 66.4977C192.683 66.4977 192.109 67.146 192.109 67.9457C192.109 68.7454 192.683 69.3936 193.39 69.3936Z" fill="#A2E6E6"/>
<path d="M209.4 136C210.107 136 210.681 135.352 210.681 134.552C210.681 133.752 210.107 133.104 209.4 133.104C208.693 133.104 208.119 133.752 208.119 134.552C208.119 135.352 208.693 136 209.4 136Z" fill="#A2E6E6"/>
<path d="M209.4 119.348C210.107 119.348 210.681 118.7 210.681 117.9C210.681 117.101 210.107 116.452 209.4 116.452C208.693 116.452 208.119 117.101 208.119 117.9C208.119 118.7 208.693 119.348 209.4 119.348Z" fill="#A2E6E6"/>
<path d="M209.4 102.697C210.107 102.697 210.681 102.049 210.681 101.249C210.681 100.449 210.107 99.8009 209.4 99.8009C208.693 99.8009 208.119 100.449 208.119 101.249C208.119 102.049 208.693 102.697 209.4 102.697Z" fill="#A2E6E6"/>
<path d="M209.4 86.0452C210.107 86.0452 210.681 85.3969 210.681 84.5973C210.681 83.7976 210.107 83.1493 209.4 83.1493C208.693 83.1493 208.119 83.7976 208.119 84.5973C208.119 85.3969 208.693 86.0452 209.4 86.0452Z" fill="#A2E6E6"/>
<path d="M209.4 69.3936C210.107 69.3936 210.681 68.7454 210.681 67.9457C210.681 67.146 210.107 66.4977 209.4 66.4977C208.693 66.4977 208.119 67.146 208.119 67.9457C208.119 68.7454 208.693 69.3936 209.4 69.3936Z" fill="#A2E6E6"/>
<path d="M225.41 136C226.117 136 226.69 135.352 226.69 134.552C226.69 133.752 226.117 133.104 225.41 133.104C224.702 133.104 224.129 133.752 224.129 134.552C224.129 135.352 224.702 136 225.41 136Z" fill="#A2E6E6"/>
<path d="M225.41 119.348C226.117 119.348 226.69 118.7 226.69 117.9C226.69 117.101 226.117 116.452 225.41 116.452C224.702 116.452 224.129 117.101 224.129 117.9C224.129 118.7 224.702 119.348 225.41 119.348Z" fill="#A2E6E6"/>
<path d="M225.41 102.697C226.117 102.697 226.69 102.049 226.69 101.249C226.69 100.449 226.117 99.8009 225.41 99.8009C224.702 99.8009 224.129 100.449 224.129 101.249C224.129 102.049 224.702 102.697 225.41 102.697Z" fill="#A2E6E6"/>
<path d="M225.41 86.0452C226.117 86.0452 226.69 85.3969 226.69 84.5973C226.69 83.7976 226.117 83.1493 225.41 83.1493C224.702 83.1493 224.129 83.7976 224.129 84.5973C224.129 85.3969 224.702 86.0452 225.41 86.0452Z" fill="#A2E6E6"/>
<path d="M225.408 69.3936C226.115 69.3936 226.688 68.7454 226.688 67.9457C226.688 67.146 226.115 66.4977 225.408 66.4977C224.7 66.4977 224.127 67.146 224.127 67.9457C224.127 68.7454 224.7 69.3936 225.408 69.3936Z" fill="#A2E6E6"/>
</svg>
