<svg width="57" height="56" viewBox="0 0 57 56" fill="none" xmlns="http://www.w3.org/2000/svg">
<g id="solar:health-bold">
<path id="Vector" fill-rule="evenodd" clip-rule="evenodd" d="M21.2447 43.0943C14.3777 37.8327 5.00006 29.141 5.00006 20.923C5.00006 7.19368 17.8334 2.06735 28.3334 12.67C38.8334 2.06735 51.6667 7.19368 51.6667 20.923C51.6667 29.141 42.2867 37.8327 35.4221 43.0943C32.3141 45.4743 30.7601 46.6667 28.3334 46.6667C25.9067 46.6667 24.3527 45.4767 21.2447 43.0943ZM38.8334 14.5833C39.2975 14.5833 39.7426 14.7677 40.0708 15.0959C40.399 15.4241 40.5834 15.8692 40.5834 16.3333V19.25H43.5001C43.9642 19.25 44.4093 19.4344 44.7375 19.7626C45.0657 20.0908 45.2501 20.5359 45.2501 21C45.2501 21.4641 45.0657 21.9093 44.7375 22.2374C44.4093 22.5656 43.9642 22.75 43.5001 22.75H40.5834V25.6667C40.5834 26.1308 40.399 26.5759 40.0708 26.9041C39.7426 27.2323 39.2975 27.4167 38.8334 27.4167C38.3693 27.4167 37.9241 27.2323 37.596 26.9041C37.2678 26.5759 37.0834 26.1308 37.0834 25.6667V22.75H34.1667C33.7026 22.75 33.2575 22.5656 32.9293 22.2374C32.6011 21.9093 32.4167 21.4641 32.4167 21C32.4167 20.5359 32.6011 20.0908 32.9293 19.7626C33.2575 19.4344 33.7026 19.25 34.1667 19.25H37.0834V16.3333C37.0834 15.8692 37.2678 15.4241 37.596 15.0959C37.9241 14.7677 38.3693 14.5833 38.8334 14.5833Z" fill="white"/>
</g>
</svg>
