<svg width="16" height="16" viewBox="0 0 16 16" fill="none" xmlns="http://www.w3.org/2000/svg">
<g id="mdi:address-marker-outline">
<path id="Vector" d="M8.00065 4.33334C8.44268 4.33334 8.8666 4.50893 9.17916 4.82149C9.49172 5.13405 9.66732 5.55798 9.66732 6C9.66732 6.21887 9.62421 6.4356 9.54045 6.63781C9.45669 6.84002 9.33393 7.02375 9.17916 7.17851C9.0244 7.33328 8.84067 7.45604 8.63846 7.5398C8.43625 7.62356 8.21952 7.66667 8.00065 7.66667C7.55862 7.66667 7.1347 7.49107 6.82214 7.17851C6.50958 6.86595 6.33398 6.44203 6.33398 6C6.33398 5.55798 6.50958 5.13405 6.82214 4.82149C7.1347 4.50893 7.55862 4.33334 8.00065 4.33334ZM8.00065 1.33334C9.23833 1.33334 10.4253 1.825 11.3005 2.70017C12.1757 3.57534 12.6673 4.76233 12.6673 6C12.6673 9.5 8.00065 14.6667 8.00065 14.6667C8.00065 14.6667 3.33398 9.5 3.33398 6C3.33398 4.76233 3.82565 3.57534 4.70082 2.70017C5.57599 1.825 6.76297 1.33334 8.00065 1.33334ZM8.00065 2.66667C7.1166 2.66667 6.26875 3.01786 5.64363 3.64298C5.01851 4.2681 4.66732 5.11595 4.66732 6C4.66732 6.66667 4.66732 8 8.00065 12.4733C11.334 8 11.334 6.66667 11.334 6C11.334 5.11595 10.9828 4.2681 10.3577 3.64298C9.73255 3.01786 8.88471 2.66667 8.00065 2.66667Z" fill="#444444"/>
</g>
</svg>
