<svg width="24" height="26" viewBox="0 0 24 26" fill="none" xmlns="http://www.w3.org/2000/svg">
<g id="mdi:address-marker-outline">
<path id="Vector" d="M12 6.84741C12.663 6.84741 13.2989 7.12488 13.7678 7.61878C14.2366 8.11268 14.5 8.78255 14.5 9.48102C14.5 9.82688 14.4353 10.1693 14.3097 10.4889C14.1841 10.8084 13.9999 11.0987 13.7678 11.3433C13.5356 11.5878 13.26 11.7818 12.9567 11.9142C12.6534 12.0465 12.3283 12.1146 12 12.1146C11.337 12.1146 10.7011 11.8372 10.2322 11.3433C9.76339 10.8494 9.5 10.1795 9.5 9.48102C9.5 8.78255 9.76339 8.11268 10.2322 7.61878C10.7011 7.12488 11.337 6.84741 12 6.84741ZM12 2.1069C13.8565 2.1069 15.637 2.88382 16.9497 4.26673C18.2625 5.64965 19 7.52529 19 9.48102C19 15.0116 12 23.1758 12 23.1758C12 23.1758 5 15.0116 5 9.48102C5 7.52529 5.7375 5.64965 7.05025 4.26673C8.36301 2.88382 10.1435 2.1069 12 2.1069ZM12 4.21379C10.6739 4.21379 9.40215 4.76873 8.46447 5.75653C7.52678 6.74433 7 8.08407 7 9.48102C7 10.5345 7 12.6414 12 19.71C17 12.6414 17 10.5345 17 9.48102C17 8.08407 16.4732 6.74433 15.5355 5.75653C14.5979 4.76873 13.3261 4.21379 12 4.21379Z" fill="#02B6B4"/>
</g>
</svg>
