<svg width="285" height="51" viewBox="0 0 285 51" fill="none" xmlns="http://www.w3.org/2000/svg">
<g clip-path="url(#clip0_395_2537)">
<path d="M155.995 15.6783V37.1876H151.962V27.7865H141.819V37.1876H137.786V15.6783H141.819V24.9305H151.962V15.6783H155.995Z" fill="#555555"/>
<path d="M169.629 27.8014C169.629 27.3254 169.559 26.8792 169.42 26.4627C169.291 26.0363 169.091 25.6644 168.822 25.3471C168.554 25.0297 168.21 24.7818 167.792 24.6033C167.384 24.4149 166.906 24.3207 166.358 24.3207C165.292 24.3207 164.451 24.6231 163.834 25.2281C163.226 25.833 162.838 26.6907 162.669 27.8014H169.629ZM162.593 30.0178C162.653 30.8012 162.793 31.4805 163.012 32.0557C163.231 32.6209 163.52 33.092 163.878 33.4688C164.237 33.8357 164.66 34.1134 165.148 34.3018C165.646 34.4803 166.194 34.5695 166.791 34.5695C167.388 34.5695 167.901 34.5001 168.329 34.3613C168.768 34.2225 169.146 34.0688 169.465 33.9002C169.794 33.7316 170.077 33.5779 170.316 33.4391C170.565 33.3002 170.804 33.2308 171.033 33.2308C171.342 33.2308 171.571 33.3448 171.72 33.5729L172.781 34.9117C172.373 35.3877 171.914 35.7893 171.407 36.1166C170.899 36.4339 170.366 36.6917 169.808 36.89C169.261 37.0785 168.698 37.2124 168.121 37.2917C167.553 37.371 167 37.4107 166.462 37.4107C165.397 37.4107 164.406 37.2372 163.49 36.89C162.574 36.533 161.777 36.0124 161.1 35.3282C160.423 34.634 159.89 33.7812 159.501 32.7697C159.113 31.7483 158.919 30.5682 158.919 29.2294C158.919 28.1882 159.088 27.2114 159.427 26.2991C159.765 25.3768 160.249 24.5785 160.876 23.9042C161.513 23.2199 162.285 22.6795 163.191 22.2828C164.107 21.8862 165.138 21.6878 166.283 21.6878C167.249 21.6878 168.141 21.8415 168.957 22.1489C169.774 22.4563 170.476 22.9076 171.063 23.5025C171.651 24.0876 172.109 24.8116 172.437 25.6743C172.776 26.5272 172.945 27.5039 172.945 28.6047C172.945 29.16 172.886 29.5369 172.766 29.7352C172.647 29.9236 172.418 30.0178 172.079 30.0178H162.593Z" fill="#555555"/>
<path d="M183.81 30.6723C182.745 30.7219 181.848 30.8161 181.122 30.9549C180.394 31.0838 179.812 31.2524 179.374 31.4607C178.935 31.6689 178.622 31.9119 178.433 32.1896C178.243 32.4672 178.149 32.7697 178.149 33.0969C178.149 33.7415 178.338 34.2027 178.716 34.4803C179.105 34.758 179.608 34.8968 180.225 34.8968C180.982 34.8968 181.634 34.7629 182.182 34.4952C182.74 34.2175 183.282 33.801 183.81 33.2457V30.6723ZM175.356 24.0529C177.118 22.4464 179.239 21.6432 181.719 21.6432C182.615 21.6432 183.417 21.7919 184.124 22.0894C184.831 22.377 185.428 22.7836 185.916 23.3092C186.404 23.8249 186.773 24.4446 187.022 25.1686C187.281 25.8925 187.41 26.6858 187.41 27.5486V37.1876H185.737C185.388 37.1876 185.12 37.138 184.931 37.0388C184.741 36.9297 184.592 36.7165 184.482 36.3992L184.154 35.2984C183.765 35.6455 183.387 35.9529 183.018 36.2207C182.65 36.4785 182.267 36.6967 181.868 36.8752C181.47 37.0537 181.042 37.1876 180.584 37.2768C180.136 37.376 179.638 37.4255 179.09 37.4255C178.443 37.4255 177.845 37.3413 177.297 37.1727C176.75 36.9942 176.277 36.7314 175.878 36.3843C175.48 36.0372 175.171 35.6059 174.952 35.0902C174.733 34.5745 174.624 33.9746 174.624 33.2903C174.624 32.9036 174.688 32.5218 174.818 32.1449C174.947 31.7582 175.157 31.3913 175.445 31.0442C175.744 30.6971 176.127 30.3698 176.595 30.0624C177.064 29.755 177.636 29.4873 178.313 29.2592C179 29.0311 179.797 28.8477 180.703 28.7088C181.609 28.5601 182.645 28.4708 183.81 28.4411V27.5486C183.81 26.5272 183.591 25.7735 183.153 25.2875C182.715 24.7917 182.083 24.5438 181.256 24.5438C180.658 24.5438 180.16 24.6132 179.762 24.752C179.374 24.8909 179.03 25.0496 178.731 25.2281C178.433 25.3966 178.159 25.5503 177.91 25.6892C177.671 25.828 177.402 25.8974 177.103 25.8974C176.844 25.8974 176.625 25.833 176.446 25.7041C176.267 25.5652 176.122 25.4066 176.013 25.2281L175.356 24.0529Z" fill="#555555"/>
<path d="M194.619 15.0833V37.1876H190.93V15.0833H194.619Z" fill="#555555"/>
<path d="M203.404 37.4256C202.069 37.4256 201.044 37.0537 200.327 36.31C199.62 35.5563 199.266 34.52 199.266 33.2011V24.6777H197.698C197.499 24.6777 197.329 24.6132 197.19 24.4843C197.05 24.3554 196.981 24.162 196.981 23.9042V22.4464L199.445 22.0448L200.222 17.8798C200.272 17.6815 200.367 17.5278 200.506 17.4187C200.645 17.3096 200.825 17.2551 201.044 17.2551H202.956V22.0597H207.048V24.6777H202.956V32.9482C202.956 33.4242 203.07 33.7961 203.299 34.0638C203.538 34.3316 203.862 34.4655 204.27 34.4655C204.499 34.4655 204.689 34.4407 204.838 34.3911C204.997 34.3316 205.132 34.2721 205.241 34.2126C205.361 34.1531 205.465 34.0985 205.555 34.0489C205.644 33.9895 205.734 33.9597 205.824 33.9597C205.933 33.9597 206.023 33.9895 206.093 34.0489C206.162 34.0985 206.237 34.1779 206.317 34.287L207.422 36.072C206.884 36.5182 206.267 36.8554 205.57 37.0834C204.873 37.3115 204.151 37.4256 203.404 37.4256Z" fill="#555555"/>
<path d="M213.1 23.5621C213.698 23.0067 214.355 22.5555 215.072 22.2084C215.789 21.8614 216.63 21.6878 217.597 21.6878C218.433 21.6878 219.175 21.8316 219.822 22.1192C220.47 22.3969 221.007 22.7935 221.435 23.3092C221.873 23.8149 222.202 24.4248 222.421 25.1388C222.65 25.8429 222.765 26.6213 222.765 27.4742V37.1876H219.075V27.4742C219.075 26.542 218.861 25.8231 218.433 25.3173C218.005 24.8017 217.353 24.5438 216.476 24.5438C215.839 24.5438 215.241 24.6876 214.684 24.9752C214.126 25.2628 213.598 25.6545 213.1 26.1503V37.1876H209.411V15.0833H213.1V23.5621Z" fill="#555555"/>
<path d="M241.397 32.1152C241.617 32.1152 241.811 32.1995 241.98 32.3681L243.563 34.0787C242.687 35.1596 241.606 35.9877 240.322 36.5628C239.047 37.138 237.514 37.4256 235.721 37.4256C234.118 37.4256 232.674 37.1528 231.389 36.6074C230.115 36.062 229.024 35.3034 228.118 34.3316C227.212 33.3597 226.515 32.1995 226.027 30.8508C225.549 29.5021 225.31 28.0295 225.31 26.4329C225.31 24.8165 225.569 23.3389 226.087 22.0002C226.604 20.6515 227.331 19.4913 228.267 18.5194C229.213 17.5476 230.339 16.7939 231.643 16.2584C232.948 15.713 234.392 15.4403 235.975 15.4403C237.548 15.4403 238.943 15.6982 240.158 16.2138C241.382 16.7295 242.423 17.4038 243.279 18.2368L241.935 20.0962C241.856 20.2152 241.751 20.3193 241.621 20.4086C241.502 20.4978 241.333 20.5424 241.114 20.5424C240.964 20.5424 240.81 20.5028 240.651 20.4234C240.491 20.3342 240.317 20.2301 240.128 20.1111C239.938 19.9821 239.719 19.8433 239.47 19.6946C239.221 19.5458 238.933 19.4119 238.604 19.2929C238.276 19.164 237.892 19.0599 237.454 18.9806C237.026 18.8913 236.528 18.8467 235.96 18.8467C234.994 18.8467 234.108 19.0202 233.301 19.3673C232.504 19.7045 231.818 20.2003 231.24 20.8548C230.662 21.4994 230.214 22.2927 229.896 23.2348C229.577 24.167 229.418 25.233 229.418 26.4329C229.418 27.6428 229.587 28.7187 229.925 29.6608C230.274 30.6029 230.742 31.3962 231.33 32.0408C231.917 32.6854 232.609 33.1812 233.406 33.5283C234.202 33.8655 235.059 34.0341 235.975 34.0341C236.523 34.0341 237.016 34.0043 237.454 33.9448C237.902 33.8853 238.31 33.7911 238.679 33.6622C239.057 33.5333 239.411 33.3696 239.739 33.1713C240.078 32.9631 240.411 32.7102 240.74 32.4127C240.84 32.3235 240.944 32.254 241.054 32.2044C241.164 32.1449 241.278 32.1152 241.397 32.1152Z" fill="#555555"/>
<path d="M253.829 30.6723C252.764 30.7219 251.868 30.8161 251.14 30.9549C250.414 31.0838 249.831 31.2524 249.393 31.4607C248.955 31.6689 248.641 31.9119 248.452 32.1896C248.263 32.4672 248.168 32.7697 248.168 33.0969C248.168 33.7415 248.357 34.2027 248.736 34.4803C249.124 34.758 249.627 34.8968 250.244 34.8968C251.001 34.8968 251.653 34.7629 252.201 34.4952C252.759 34.2175 253.302 33.801 253.829 33.2457V30.6723ZM245.375 24.0529C247.137 22.4464 249.258 21.6432 251.738 21.6432C252.634 21.6432 253.436 21.7919 254.143 22.0894C254.85 22.377 255.448 22.7836 255.935 23.3092C256.423 23.8249 256.792 24.4446 257.041 25.1686C257.3 25.8925 257.429 26.6858 257.429 27.5486V37.1876H255.756C255.408 37.1876 255.139 37.138 254.949 37.0388C254.76 36.9297 254.611 36.7165 254.501 36.3992L254.173 35.2984C253.784 35.6455 253.406 35.9529 253.038 36.2207C252.669 36.4785 252.286 36.6967 251.888 36.8752C251.489 37.0537 251.061 37.1876 250.603 37.2768C250.155 37.376 249.657 37.4255 249.109 37.4255C248.462 37.4255 247.864 37.3413 247.317 37.1727C246.769 36.9942 246.296 36.7314 245.897 36.3843C245.499 36.0372 245.19 35.6059 244.971 35.0902C244.752 34.5745 244.643 33.9746 244.643 33.2903C244.643 32.9036 244.707 32.5218 244.837 32.1449C244.966 31.7582 245.175 31.3913 245.464 31.0442C245.763 30.6971 246.147 30.3698 246.614 30.0624C247.082 29.755 247.655 29.4873 248.332 29.2592C249.02 29.0311 249.816 28.8477 250.722 28.7088C251.628 28.5601 252.664 28.4708 253.829 28.4411V27.5486C253.829 26.5272 253.61 25.7735 253.172 25.2875C252.734 24.7917 252.101 24.5438 251.275 24.5438C250.678 24.5438 250.18 24.6132 249.781 24.752C249.393 24.8909 249.049 25.0496 248.751 25.2281C248.452 25.3966 248.178 25.5503 247.929 25.6892C247.69 25.828 247.421 25.8974 247.122 25.8974C246.864 25.8974 246.644 25.833 246.465 25.7041C246.286 25.5652 246.141 25.4066 246.032 25.2281L245.375 24.0529Z" fill="#555555"/>
<path d="M264.385 24.5735C264.862 23.6612 265.43 22.9472 266.087 22.4315C266.744 21.906 267.521 21.6432 268.418 21.6432C269.124 21.6432 269.692 21.7969 270.121 22.1043L269.881 24.8562C269.832 25.0347 269.757 25.1636 269.657 25.2429C269.568 25.3123 269.443 25.3471 269.284 25.3471C269.135 25.3471 268.911 25.3223 268.612 25.2727C268.323 25.2231 268.039 25.1983 267.76 25.1983C267.352 25.1983 266.989 25.2578 266.67 25.3768C266.351 25.4958 266.063 25.6693 265.803 25.8974C265.555 26.1156 265.33 26.3833 265.131 26.7007C264.942 27.018 264.763 27.38 264.593 27.7865V37.1876H260.904V21.9258H263.07C263.448 21.9258 263.712 21.9952 263.862 22.1341C264.011 22.263 264.111 22.501 264.16 22.8481L264.385 24.5735Z" fill="#555555"/>
<path d="M281.485 27.8014C281.485 27.3254 281.415 26.8792 281.275 26.4627C281.146 26.0363 280.947 25.6644 280.678 25.3471C280.409 25.0297 280.066 24.7818 279.648 24.6033C279.239 24.4149 278.761 24.3207 278.214 24.3207C277.148 24.3207 276.307 24.6231 275.689 25.2281C275.082 25.833 274.693 26.6907 274.524 27.8014H281.485ZM274.449 30.0178C274.509 30.8012 274.648 31.4805 274.867 32.0557C275.086 32.6209 275.375 33.092 275.734 33.4688C276.092 33.8357 276.516 34.1134 277.004 34.3018C277.501 34.4803 278.049 34.5695 278.647 34.5695C279.244 34.5695 279.757 34.5001 280.185 34.3613C280.623 34.2225 281.002 34.0688 281.32 33.9002C281.649 33.7316 281.933 33.5779 282.172 33.4391C282.421 33.3002 282.66 33.2308 282.889 33.2308C283.198 33.2308 283.426 33.3448 283.576 33.5729L284.636 34.9117C284.228 35.3877 283.77 35.7893 283.262 36.1166C282.754 36.4339 282.222 36.6917 281.664 36.89C281.116 37.0785 280.554 37.2124 279.976 37.2917C279.408 37.371 278.856 37.4107 278.318 37.4107C277.253 37.4107 276.262 37.2372 275.346 36.89C274.429 36.533 273.633 36.0124 272.955 35.3282C272.278 34.634 271.746 33.7812 271.357 32.7697C270.969 31.7483 270.775 30.5682 270.775 29.2294C270.775 28.1882 270.944 27.2114 271.282 26.2991C271.621 25.3768 272.104 24.5785 272.731 23.9042C273.369 23.2199 274.141 22.6795 275.047 22.2828C275.963 21.8862 276.993 21.6878 278.139 21.6878C279.105 21.6878 279.996 21.8415 280.813 22.1489C281.629 22.4563 282.331 22.9076 282.919 23.5025C283.506 24.0876 283.964 24.8116 284.293 25.6743C284.632 26.5272 284.801 27.5039 284.801 28.6047C284.801 29.16 284.741 29.5369 284.622 29.7352C284.502 29.9236 284.273 30.0178 283.935 30.0178H274.449Z" fill="#555555"/>
<path d="M76.4911 25.704C77.178 25.704 77.7605 25.6197 78.2386 25.4511C78.7265 25.2726 79.1249 25.0297 79.4337 24.7223C79.7422 24.4148 79.9662 24.0578 80.1058 23.6513C80.2453 23.2347 80.3149 22.7885 80.3149 22.3125C80.3149 21.3605 80.0014 20.6168 79.3739 20.0813C78.7566 19.5458 77.7957 19.278 76.4911 19.278H74.4593V25.704H76.4911ZM87.2159 37.1875H82.6454C81.7986 37.1875 81.1914 36.8702 80.8228 36.2355L77.2081 29.9434C77.0388 29.6756 76.8496 29.4823 76.6404 29.3633C76.4313 29.2343 76.1326 29.1699 75.744 29.1699H74.4593V37.1875H69.4106V15.5146H76.4911C78.0642 15.5146 79.4036 15.6782 80.5092 16.0055C81.6246 16.3228 82.5308 16.7691 83.2279 17.3442C83.9347 17.9194 84.4476 18.5987 84.7662 19.3821C85.0849 20.1655 85.2444 21.0184 85.2444 21.9406C85.2444 22.6447 85.1498 23.3091 84.9605 23.9339C84.7713 24.5586 84.4926 25.1387 84.1239 25.6742C83.7556 26.1998 83.2975 26.6709 82.7497 27.0874C82.2118 27.5039 81.5894 27.846 80.8826 28.1138C81.2114 28.2823 81.5198 28.4956 81.8087 28.7534C82.0976 29.0013 82.3564 29.2988 82.5855 29.6459L87.2159 37.1875Z" fill="#46B3B2"/>
<path d="M97.8938 33.2159C98.5709 33.2159 99.1733 33.1068 99.7011 32.8886C100.239 32.6605 100.692 32.3383 101.06 31.9217C101.429 31.5053 101.708 30.9995 101.897 30.4045C102.096 29.7996 102.196 29.1153 102.196 28.3517V15.5146H107.244V28.3517C107.244 29.6806 107.026 30.9003 106.587 32.011C106.159 33.1217 105.541 34.0786 104.735 34.8819C103.928 35.6851 102.948 36.3099 101.792 36.7561C100.637 37.2024 99.3375 37.4255 97.8938 37.4255C96.4398 37.4255 95.1353 37.2024 93.98 36.7561C92.8248 36.3099 91.8439 35.6851 91.0374 34.8819C90.2308 34.0786 89.6131 33.1217 89.1851 32.011C88.757 30.9003 88.5427 29.6806 88.5427 28.3517V15.5146H93.5918V28.3369C93.5918 29.1005 93.6864 29.7847 93.8756 30.3896C94.0746 30.9846 94.3584 31.4953 94.7267 31.9217C95.0954 32.3383 95.5434 32.6605 96.0712 32.8886C96.6091 33.1068 97.2167 33.2159 97.8938 33.2159Z" fill="#46B3B2"/>
<path d="M123.213 19.9176C123.064 20.1556 122.905 20.3341 122.735 20.4531C122.576 20.5722 122.367 20.6316 122.108 20.6316C121.879 20.6316 121.63 20.5622 121.361 20.4234C121.102 20.2746 120.803 20.111 120.465 19.9325C120.136 19.754 119.758 19.5953 119.329 19.4565C118.901 19.3077 118.413 19.2334 117.866 19.2334C116.92 19.2334 116.213 19.4367 115.744 19.8432C115.287 20.2399 115.058 20.7804 115.058 21.4647C115.058 21.901 115.197 22.2629 115.476 22.5505C115.755 22.8381 116.118 23.086 116.566 23.2943C117.024 23.5025 117.542 23.6959 118.12 23.8744C118.707 24.043 119.305 24.2363 119.912 24.4545C120.519 24.6627 121.112 24.9107 121.69 25.1983C122.277 25.4858 122.795 25.8528 123.243 26.299C123.701 26.7453 124.07 27.2907 124.348 27.9353C124.628 28.5699 124.767 29.3385 124.767 30.2409C124.767 31.2425 124.592 32.1796 124.244 33.0522C123.895 33.9249 123.387 34.6885 122.72 35.343C122.063 35.9876 121.247 36.4983 120.271 36.8751C119.305 37.2421 118.204 37.4255 116.969 37.4255C116.292 37.4255 115.6 37.3561 114.893 37.2173C114.196 37.0784 113.519 36.8851 112.862 36.6372C112.204 36.3793 111.587 36.0769 111.009 35.7298C110.432 35.3827 109.929 34.9959 109.501 34.5695L110.994 32.2193C111.114 32.0507 111.268 31.9118 111.458 31.8027C111.657 31.6838 111.871 31.6243 112.1 31.6243C112.399 31.6243 112.697 31.7185 112.996 31.9069C113.305 32.0953 113.648 32.3036 114.027 32.5317C114.415 32.7597 114.858 32.968 115.356 33.1564C115.854 33.3448 116.441 33.439 117.119 33.439C118.035 33.439 118.747 33.2407 119.255 32.844C119.763 32.4374 120.017 31.7978 120.017 30.9252C120.017 30.4194 119.877 30.0079 119.598 29.6905C119.32 29.3732 118.951 29.1104 118.493 28.9021C118.045 28.6939 117.532 28.5104 116.954 28.3518C116.377 28.1931 115.784 28.0196 115.177 27.8311C114.57 27.6328 113.977 27.3948 113.4 27.1171C112.822 26.8295 112.304 26.4577 111.846 26.0015C111.398 25.5354 111.034 24.9603 110.756 24.276C110.477 23.5819 110.337 22.729 110.337 21.7175C110.337 20.9044 110.501 20.111 110.83 19.3375C111.159 18.564 111.642 17.8748 112.279 17.2699C112.916 16.665 113.698 16.184 114.624 15.827C115.551 15.4601 116.611 15.2766 117.806 15.2766C118.473 15.2766 119.12 15.3312 119.748 15.4403C120.385 15.5394 120.988 15.6931 121.555 15.9014C122.123 16.0997 122.65 16.3427 123.139 16.6302C123.636 16.9079 124.08 17.2253 124.468 17.5823L123.213 19.9176Z" fill="#46B3B2"/>
<path d="M32.8058 7.08378V25.5C32.8058 29.4109 29.6221 32.5838 25.692 32.5838H7.20016C3.27005 32.5812 0.0863037 29.4109 0.0863037 25.5C0.0863037 21.5891 3.27005 18.4162 7.20016 18.4162H16.493C17.6461 18.4162 18.5808 17.4855 18.5808 16.3374V7.08378C18.5808 3.17028 21.7645 0 25.6946 0C29.6247 0 32.8058 3.17028 32.8058 7.08378Z" fill="url(#paint0_linear_395_2537)"/>
<path fill-rule="evenodd" clip-rule="evenodd" d="M44.1864 32.5838C48.1166 32.5838 51.3004 29.4109 51.3004 25.5C51.3004 21.5865 48.1166 18.4162 44.1891 18.4162H34.9406V27.1605C34.9406 31.3286 31.5507 34.7068 27.3648 34.7068H18.5808V43.9161C18.5808 47.8271 21.7619 51 25.692 51C29.6222 51 32.8059 47.8271 32.8059 43.9161V34.6626C32.8059 33.5145 33.7406 32.5838 34.8936 32.5838H44.1864Z" fill="url(#paint1_linear_395_2537)"/>
</g>
<defs>
<linearGradient id="paint0_linear_395_2537" x1="3.23383" y1="13.8793" x2="42.5778" y2="16.4104" gradientUnits="userSpaceOnUse">
<stop stop-color="#46B3B2"/>
<stop offset="1" stop-color="#24C2C1" stop-opacity="0.9"/>
</linearGradient>
<linearGradient id="paint1_linear_395_2537" x1="3.23388" y1="13.8793" x2="42.5779" y2="16.4104" gradientUnits="userSpaceOnUse">
<stop stop-color="#46B3B2"/>
<stop offset="1" stop-color="#24C2C1" stop-opacity="0.9"/>
</linearGradient>
<clipPath id="clip0_395_2537">
<rect width="285" height="51" fill="white"/>
</clipPath>
</defs>
</svg>
