<svg width="57" height="56" viewBox="0 0 57 56" fill="none" xmlns="http://www.w3.org/2000/svg">
<g id="maki:doctor">
<path id="Vector" d="M21.2 26.1333C18.7246 26.1333 16.3506 25.15 14.6003 23.3997C12.85 21.6493 11.8666 19.2754 11.8666 16.8V9.33334C11.8666 8.83827 12.0633 8.36347 12.4134 8.01341C12.7634 7.66334 13.2382 7.46667 13.7333 7.46667H15.6C16.095 7.46667 16.5698 7.27 16.9199 6.91994C17.27 6.56987 17.4666 6.09507 17.4666 5.6C17.4666 5.10493 17.27 4.63014 16.9199 4.28007C16.5698 3.93 16.095 3.73334 15.6 3.73334H13.7333C12.2481 3.73334 10.8237 4.32334 9.7735 5.37354C8.7233 6.42374 8.1333 7.84812 8.1333 9.33334V16.8C8.1357 18.9088 8.64994 20.9856 9.63186 22.8519C10.6138 24.7182 12.034 26.3183 13.7706 27.5147C15.4391 28.9857 16.7922 30.7795 17.7483 32.7878C18.7043 34.7962 19.2435 36.9775 19.3333 39.2C19.3333 42.6655 20.71 45.9891 23.1604 48.4395C25.6109 50.89 28.9345 52.2667 32.4 52.2667C35.8655 52.2667 39.189 50.89 41.6395 48.4395C44.09 45.9891 45.4666 42.6655 45.4666 39.2V37.072C47.2263 36.6177 48.7598 35.5372 49.7798 34.0331C50.7997 32.5289 51.2361 30.7045 51.0071 28.9016C50.7781 27.0988 49.8995 25.4413 48.5359 24.2399C47.1723 23.0386 45.4173 22.3758 43.6 22.3758C41.7826 22.3758 40.0277 23.0386 38.6641 24.2399C37.3005 25.4413 36.4218 27.0988 36.1928 28.9016C35.9638 30.7045 36.4002 32.5289 37.4202 34.0331C38.4401 35.5372 39.9737 36.6177 41.7333 37.072V39.2C41.7333 41.6754 40.75 44.0493 38.9996 45.7997C37.2493 47.55 34.8753 48.5333 32.4 48.5333C29.9246 48.5333 27.5506 47.55 25.8003 45.7997C24.05 44.0493 23.0666 41.6754 23.0666 39.2C23.1611 36.9747 23.7061 34.7918 24.6687 32.7832C25.6313 30.7747 26.9913 28.9824 28.6666 27.5147C30.3963 26.3141 31.8093 24.7122 32.7846 22.8462C33.7599 20.9801 34.2684 18.9055 34.2666 16.8V9.33334C34.2666 7.84812 33.6766 6.42374 32.6264 5.37354C31.5762 4.32334 30.1518 3.73334 28.6666 3.73334H26.8C26.3049 3.73334 25.8301 3.93 25.48 4.28007C25.13 4.63014 24.9333 5.10493 24.9333 5.6C24.9333 6.09507 25.13 6.56987 25.48 6.91994C25.8301 7.27 26.3049 7.46667 26.8 7.46667H28.6666C29.1617 7.46667 29.6365 7.66334 29.9866 8.01341C30.3366 8.36347 30.5333 8.83827 30.5333 9.33334V16.8C30.5333 18.0257 30.2919 19.2393 29.8228 20.3717C29.3538 21.5041 28.6663 22.533 27.7996 23.3997C26.9329 24.2663 25.9041 24.9538 24.7717 25.4229C23.6393 25.8919 22.4256 26.1333 21.2 26.1333ZM43.6 33.6C42.6098 33.6 41.6602 33.2067 40.9601 32.5065C40.26 31.8064 39.8666 30.8568 39.8666 29.8667C39.8666 28.8765 40.26 27.9269 40.9601 27.2268C41.6602 26.5267 42.6098 26.1333 43.6 26.1333C44.5901 26.1333 45.5397 26.5267 46.2398 27.2268C46.94 27.9269 47.3333 28.8765 47.3333 29.8667C47.3333 30.8568 46.94 31.8064 46.2398 32.5065C45.5397 33.2067 44.5901 33.6 43.6 33.6Z" fill="white"/>
</g>
</svg>
