<svg width="18" height="18" viewBox="0 0 18 18" fill="none" xmlns="http://www.w3.org/2000/svg">
<g id="maki:doctor">
<path id="Vector" d="M6.5999 8.4C5.80425 8.4 5.04119 8.08393 4.47858 7.52132C3.91597 6.95871 3.5999 6.19565 3.5999 5.4V3C3.5999 2.84087 3.66312 2.68825 3.77564 2.57573C3.88816 2.46321 4.04077 2.4 4.1999 2.4H4.7999C4.95903 2.4 5.11164 2.33678 5.22417 2.22426C5.33669 2.11174 5.3999 1.95913 5.3999 1.8C5.3999 1.64087 5.33669 1.48825 5.22417 1.37573C5.11164 1.26321 4.95903 1.2 4.7999 1.2H4.1999C3.72251 1.2 3.26468 1.38964 2.92711 1.7272C2.58954 2.06477 2.3999 2.52261 2.3999 3V5.4C2.40067 6.07784 2.56597 6.74536 2.88158 7.34524C3.1972 7.94513 3.65371 8.45943 4.2119 8.844C4.7482 9.31681 5.18313 9.8934 5.49043 10.5389C5.79774 11.1845 5.97105 11.8856 5.9999 12.6C5.9999 13.7139 6.4424 14.7822 7.23005 15.5698C8.01771 16.3575 9.08599 16.8 10.1999 16.8C11.3138 16.8 12.3821 16.3575 13.1698 15.5698C13.9574 14.7822 14.3999 13.7139 14.3999 12.6V11.916C14.9655 11.77 15.4584 11.4227 15.7863 10.9392C16.1141 10.4557 16.2544 9.86928 16.1808 9.2898C16.1072 8.71031 15.8247 8.17756 15.3864 7.7914C14.9481 7.40525 14.384 7.19221 13.7999 7.19221C13.2158 7.19221 12.6517 7.40525 12.2134 7.7914C11.7751 8.17756 11.4926 8.71031 11.419 9.2898C11.3454 9.86928 11.4857 10.4557 11.8135 10.9392C12.1414 11.4227 12.6343 11.77 13.1999 11.916V12.6C13.1999 13.3956 12.8838 14.1587 12.3212 14.7213C11.7586 15.2839 10.9956 15.6 10.1999 15.6C9.40425 15.6 8.64119 15.2839 8.07858 14.7213C7.51597 14.1587 7.1999 13.3956 7.1999 12.6C7.23027 11.8847 7.40546 11.1831 7.71485 10.5375C8.02424 9.89187 8.46141 9.31575 8.9999 8.844C9.55588 8.4581 10.0101 7.94321 10.3235 7.34341C10.637 6.74361 10.8005 6.07678 10.7999 5.4V3C10.7999 2.52261 10.6103 2.06477 10.2727 1.7272C9.93513 1.38964 9.47729 1.2 8.9999 1.2H8.3999C8.24077 1.2 8.08816 1.26321 7.97564 1.37573C7.86312 1.48825 7.7999 1.64087 7.7999 1.8C7.7999 1.95913 7.86312 2.11174 7.97564 2.22426C8.08816 2.33678 8.24077 2.4 8.3999 2.4H8.9999C9.15903 2.4 9.31164 2.46321 9.42417 2.57573C9.53669 2.68825 9.5999 2.84087 9.5999 3V5.4C9.5999 5.79396 9.52231 6.18407 9.37154 6.54805C9.22078 6.91202 8.9998 7.24274 8.72122 7.52132C8.44265 7.79989 8.11193 8.02087 7.74795 8.17164C7.38398 8.3224 6.99387 8.4 6.5999 8.4ZM13.7999 10.8C13.4816 10.8 13.1764 10.6736 12.9514 10.4485C12.7263 10.2235 12.5999 9.91826 12.5999 9.6C12.5999 9.28174 12.7263 8.97651 12.9514 8.75147C13.1764 8.52642 13.4816 8.4 13.7999 8.4C14.1182 8.4 14.4234 8.52642 14.6484 8.75147C14.8735 8.97651 14.9999 9.28174 14.9999 9.6C14.9999 9.91826 14.8735 10.2235 14.6484 10.4485C14.4234 10.6736 14.1182 10.8 13.7999 10.8Z" fill="#02B6B4"/>
</g>
</svg>
