<svg width="24" height="26" viewBox="0 0 24 26" fill="none" xmlns="http://www.w3.org/2000/svg">
<g id="Vector">
<path id="Vector_2" d="M8.09639 0.358643L15.1217 4.45773L23.1325 1.1197V10.951H20.8193V4.58958L16.1928 6.51768V10.951H13.8795V6.41011L9.25301 3.7117V17.8052L11.4136 19.0659L10.2477 21.0634L8.01079 19.7576L0 23.0956V5.0823L8.09639 0.358643ZM6.93976 17.6976V3.7117L2.31325 6.41011V19.6257L6.93976 17.6976ZM18.506 14.4209C17.6624 14.4209 16.8534 14.756 16.2569 15.3525C15.6604 15.949 15.3253 16.758 15.3253 17.6016C15.3253 19.0497 16.1754 20.44 17.1933 21.5596C17.664 22.0778 18.1382 22.5011 18.506 22.803C18.8738 22.5023 19.348 22.0778 19.8188 21.5596C20.8366 20.44 21.6867 19.0497 21.6867 17.6016C21.6867 16.758 21.3516 15.949 20.7551 15.3525C20.1586 14.756 19.3496 14.4209 18.506 14.4209ZM18.506 25.6413L17.8641 25.2145L17.8618 25.2134L17.8572 25.2099L17.8433 25.2007L17.797 25.1683C17.5587 25.0003 17.3261 24.8244 17.0996 24.6409C16.5228 24.1739 15.9819 23.6643 15.4814 23.1164C14.3306 21.8511 13.012 19.916 13.012 17.6016C13.012 16.1445 13.5909 14.7471 14.6212 13.7168C15.6515 12.6865 17.0489 12.1077 18.506 12.1077C19.9631 12.1077 21.3605 12.6865 22.3909 13.7168C23.4212 14.7471 24 16.1445 24 17.6016C24 19.916 22.6814 21.8511 21.5306 23.1164C20.8323 23.8792 20.0563 24.5669 19.215 25.1683L19.1688 25.2007L19.1549 25.2099L19.1503 25.2134H19.148L18.506 25.6413ZM17.0602 16.7342H19.9518V19.0474H17.0602V16.7342Z" fill="#444444"/>
</g>
</svg>
