<svg width="24" height="24" viewBox="0 0 24 24" fill="none" xmlns="http://www.w3.org/2000/svg">
<g id="Group">
<path id="Vector" fill-rule="evenodd" clip-rule="evenodd" d="M12.7064 15.707C12.5188 15.8945 12.2645 15.9998 11.9994 15.9998C11.7342 15.9998 11.4799 15.8945 11.2924 15.707L5.63537 10.05C5.53986 9.95775 5.46367 9.84741 5.41126 9.7254C5.35886 9.6034 5.33127 9.47218 5.33012 9.3394C5.32896 9.20662 5.35426 9.07494 5.40454 8.95205C5.45483 8.82915 5.52908 8.7175 5.62297 8.6236C5.71686 8.52971 5.82852 8.45546 5.95141 8.40518C6.07431 8.3549 6.20599 8.3296 6.33877 8.33075C6.47155 8.3319 6.60277 8.35949 6.72477 8.4119C6.84677 8.46431 6.95712 8.54049 7.04937 8.636L11.9994 13.586L16.9494 8.636C17.138 8.45384 17.3906 8.35305 17.6528 8.35533C17.915 8.3576 18.1658 8.46277 18.3512 8.64818C18.5366 8.83359 18.6418 9.0844 18.644 9.3466C18.6463 9.6088 18.5455 9.8614 18.3634 10.05L12.7064 15.707Z" fill="#444444"/>
</g>
</svg>
