<svg width="24" height="26" viewBox="0 0 24 26" fill="none" xmlns="http://www.w3.org/2000/svg">
<g id="mdi:web">
<path id="Vector" d="M16.36 15.031C16.44 14.3357 16.5 13.6404 16.5 12.9241C16.5 12.2077 16.44 11.5125 16.36 10.8172H19.74C19.9 11.4914 20 12.1972 20 12.9241C20 13.651 19.9 14.3568 19.74 15.031M14.59 20.8881C15.19 19.7188 15.65 18.4547 15.97 17.1379H18.92C17.9512 18.8953 16.4141 20.2266 14.59 20.8881ZM14.34 15.031H9.66C9.56 14.3357 9.5 13.6404 9.5 12.9241C9.5 12.2077 9.56 11.5019 9.66 10.8172H14.34C14.43 11.5019 14.5 12.2077 14.5 12.9241C14.5 13.6404 14.43 14.3357 14.34 15.031ZM12 21.3095C11.17 20.0454 10.5 18.6443 10.09 17.1379H13.91C13.5 18.6443 12.83 20.0454 12 21.3095ZM8 8.71029H5.08C6.03886 6.9481 7.5748 5.61473 9.4 4.96003C8.8 6.12935 8.35 7.39349 8 8.71029ZM5.08 17.1379H8C8.35 18.4547 8.8 19.7188 9.4 20.8881C7.57862 20.2262 6.04485 18.8947 5.08 17.1379ZM4.26 15.031C4.1 14.3568 4 13.651 4 12.9241C4 12.1972 4.1 11.4914 4.26 10.8172H7.64C7.56 11.5125 7.5 12.2077 7.5 12.9241C7.5 13.6404 7.56 14.3357 7.64 15.031M12 4.52811C12.83 5.79225 13.5 7.20387 13.91 8.71029H10.09C10.5 7.20387 11.17 5.79225 12 4.52811ZM18.92 8.71029H15.97C15.657 7.40556 15.1936 6.1461 14.59 4.96003C16.43 5.6237 17.96 6.96157 18.92 8.71029ZM12 2.38962C6.47 2.38962 2 7.13012 2 12.9241C2 15.718 3.05357 18.3975 4.92893 20.3731C5.85752 21.3513 6.95991 22.1272 8.17317 22.6566C9.38642 23.1861 10.6868 23.4585 12 23.4585C14.6522 23.4585 17.1957 22.3487 19.0711 20.3731C20.9464 18.3975 22 15.718 22 12.9241C22 11.5407 21.7413 10.1708 21.2388 8.89271C20.7362 7.61461 19.9997 6.4533 19.0711 5.47509C18.1425 4.49687 17.0401 3.72091 15.8268 3.19151C14.6136 2.6621 13.3132 2.38962 12 2.38962Z" fill="#02B6B4"/>
</g>
</svg>
