<svg width="24" height="26" viewBox="0 0 24 26" fill="none" xmlns="http://www.w3.org/2000/svg">
<g id="mdi:web">
<path id="Vector" d="M16.36 14.7482C16.44 14.0529 16.5 13.3577 16.5 12.6413C16.5 11.925 16.44 11.2297 16.36 10.5344H19.74C19.9 11.2086 20 11.9145 20 12.6413C20 13.3682 19.9 14.074 19.74 14.7482M14.59 20.6054C15.19 19.4361 15.65 18.1719 15.97 16.8551H18.92C17.9512 18.6126 16.4141 19.9438 14.59 20.6054ZM14.34 14.7482H9.66C9.56 14.0529 9.5 13.3577 9.5 12.6413C9.5 11.925 9.56 11.2192 9.66 10.5344H14.34C14.43 11.2192 14.5 11.925 14.5 12.6413C14.5 13.3577 14.43 14.0529 14.34 14.7482ZM12 21.0268C11.17 19.7626 10.5 18.3615 10.09 16.8551H13.91C13.5 18.3615 12.83 19.7626 12 21.0268ZM8 8.42755H5.08C6.03886 6.66536 7.5748 5.33198 9.4 4.67728C8.8 5.84661 8.35 7.11074 8 8.42755ZM5.08 16.8551H8C8.35 18.1719 8.8 19.4361 9.4 20.6054C7.57862 19.9435 6.04485 18.612 5.08 16.8551ZM4.26 14.7482C4.1 14.074 4 13.3682 4 12.6413C4 11.9145 4.1 11.2086 4.26 10.5344H7.64C7.56 11.2297 7.5 11.925 7.5 12.6413C7.5 13.3577 7.56 14.0529 7.64 14.7482M12 4.24537C12.83 5.5095 13.5 6.92112 13.91 8.42755H10.09C10.5 6.92112 11.17 5.5095 12 4.24537ZM18.92 8.42755H15.97C15.657 7.12281 15.1936 5.86335 14.59 4.67728C16.43 5.34095 17.96 6.67883 18.92 8.42755ZM12 2.10687C6.47 2.10687 2 6.84738 2 12.6413C2 15.4352 3.05357 18.1147 4.92893 20.0903C5.85752 21.0685 6.95991 21.8445 8.17317 22.3739C9.38642 22.9033 10.6868 23.1758 12 23.1758C14.6522 23.1758 17.1957 22.0659 19.0711 20.0903C20.9464 18.1147 22 15.4352 22 12.6413C22 11.2579 21.7413 9.88807 21.2388 8.60997C20.7362 7.33187 19.9997 6.17056 19.0711 5.19234C18.1425 4.21413 17.0401 3.43817 15.8268 2.90876C14.6136 2.37935 13.3132 2.10687 12 2.10687Z" fill="#444444"/>
</g>
</svg>
